<svg xmlns="http://www.w3.org/2000/svg" xmlns:xlink="http://www.w3.org/1999/xlink" width="1440" zoomAndPan="magnify" viewBox="0 0 1080 607.499987" height="810" preserveAspectRatio="xMidYMid meet" version="1.0"><defs><filter x="0%" y="0%" width="100%" height="100%" id="id1"><feColorMatrix values="0 0 0 0 1 0 0 0 0 1 0 0 0 0 1 0 0 0 1 0" color-interpolation-filters="sRGB"/></filter><g/><mask id="id2"><g filter="url(#id1)"><rect x="-108" width="1296" fill="#000000" y="-60.749999" height="728.999984" fill-opacity="0.7569"/></g></mask><clipPath id="id3"><path d="M 0.902344 0.835938 L 42.121094 0.835938 L 42.121094 72.777344 L 0.902344 72.777344 Z M 0.902344 0.835938 " clip-rule="nonzero"/></clipPath><clipPath id="id4"><path d="M 3.554688 25.300781 L 4.597656 25.300781 L 4.5625 40.738281 C 3.875 42.609375 3.375 44.613281 3.078125 46.617188 C 3.054688 46.6875 3.042969 46.761719 3.046875 46.835938 C 2.921875 47.707031 2.839844 48.578125 2.796875 49.4375 C 2.765625 49.539062 2.753906 49.644531 2.78125 49.746094 C 2.667969 52.640625 3.011719 55.363281 3.890625 57.457031 C 4.152344 58.082031 4.671875 58.53125 5.316406 58.699219 C 5.492188 58.746094 5.671875 58.769531 5.847656 58.769531 C 6.3125 58.769531 6.765625 58.613281 7.144531 58.3125 L 7.207031 58.261719 C 7.5625 58.480469 7.988281 58.59375 8.484375 58.59375 C 8.566406 58.59375 8.65625 58.585938 8.742188 58.582031 C 9.042969 63.613281 9.734375 66.878906 10.039062 68.109375 C 9.425781 68.328125 8.875 68.625 8.394531 68.996094 C 7.679688 69.546875 7.40625 70.460938 7.695312 71.328125 C 7.988281 72.207031 8.765625 72.777344 9.679688 72.777344 L 18.410156 72.777344 C 19.085938 72.777344 19.726562 72.480469 20.167969 71.964844 C 20.609375 71.441406 20.808594 70.75 20.710938 70.066406 C 20.117188 66.007812 20.171875 61.914062 20.871094 57.898438 C 20.921875 57.589844 21.195312 57.363281 21.519531 57.363281 C 21.839844 57.363281 22.113281 57.589844 22.167969 57.898438 C 22.867188 61.914062 22.921875 66.007812 22.328125 70.070312 C 22.230469 70.753906 22.425781 71.441406 22.871094 71.964844 C 23.3125 72.480469 23.953125 72.777344 24.628906 72.777344 L 33.359375 72.777344 C 34.269531 72.777344 35.050781 72.207031 35.34375 71.328125 C 35.632812 70.460938 35.359375 69.546875 34.644531 68.996094 C 34.164062 68.625 33.613281 68.328125 33 68.109375 C 33.300781 66.878906 33.996094 63.613281 34.296875 58.582031 C 34.382812 58.585938 34.472656 58.59375 34.554688 58.59375 C 35.050781 58.59375 35.476562 58.480469 35.832031 58.261719 L 35.894531 58.3125 C 36.273438 58.613281 36.726562 58.769531 37.191406 58.769531 C 37.367188 58.769531 37.546875 58.746094 37.722656 58.703125 C 38.367188 58.535156 38.886719 58.082031 39.148438 57.457031 C 40.023438 55.367188 40.371094 52.640625 40.257812 49.746094 C 40.28125 49.644531 40.273438 49.539062 40.238281 49.433594 C 40.195312 48.578125 40.113281 47.707031 39.992188 46.835938 C 39.996094 46.761719 39.984375 46.6875 39.957031 46.617188 C 39.660156 44.613281 39.160156 42.609375 38.476562 40.734375 L 38.4375 25.300781 L 39.484375 25.300781 C 40.917969 25.300781 42.082031 24.117188 42.082031 22.667969 L 42.082031 18.292969 C 42.082031 16.839844 40.917969 15.660156 39.484375 15.660156 L 39.101562 15.660156 C 37.574219 7.238281 30.273438 0.835938 21.519531 0.835938 C 12.765625 0.835938 5.464844 7.238281 3.933594 15.660156 L 3.554688 15.660156 C 2.121094 15.660156 0.957031 16.839844 0.957031 18.292969 L 0.957031 22.667969 C 0.957031 24.121094 2.121094 25.300781 3.554688 25.300781 Z M 5.691406 21.398438 C 5.691406 12.453125 12.878906 5.175781 21.714844 5.175781 C 30.550781 5.175781 37.738281 12.453125 37.738281 21.398438 C 37.738281 22.226562 37.671875 23.0625 37.550781 23.875 C 36.894531 26.054688 35.820312 28.050781 34.414062 29.761719 C 35.851562 27.414062 36.683594 24.652344 36.683594 21.695312 C 36.683594 13.230469 29.878906 6.34375 21.519531 6.34375 C 13.15625 6.34375 6.355469 13.230469 6.355469 21.695312 C 6.355469 24.652344 7.1875 27.414062 8.621094 29.761719 C 7.777344 28.730469 7.050781 27.59375 6.460938 26.378906 C 5.953125 24.777344 5.691406 23.101562 5.691406 21.398438 Z M 37.390625 41.039062 C 37.390625 41.039062 37.390625 41.039062 37.394531 41.039062 C 38.042969 42.785156 38.523438 44.648438 38.820312 46.515625 C 37.296875 47.429688 35.738281 47.71875 34.082031 47.394531 C 33.707031 44.652344 33.066406 42.320312 32.371094 40.429688 C 33.941406 40.367188 35.304688 39.445312 36.058594 38.085938 C 36.5625 39.007812 37.003906 40 37.390625 41.039062 Z M 39.121094 49.273438 C 37.757812 50.007812 36.15625 50.28125 34.347656 50.089844 C 34.316406 49.574219 34.273438 49.066406 34.222656 48.578125 C 34.605469 48.632812 34.980469 48.671875 35.355469 48.671875 C 36.601562 48.671875 37.816406 48.355469 38.988281 47.730469 C 39.046875 48.25 39.089844 48.765625 39.121094 49.273438 Z M 4.050781 47.730469 C 5.21875 48.351562 6.433594 48.671875 7.683594 48.671875 C 8.054688 48.671875 8.433594 48.632812 8.8125 48.578125 C 8.761719 49.066406 8.722656 49.574219 8.691406 50.085938 C 6.882812 50.28125 5.28125 50.007812 3.917969 49.273438 C 3.945312 48.765625 3.992188 48.25 4.050781 47.730469 Z M 5.644531 41.039062 C 6.035156 40 6.476562 39.007812 6.980469 38.085938 C 7.734375 39.445312 9.097656 40.367188 10.664062 40.429688 C 9.972656 42.320312 9.332031 44.652344 8.957031 47.394531 C 7.296875 47.71875 5.742188 47.429688 4.21875 46.515625 C 4.511719 44.648438 4.992188 42.785156 5.644531 41.039062 Z M 33.109375 48.773438 L 29.726562 48.773438 C 28.863281 48.773438 28.160156 49.484375 28.160156 50.363281 L 28.160156 51.011719 L 25.988281 51.011719 C 28.351562 47.421875 29.492188 42.753906 29.460938 36.835938 C 30.65625 38.9375 32.515625 43.007812 33.109375 48.773438 Z M 18.425781 51.011719 C 15.902344 47.546875 14.675781 42.902344 14.703125 36.878906 C 15.753906 38.136719 17.765625 39.554688 21.519531 39.554688 C 25.273438 39.554688 27.285156 38.136719 28.335938 36.878906 C 28.359375 42.902344 27.136719 47.546875 24.613281 51.011719 Z M 12.871094 48.132812 C 11.675781 48.132812 10.703125 49.121094 10.703125 50.332031 L 10.703125 51.011719 L 9.773438 51.011719 C 10.050781 44.058594 12.230469 39.199219 13.574219 36.835938 C 13.542969 42.753906 14.6875 47.417969 17.046875 51.011719 L 15.042969 51.011719 L 15.042969 50.332031 C 15.042969 49.121094 14.070312 48.132812 12.871094 48.132812 Z M 22.296875 37.03125 C 24.15625 36.949219 25.941406 36.582031 27.613281 35.96875 C 26.78125 37.046875 25.039062 38.414062 21.519531 38.414062 C 17.996094 38.414062 16.253906 37.046875 15.425781 35.964844 C 17.097656 36.582031 18.882812 36.949219 20.738281 37.03125 C 21 37.042969 21.257812 37.050781 21.519531 37.050781 C 21.78125 37.050781 22.039062 37.042969 22.296875 37.03125 Z M 21.519531 35.90625 C 13.777344 35.90625 7.480469 29.53125 7.480469 21.695312 C 7.480469 13.859375 13.777344 7.484375 21.519531 7.484375 C 29.257812 7.484375 35.554688 13.859375 35.554688 21.695312 C 35.554688 29.53125 29.257812 35.90625 21.519531 35.90625 Z M 9.492188 32.335938 C 10.648438 33.398438 11.945312 34.308594 13.34375 35.039062 C 12.851562 35.769531 11.980469 37.191406 11.117188 39.269531 C 11.019531 39.277344 10.925781 39.296875 10.828125 39.296875 C 8.984375 39.296875 7.480469 37.664062 7.480469 35.660156 C 7.480469 34.199219 8.28125 32.910156 9.492188 32.335938 Z M 9.742188 52.152344 L 10.703125 52.152344 L 10.703125 53.398438 L 9.726562 53.398438 C 9.730469 52.992188 9.734375 52.574219 9.742188 52.152344 Z M 11.832031 50.332031 C 11.832031 49.75 12.296875 49.277344 12.871094 49.277344 C 13.449219 49.277344 13.914062 49.75 13.914062 50.332031 L 13.914062 55.257812 C 13.914062 55.839844 13.449219 56.3125 12.871094 56.3125 C 12.296875 56.3125 11.832031 55.839844 11.832031 55.257812 Z M 15.042969 52.152344 L 28.160156 52.152344 L 28.160156 53.398438 L 15.042969 53.398438 Z M 29.285156 50.359375 C 29.285156 50.113281 29.484375 49.914062 29.726562 49.914062 L 30.671875 49.914062 L 30.671875 55.253906 L 29.726562 55.253906 C 29.484375 55.253906 29.285156 55.050781 29.285156 54.804688 Z M 31.800781 49.914062 L 33.203125 49.914062 C 33.242188 50.464844 33.269531 51.023438 33.285156 51.597656 C 33.316406 52.882812 33.316406 54.101562 33.292969 55.253906 L 31.800781 55.253906 Z M 32.210938 39.296875 C 32.113281 39.296875 32.015625 39.277344 31.921875 39.269531 C 31.058594 37.191406 30.1875 35.769531 29.691406 35.039062 C 31.09375 34.308594 32.390625 33.398438 33.542969 32.332031 C 34.753906 32.90625 35.554688 34.199219 35.554688 35.660156 C 35.554688 37.664062 34.054688 39.296875 32.210938 39.296875 Z M 5.722656 27.417969 C 6.507812 28.914062 7.496094 30.285156 8.648438 31.492188 C 7.25 32.328125 6.355469 33.902344 6.355469 35.660156 C 6.355469 36.023438 6.394531 36.375 6.46875 36.714844 C 6.195312 37.160156 5.941406 37.628906 5.695312 38.109375 Z M 7.671875 57.207031 C 7.300781 56.882812 7.136719 56.15625 7.199219 55.113281 C 7.21875 54.796875 6.980469 54.527344 6.671875 54.507812 C 6.359375 54.484375 6.09375 54.726562 6.074219 55.042969 C 6.011719 56.054688 6.136719 56.835938 6.4375 57.417969 C 6.195312 57.605469 5.890625 57.671875 5.597656 57.59375 C 5.292969 57.515625 5.050781 57.304688 4.929688 57.011719 C 4.183594 55.234375 3.851562 52.964844 3.871094 50.527344 C 4.992188 51.039062 6.230469 51.296875 7.582031 51.296875 C 7.925781 51.296875 8.277344 51.277344 8.636719 51.242188 C 8.632812 51.351562 8.625 51.457031 8.621094 51.570312 C 8.601562 52.394531 8.597656 53.183594 8.601562 53.957031 C 8.601562 53.960938 8.597656 53.964844 8.597656 53.96875 C 8.597656 53.976562 8.601562 53.980469 8.601562 53.984375 C 8.605469 55.207031 8.632812 56.367188 8.683594 57.445312 C 8.238281 57.480469 7.898438 57.402344 7.671875 57.207031 Z M 8.761719 70.960938 C 8.710938 70.808594 8.585938 70.285156 9.078125 69.90625 C 9.585938 69.511719 10.171875 69.230469 10.867188 69.042969 C 11.015625 69.003906 11.140625 68.90625 11.214844 68.773438 C 11.289062 68.636719 11.308594 68.476562 11.265625 68.332031 C 11.257812 68.304688 10.914062 67.097656 10.550781 64.855469 C 12.085938 65.03125 13.5625 65.125 14.992188 65.125 C 16.429688 65.125 17.820312 65.027344 19.183594 64.851562 C 19.191406 65.789062 19.234375 66.722656 19.308594 67.660156 C 17.316406 67.90625 16.042969 69.367188 15.863281 71.636719 L 9.679688 71.636719 C 9.167969 71.636719 8.871094 71.289062 8.761719 70.960938 Z M 19.3125 71.21875 C 19.082031 71.488281 18.761719 71.636719 18.40625 71.636719 L 16.996094 71.636719 C 17.105469 70.46875 17.613281 69.019531 19.410156 68.792969 C 19.464844 69.273438 19.523438 69.753906 19.59375 70.234375 C 19.644531 70.589844 19.542969 70.949219 19.3125 71.21875 Z M 21.519531 56.21875 C 20.648438 56.21875 19.90625 56.84375 19.757812 57.703125 C 19.414062 59.6875 19.226562 61.691406 19.1875 63.699219 C 16.429688 64.074219 13.539062 64.066406 10.378906 63.6875 C 10.058594 61.40625 9.773438 58.328125 9.730469 54.542969 L 10.703125 54.542969 L 10.703125 55.257812 C 10.703125 56.46875 11.675781 57.453125 12.875 57.453125 C 14.070312 57.453125 15.042969 56.46875 15.042969 55.257812 L 15.042969 54.542969 L 28.160156 54.542969 L 28.160156 54.804688 C 28.160156 55.683594 28.863281 56.394531 29.726562 56.394531 L 33.265625 56.394531 C 33.167969 59.339844 32.921875 61.789062 32.660156 63.6875 C 29.5 64.066406 26.609375 64.074219 23.851562 63.699219 C 23.8125 61.691406 23.625 59.6875 23.28125 57.703125 C 23.128906 56.84375 22.390625 56.21875 21.519531 56.21875 Z M 23.726562 71.21875 C 23.496094 70.949219 23.394531 70.589844 23.445312 70.234375 C 23.515625 69.753906 23.574219 69.273438 23.625 68.792969 C 25.425781 69.019531 25.933594 70.46875 26.042969 71.636719 L 24.628906 71.636719 C 24.277344 71.636719 23.953125 71.488281 23.726562 71.21875 Z M 33.960938 69.90625 C 34.453125 70.285156 34.324219 70.808594 34.273438 70.960938 C 34.167969 71.289062 33.867188 71.636719 33.359375 71.636719 L 27.171875 71.636719 C 26.992188 69.367188 25.71875 67.902344 23.726562 67.660156 C 23.804688 66.722656 23.84375 65.789062 23.855469 64.851562 C 25.214844 65.027344 26.609375 65.125 28.046875 65.125 C 29.472656 65.125 30.953125 65.03125 32.484375 64.855469 C 32.125 67.097656 31.78125 68.304688 31.773438 68.332031 C 31.730469 68.480469 31.746094 68.636719 31.820312 68.773438 C 31.898438 68.90625 32.023438 69.003906 32.167969 69.042969 C 32.867188 69.234375 33.453125 69.515625 33.960938 69.90625 Z M 38.109375 57.011719 C 37.984375 57.304688 37.742188 57.515625 37.441406 57.59375 C 37.144531 57.671875 36.839844 57.605469 36.597656 57.417969 C 36.902344 56.835938 37.023438 56.054688 36.964844 55.042969 C 36.945312 54.730469 36.679688 54.484375 36.367188 54.507812 C 36.054688 54.527344 35.820312 54.796875 35.835938 55.113281 C 35.898438 56.15625 35.734375 56.882812 35.363281 57.207031 C 35.136719 57.402344 34.800781 57.480469 34.355469 57.445312 C 34.433594 55.679688 34.464844 53.722656 34.414062 51.570312 C 34.410156 51.460938 34.40625 51.351562 34.402344 51.242188 C 34.757812 51.277344 35.109375 51.300781 35.453125 51.300781 C 36.804688 51.300781 38.042969 51.039062 39.164062 50.527344 C 39.1875 52.964844 38.855469 55.234375 38.109375 57.011719 Z M 36.570312 36.714844 C 36.640625 36.375 36.683594 36.023438 36.683594 35.660156 C 36.683594 33.902344 35.785156 32.328125 34.390625 31.492188 C 35.542969 30.285156 36.53125 28.914062 37.316406 27.417969 L 37.339844 38.109375 C 37.097656 37.628906 36.839844 37.160156 36.570312 36.714844 Z M 39.484375 16.804688 C 40.292969 16.804688 40.953125 17.472656 40.953125 18.292969 L 40.953125 22.667969 C 40.953125 23.488281 40.292969 24.15625 39.484375 24.15625 L 38.644531 24.15625 C 38.644531 24.148438 38.648438 24.140625 38.648438 24.132812 C 38.652344 24.125 38.65625 24.121094 38.65625 24.113281 C 38.660156 24.109375 38.660156 24.105469 38.660156 24.101562 C 39.140625 22.464844 39.402344 20.734375 39.402344 18.941406 C 39.402344 18.21875 39.355469 17.503906 39.273438 16.800781 L 39.484375 16.800781 Z M 21.519531 1.980469 C 29.773438 1.980469 36.648438 8.058594 38.019531 16.023438 C 35.78125 9.070312 29.320312 4.03125 21.714844 4.03125 C 13.160156 4.03125 6.046875 10.40625 4.769531 18.710938 C 4.894531 9.464844 12.355469 1.980469 21.519531 1.980469 Z M 2.082031 18.292969 C 2.082031 17.472656 2.742188 16.804688 3.554688 16.804688 L 3.765625 16.804688 C 3.679688 17.503906 3.636719 18.21875 3.636719 18.945312 C 3.636719 20.757812 3.902344 22.507812 4.394531 24.160156 L 3.554688 24.160156 C 2.742188 24.15625 2.082031 23.488281 2.082031 22.667969 Z M 21.519531 40.441406 C 20.011719 40.441406 18.785156 41.683594 18.785156 43.210938 C 18.785156 44.738281 20.011719 45.980469 21.519531 45.980469 C 23.027344 45.980469 24.253906 44.734375 24.253906 43.210938 C 24.253906 41.683594 23.027344 40.441406 21.519531 40.441406 Z M 21.519531 44.835938 C 20.632812 44.835938 19.910156 44.105469 19.910156 43.210938 C 19.910156 42.3125 20.632812 41.582031 21.519531 41.582031 C 22.40625 41.582031 23.125 42.3125 23.125 43.210938 C 23.125 44.105469 22.40625 44.835938 21.519531 44.835938 Z M 16.929688 9.492188 C 15.859375 9.492188 14.988281 10.375 14.988281 11.457031 C 14.988281 12.542969 15.859375 13.421875 16.929688 13.421875 C 18 13.421875 18.871094 12.542969 18.871094 11.457031 C 18.871094 10.375 18 9.492188 16.929688 9.492188 Z M 16.929688 12.28125 C 16.480469 12.28125 16.117188 11.914062 16.117188 11.457031 C 16.117188 11.003906 16.480469 10.636719 16.929688 10.636719 C 17.378906 10.636719 17.742188 11.003906 17.742188 11.457031 C 17.742188 11.914062 17.378906 12.28125 16.929688 12.28125 Z M 13.003906 12.929688 C 12.839844 12.988281 12.6875 13.070312 12.550781 13.171875 C 10.710938 14.554688 9.566406 16.535156 9.140625 19.058594 C 9.0625 19.507812 9.164062 19.960938 9.425781 20.335938 C 9.6875 20.710938 10.078125 20.957031 10.519531 21.035156 C 10.617188 21.050781 10.710938 21.058594 10.804688 21.058594 C 10.992188 21.058594 11.179688 21.027344 11.359375 20.964844 C 11.941406 20.761719 12.371094 20.25 12.472656 19.632812 C 12.75 17.988281 13.4375 16.773438 14.566406 15.921875 C 15.316406 15.359375 15.472656 14.285156 14.917969 13.527344 C 14.476562 12.921875 13.707031 12.683594 13.003906 12.929688 Z M 13.894531 15.003906 C 12.519531 16.039062 11.691406 17.492188 11.363281 19.441406 C 11.328125 19.648438 11.183594 19.816406 10.992188 19.886719 C 10.902344 19.917969 10.804688 19.925781 10.710938 19.910156 C 10.5625 19.882812 10.433594 19.800781 10.347656 19.675781 C 10.261719 19.550781 10.226562 19.398438 10.25 19.25 C 10.625 17.027344 11.625 15.289062 13.222656 14.089844 C 13.269531 14.054688 13.320312 14.027344 13.375 14.007812 C 13.4375 13.984375 13.5 13.976562 13.5625 13.976562 C 13.734375 13.976562 13.902344 14.058594 14.011719 14.207031 C 14.199219 14.460938 14.144531 14.820312 13.894531 15.003906 Z M 13.894531 15.003906 " clip-rule="nonzero"/></clipPath><linearGradient x1="36.463001" gradientTransform="matrix(0.563948, 0, 0, 0.570959, 0.955497, 0.836931)" y1="0" x2="36.463001" gradientUnits="userSpaceOnUse" y2="125.999999" id="id5"><stop stop-opacity="1" stop-color="rgb(61.999512%, 18.798828%, 100%)" offset="0"/><stop stop-opacity="1" stop-color="rgb(62.147522%, 19.116211%, 100%)" offset="0.00390625"/><stop stop-opacity="1" stop-color="rgb(62.295532%, 19.433594%, 100%)" offset="0.0078125"/><stop stop-opacity="1" stop-color="rgb(62.443542%, 19.750977%, 100%)" offset="0.0117188"/><stop stop-opacity="1" stop-color="rgb(62.593079%, 20.068359%, 100%)" offset="0.015625"/><stop stop-opacity="1" stop-color="rgb(62.741089%, 20.384216%, 100%)" offset="0.0195312"/><stop stop-opacity="1" stop-color="rgb(62.889099%, 20.701599%, 100%)" offset="0.0234375"/><stop stop-opacity="1" stop-color="rgb(63.037109%, 21.018982%, 100%)" offset="0.0273438"/><stop stop-opacity="1" stop-color="rgb(63.186646%, 21.336365%, 100%)" offset="0.03125"/><stop stop-opacity="1" stop-color="rgb(63.334656%, 21.653748%, 100%)" offset="0.0351562"/><stop stop-opacity="1" stop-color="rgb(63.484192%, 21.97113%, 100%)" offset="0.0390625"/><stop stop-opacity="1" stop-color="rgb(63.632202%, 22.288513%, 100%)" offset="0.0429688"/><stop stop-opacity="1" stop-color="rgb(63.780212%, 22.605896%, 100%)" offset="0.046875"/><stop stop-opacity="1" stop-color="rgb(63.928223%, 22.921753%, 100%)" offset="0.0507812"/><stop stop-opacity="1" stop-color="rgb(64.077759%, 23.239136%, 100%)" offset="0.0546875"/><stop stop-opacity="1" stop-color="rgb(64.225769%, 23.556519%, 100%)" offset="0.0585938"/><stop stop-opacity="1" stop-color="rgb(64.373779%, 23.873901%, 100%)" offset="0.0625"/><stop stop-opacity="1" stop-color="rgb(64.52179%, 24.191284%, 100%)" offset="0.0664062"/><stop stop-opacity="1" stop-color="rgb(64.671326%, 24.508667%, 100%)" offset="0.0703125"/><stop stop-opacity="1" stop-color="rgb(64.819336%, 24.82605%, 100%)" offset="0.0742188"/><stop stop-opacity="1" stop-color="rgb(64.967346%, 25.143433%, 100%)" offset="0.078125"/><stop stop-opacity="1" stop-color="rgb(65.115356%, 25.45929%, 100%)" offset="0.0820312"/><stop stop-opacity="1" stop-color="rgb(65.264893%, 25.776672%, 100%)" offset="0.0859375"/><stop stop-opacity="1" stop-color="rgb(65.412903%, 26.094055%, 100%)" offset="0.0898438"/><stop stop-opacity="1" stop-color="rgb(65.562439%, 26.411438%, 100%)" offset="0.09375"/><stop stop-opacity="1" stop-color="rgb(65.710449%, 26.728821%, 100%)" offset="0.0976562"/><stop stop-opacity="1" stop-color="rgb(65.858459%, 27.046204%, 100%)" offset="0.101562"/><stop stop-opacity="1" stop-color="rgb(66.00647%, 27.363586%, 100%)" offset="0.105469"/><stop stop-opacity="1" stop-color="rgb(66.156006%, 27.680969%, 100%)" offset="0.109375"/><stop stop-opacity="1" stop-color="rgb(66.304016%, 27.996826%, 100%)" offset="0.113281"/><stop stop-opacity="1" stop-color="rgb(66.452026%, 28.314209%, 100%)" offset="0.117188"/><stop stop-opacity="1" stop-color="rgb(66.600037%, 28.631592%, 100%)" offset="0.121094"/><stop stop-opacity="1" stop-color="rgb(66.749573%, 28.948975%, 100%)" offset="0.125"/><stop stop-opacity="1" stop-color="rgb(66.897583%, 29.266357%, 100%)" offset="0.128906"/><stop stop-opacity="1" stop-color="rgb(67.045593%, 29.58374%, 100%)" offset="0.132812"/><stop stop-opacity="1" stop-color="rgb(67.193604%, 29.901123%, 100%)" offset="0.136719"/><stop stop-opacity="1" stop-color="rgb(67.34314%, 30.218506%, 100%)" offset="0.140625"/><stop stop-opacity="1" stop-color="rgb(67.49115%, 30.534363%, 100%)" offset="0.144531"/><stop stop-opacity="1" stop-color="rgb(67.63916%, 30.851746%, 100%)" offset="0.148438"/><stop stop-opacity="1" stop-color="rgb(67.78717%, 31.169128%, 100%)" offset="0.152344"/><stop stop-opacity="1" stop-color="rgb(67.936707%, 31.486511%, 100%)" offset="0.15625"/><stop stop-opacity="1" stop-color="rgb(68.084717%, 31.803894%, 100%)" offset="0.160156"/><stop stop-opacity="1" stop-color="rgb(68.234253%, 32.121277%, 100%)" offset="0.164062"/><stop stop-opacity="1" stop-color="rgb(68.382263%, 32.43866%, 100%)" offset="0.167969"/><stop stop-opacity="1" stop-color="rgb(68.530273%, 32.756042%, 100%)" offset="0.171875"/><stop stop-opacity="1" stop-color="rgb(68.678284%, 33.071899%, 100%)" offset="0.175781"/><stop stop-opacity="1" stop-color="rgb(68.82782%, 33.389282%, 100%)" offset="0.179688"/><stop stop-opacity="1" stop-color="rgb(68.97583%, 33.706665%, 100%)" offset="0.183594"/><stop stop-opacity="1" stop-color="rgb(69.12384%, 34.024048%, 100%)" offset="0.1875"/><stop stop-opacity="1" stop-color="rgb(69.271851%, 34.341431%, 100%)" offset="0.191406"/><stop stop-opacity="1" stop-color="rgb(69.421387%, 34.658813%, 100%)" offset="0.195312"/><stop stop-opacity="1" stop-color="rgb(69.569397%, 34.976196%, 100%)" offset="0.199219"/><stop stop-opacity="1" stop-color="rgb(69.717407%, 35.293579%, 100%)" offset="0.203125"/><stop stop-opacity="1" stop-color="rgb(69.865417%, 35.609436%, 100%)" offset="0.207031"/><stop stop-opacity="1" stop-color="rgb(70.014954%, 35.926819%, 100%)" offset="0.210938"/><stop stop-opacity="1" stop-color="rgb(70.162964%, 36.244202%, 100%)" offset="0.214844"/><stop stop-opacity="1" stop-color="rgb(70.310974%, 36.561584%, 100%)" offset="0.21875"/><stop stop-opacity="1" stop-color="rgb(70.458984%, 36.878967%, 100%)" offset="0.222656"/><stop stop-opacity="1" stop-color="rgb(70.608521%, 37.19635%, 100%)" offset="0.226562"/><stop stop-opacity="1" stop-color="rgb(70.756531%, 37.513733%, 100%)" offset="0.230469"/><stop stop-opacity="1" stop-color="rgb(70.906067%, 37.831116%, 100%)" offset="0.234375"/><stop stop-opacity="1" stop-color="rgb(71.054077%, 38.146973%, 100%)" offset="0.238281"/><stop stop-opacity="1" stop-color="rgb(71.202087%, 38.464355%, 100%)" offset="0.242187"/><stop stop-opacity="1" stop-color="rgb(71.350098%, 38.781738%, 100%)" offset="0.246094"/><stop stop-opacity="1" stop-color="rgb(71.499634%, 39.099121%, 100%)" offset="0.25"/><stop stop-opacity="1" stop-color="rgb(71.647644%, 39.416504%, 100%)" offset="0.253906"/><stop stop-opacity="1" stop-color="rgb(71.795654%, 39.733887%, 100%)" offset="0.257812"/><stop stop-opacity="1" stop-color="rgb(71.943665%, 40.05127%, 100%)" offset="0.261719"/><stop stop-opacity="1" stop-color="rgb(72.093201%, 40.368652%, 100%)" offset="0.265625"/><stop stop-opacity="1" stop-color="rgb(72.241211%, 40.684509%, 100%)" offset="0.269531"/><stop stop-opacity="1" stop-color="rgb(72.389221%, 41.001892%, 100%)" offset="0.273438"/><stop stop-opacity="1" stop-color="rgb(72.537231%, 41.319275%, 100%)" offset="0.277344"/><stop stop-opacity="1" stop-color="rgb(72.686768%, 41.636658%, 100%)" offset="0.28125"/><stop stop-opacity="1" stop-color="rgb(72.834778%, 41.954041%, 100%)" offset="0.285156"/><stop stop-opacity="1" stop-color="rgb(72.984314%, 42.271423%, 100%)" offset="0.289062"/><stop stop-opacity="1" stop-color="rgb(73.132324%, 42.588806%, 100%)" offset="0.292969"/><stop stop-opacity="1" stop-color="rgb(73.280334%, 42.906189%, 100%)" offset="0.296875"/><stop stop-opacity="1" stop-color="rgb(73.428345%, 43.222046%, 100%)" offset="0.300781"/><stop stop-opacity="1" stop-color="rgb(73.577881%, 43.539429%, 100%)" offset="0.304688"/><stop stop-opacity="1" stop-color="rgb(73.725891%, 43.856812%, 100%)" offset="0.308594"/><stop stop-opacity="1" stop-color="rgb(73.873901%, 44.174194%, 100%)" offset="0.3125"/><stop stop-opacity="1" stop-color="rgb(74.021912%, 44.491577%, 100%)" offset="0.316406"/><stop stop-opacity="1" stop-color="rgb(74.171448%, 44.80896%, 100%)" offset="0.320312"/><stop stop-opacity="1" stop-color="rgb(74.319458%, 45.126343%, 100%)" offset="0.324219"/><stop stop-opacity="1" stop-color="rgb(74.467468%, 45.443726%, 100%)" offset="0.328125"/><stop stop-opacity="1" stop-color="rgb(74.615479%, 45.759583%, 100%)" offset="0.332031"/><stop stop-opacity="1" stop-color="rgb(74.765015%, 46.076965%, 100%)" offset="0.335937"/><stop stop-opacity="1" stop-color="rgb(74.913025%, 46.394348%, 100%)" offset="0.339844"/><stop stop-opacity="1" stop-color="rgb(75.061035%, 46.711731%, 100%)" offset="0.34375"/><stop stop-opacity="1" stop-color="rgb(75.209045%, 47.029114%, 100%)" offset="0.347656"/><stop stop-opacity="1" stop-color="rgb(75.358582%, 47.346497%, 100%)" offset="0.351563"/><stop stop-opacity="1" stop-color="rgb(75.506592%, 47.662354%, 100%)" offset="0.355469"/><stop stop-opacity="1" stop-color="rgb(75.656128%, 47.979736%, 100%)" offset="0.359375"/><stop stop-opacity="1" stop-color="rgb(75.804138%, 48.297119%, 100%)" offset="0.363281"/><stop stop-opacity="1" stop-color="rgb(75.952148%, 48.614502%, 100%)" offset="0.367188"/><stop stop-opacity="1" stop-color="rgb(76.100159%, 48.931885%, 100%)" offset="0.371094"/><stop stop-opacity="1" stop-color="rgb(76.249695%, 49.249268%, 100%)" offset="0.375"/><stop stop-opacity="1" stop-color="rgb(76.397705%, 49.56665%, 100%)" offset="0.378906"/><stop stop-opacity="1" stop-color="rgb(76.545715%, 49.884033%, 100%)" offset="0.382812"/><stop stop-opacity="1" stop-color="rgb(76.693726%, 50.19989%, 100%)" offset="0.386719"/><stop stop-opacity="1" stop-color="rgb(76.843262%, 50.517273%, 100%)" offset="0.390625"/><stop stop-opacity="1" stop-color="rgb(76.991272%, 50.834656%, 100%)" offset="0.394531"/><stop stop-opacity="1" stop-color="rgb(77.139282%, 51.152039%, 100%)" offset="0.398438"/><stop stop-opacity="1" stop-color="rgb(77.287292%, 51.469421%, 100%)" offset="0.402344"/><stop stop-opacity="1" stop-color="rgb(77.436829%, 51.786804%, 100%)" offset="0.40625"/><stop stop-opacity="1" stop-color="rgb(77.584839%, 52.104187%, 100%)" offset="0.410156"/><stop stop-opacity="1" stop-color="rgb(77.732849%, 52.42157%, 100%)" offset="0.414063"/><stop stop-opacity="1" stop-color="rgb(77.880859%, 52.737427%, 100%)" offset="0.417969"/><stop stop-opacity="1" stop-color="rgb(78.030396%, 53.05481%, 100%)" offset="0.421875"/><stop stop-opacity="1" stop-color="rgb(78.178406%, 53.372192%, 100%)" offset="0.425781"/><stop stop-opacity="1" stop-color="rgb(78.327942%, 53.689575%, 100%)" offset="0.429688"/><stop stop-opacity="1" stop-color="rgb(78.475952%, 54.006958%, 100%)" offset="0.433594"/><stop stop-opacity="1" stop-color="rgb(78.623962%, 54.324341%, 100%)" offset="0.4375"/><stop stop-opacity="1" stop-color="rgb(78.771973%, 54.641724%, 100%)" offset="0.441406"/><stop stop-opacity="1" stop-color="rgb(78.921509%, 54.959106%, 100%)" offset="0.445312"/><stop stop-opacity="1" stop-color="rgb(79.069519%, 55.274963%, 100%)" offset="0.449219"/><stop stop-opacity="1" stop-color="rgb(79.217529%, 55.592346%, 100%)" offset="0.453125"/><stop stop-opacity="1" stop-color="rgb(79.36554%, 55.909729%, 100%)" offset="0.457031"/><stop stop-opacity="1" stop-color="rgb(79.515076%, 56.227112%, 100%)" offset="0.460938"/><stop stop-opacity="1" stop-color="rgb(79.663086%, 56.544495%, 100%)" offset="0.464844"/><stop stop-opacity="1" stop-color="rgb(79.811096%, 56.861877%, 100%)" offset="0.46875"/><stop stop-opacity="1" stop-color="rgb(79.959106%, 57.17926%, 100%)" offset="0.472656"/><stop stop-opacity="1" stop-color="rgb(80.108643%, 57.496643%, 100%)" offset="0.476562"/><stop stop-opacity="1" stop-color="rgb(80.256653%, 57.8125%, 100%)" offset="0.480469"/><stop stop-opacity="1" stop-color="rgb(80.406189%, 58.129883%, 100%)" offset="0.484375"/><stop stop-opacity="1" stop-color="rgb(80.554199%, 58.447266%, 100%)" offset="0.488281"/><stop stop-opacity="1" stop-color="rgb(80.702209%, 58.764648%, 100%)" offset="0.492187"/><stop stop-opacity="1" stop-color="rgb(80.85022%, 59.082031%, 100%)" offset="0.496094"/><stop stop-opacity="1" stop-color="rgb(80.999756%, 59.399414%, 100%)" offset="0.5"/><stop stop-opacity="1" stop-color="rgb(81.147766%, 59.716797%, 100%)" offset="0.503906"/><stop stop-opacity="1" stop-color="rgb(81.295776%, 60.03418%, 100%)" offset="0.507812"/><stop stop-opacity="1" stop-color="rgb(81.443787%, 60.350037%, 100%)" offset="0.511719"/><stop stop-opacity="1" stop-color="rgb(81.593323%, 60.667419%, 100%)" offset="0.515625"/><stop stop-opacity="1" stop-color="rgb(81.741333%, 60.984802%, 100%)" offset="0.519531"/><stop stop-opacity="1" stop-color="rgb(81.889343%, 61.302185%, 100%)" offset="0.523438"/><stop stop-opacity="1" stop-color="rgb(82.037354%, 61.619568%, 100%)" offset="0.527344"/><stop stop-opacity="1" stop-color="rgb(82.18689%, 61.936951%, 100%)" offset="0.53125"/><stop stop-opacity="1" stop-color="rgb(82.3349%, 62.254333%, 100%)" offset="0.535156"/><stop stop-opacity="1" stop-color="rgb(82.48291%, 62.571716%, 100%)" offset="0.539062"/><stop stop-opacity="1" stop-color="rgb(82.63092%, 62.887573%, 100%)" offset="0.542969"/><stop stop-opacity="1" stop-color="rgb(82.780457%, 63.204956%, 100%)" offset="0.546875"/><stop stop-opacity="1" stop-color="rgb(82.928467%, 63.522339%, 100%)" offset="0.550781"/><stop stop-opacity="1" stop-color="rgb(83.078003%, 63.839722%, 100%)" offset="0.554688"/><stop stop-opacity="1" stop-color="rgb(83.226013%, 64.157104%, 100%)" offset="0.558594"/><stop stop-opacity="1" stop-color="rgb(83.374023%, 64.474487%, 100%)" offset="0.5625"/><stop stop-opacity="1" stop-color="rgb(83.522034%, 64.79187%, 100%)" offset="0.566406"/><stop stop-opacity="1" stop-color="rgb(83.67157%, 65.109253%, 100%)" offset="0.570313"/><stop stop-opacity="1" stop-color="rgb(83.81958%, 65.42511%, 100%)" offset="0.574219"/><stop stop-opacity="1" stop-color="rgb(83.96759%, 65.742493%, 100%)" offset="0.578125"/><stop stop-opacity="1" stop-color="rgb(84.115601%, 66.059875%, 100%)" offset="0.582031"/><stop stop-opacity="1" stop-color="rgb(84.265137%, 66.377258%, 100%)" offset="0.585938"/><stop stop-opacity="1" stop-color="rgb(84.413147%, 66.694641%, 100%)" offset="0.589844"/><stop stop-opacity="1" stop-color="rgb(84.561157%, 67.012024%, 100%)" offset="0.59375"/><stop stop-opacity="1" stop-color="rgb(84.709167%, 67.329407%, 100%)" offset="0.597656"/><stop stop-opacity="1" stop-color="rgb(84.858704%, 67.64679%, 100%)" offset="0.601562"/><stop stop-opacity="1" stop-color="rgb(85.006714%, 67.962646%, 100%)" offset="0.605469"/><stop stop-opacity="1" stop-color="rgb(85.154724%, 68.280029%, 100%)" offset="0.609375"/><stop stop-opacity="1" stop-color="rgb(85.302734%, 68.597412%, 100%)" offset="0.613281"/><stop stop-opacity="1" stop-color="rgb(85.452271%, 68.914795%, 100%)" offset="0.617188"/><stop stop-opacity="1" stop-color="rgb(85.600281%, 69.232178%, 100%)" offset="0.621094"/><stop stop-opacity="1" stop-color="rgb(85.749817%, 69.549561%, 100%)" offset="0.625"/><stop stop-opacity="1" stop-color="rgb(85.897827%, 69.866943%, 100%)" offset="0.628906"/><stop stop-opacity="1" stop-color="rgb(86.045837%, 70.184326%, 100%)" offset="0.632812"/><stop stop-opacity="1" stop-color="rgb(86.193848%, 70.500183%, 100%)" offset="0.636719"/><stop stop-opacity="1" stop-color="rgb(86.343384%, 70.817566%, 100%)" offset="0.640625"/><stop stop-opacity="1" stop-color="rgb(86.491394%, 71.134949%, 100%)" offset="0.644531"/><stop stop-opacity="1" stop-color="rgb(86.639404%, 71.452332%, 100%)" offset="0.648438"/><stop stop-opacity="1" stop-color="rgb(86.787415%, 71.769714%, 100%)" offset="0.652344"/><stop stop-opacity="1" stop-color="rgb(86.936951%, 72.087097%, 100%)" offset="0.65625"/><stop stop-opacity="1" stop-color="rgb(87.084961%, 72.40448%, 100%)" offset="0.660156"/><stop stop-opacity="1" stop-color="rgb(87.232971%, 72.721863%, 100%)" offset="0.664062"/><stop stop-opacity="1" stop-color="rgb(87.380981%, 73.03772%, 100%)" offset="0.667969"/><stop stop-opacity="1" stop-color="rgb(87.530518%, 73.355103%, 100%)" offset="0.671875"/><stop stop-opacity="1" stop-color="rgb(87.678528%, 73.672485%, 100%)" offset="0.675781"/><stop stop-opacity="1" stop-color="rgb(87.828064%, 73.989868%, 100%)" offset="0.679687"/><stop stop-opacity="1" stop-color="rgb(87.976074%, 74.307251%, 100%)" offset="0.683594"/><stop stop-opacity="1" stop-color="rgb(88.124084%, 74.624634%, 100%)" offset="0.6875"/><stop stop-opacity="1" stop-color="rgb(88.272095%, 74.940491%, 100%)" offset="0.691406"/><stop stop-opacity="1" stop-color="rgb(88.421631%, 75.257874%, 100%)" offset="0.695313"/><stop stop-opacity="1" stop-color="rgb(88.569641%, 75.575256%, 100%)" offset="0.699219"/><stop stop-opacity="1" stop-color="rgb(88.717651%, 75.892639%, 100%)" offset="0.703125"/><stop stop-opacity="1" stop-color="rgb(88.865662%, 76.210022%, 100%)" offset="0.707031"/><stop stop-opacity="1" stop-color="rgb(89.015198%, 76.527405%, 100%)" offset="0.710938"/><stop stop-opacity="1" stop-color="rgb(89.163208%, 76.844788%, 100%)" offset="0.714844"/><stop stop-opacity="1" stop-color="rgb(89.311218%, 77.16217%, 100%)" offset="0.71875"/><stop stop-opacity="1" stop-color="rgb(89.459229%, 77.478027%, 100%)" offset="0.722656"/><stop stop-opacity="1" stop-color="rgb(89.608765%, 77.79541%, 100%)" offset="0.726563"/><stop stop-opacity="1" stop-color="rgb(89.756775%, 78.112793%, 100%)" offset="0.730469"/><stop stop-opacity="1" stop-color="rgb(89.904785%, 78.430176%, 100%)" offset="0.734375"/><stop stop-opacity="1" stop-color="rgb(90.052795%, 78.747559%, 100%)" offset="0.738281"/><stop stop-opacity="1" stop-color="rgb(90.202332%, 79.064941%, 100%)" offset="0.742188"/><stop stop-opacity="1" stop-color="rgb(90.350342%, 79.382324%, 100%)" offset="0.746094"/><stop stop-opacity="1" stop-color="rgb(90.499878%, 79.699707%, 100%)" offset="0.75"/><stop stop-opacity="1" stop-color="rgb(90.647888%, 80.015564%, 100%)" offset="0.753906"/><stop stop-opacity="1" stop-color="rgb(90.795898%, 80.332947%, 100%)" offset="0.757812"/><stop stop-opacity="1" stop-color="rgb(90.943909%, 80.65033%, 100%)" offset="0.761719"/><stop stop-opacity="1" stop-color="rgb(91.093445%, 80.967712%, 100%)" offset="0.765625"/><stop stop-opacity="1" stop-color="rgb(91.241455%, 81.285095%, 100%)" offset="0.769531"/><stop stop-opacity="1" stop-color="rgb(91.389465%, 81.602478%, 100%)" offset="0.773438"/><stop stop-opacity="1" stop-color="rgb(91.537476%, 81.919861%, 100%)" offset="0.777344"/><stop stop-opacity="1" stop-color="rgb(91.687012%, 82.237244%, 100%)" offset="0.78125"/><stop stop-opacity="1" stop-color="rgb(91.835022%, 82.553101%, 100%)" offset="0.785156"/><stop stop-opacity="1" stop-color="rgb(91.983032%, 82.870483%, 100%)" offset="0.789062"/><stop stop-opacity="1" stop-color="rgb(92.131042%, 83.187866%, 100%)" offset="0.792969"/><stop stop-opacity="1" stop-color="rgb(92.280579%, 83.505249%, 100%)" offset="0.796875"/><stop stop-opacity="1" stop-color="rgb(92.428589%, 83.822632%, 100%)" offset="0.800781"/><stop stop-opacity="1" stop-color="rgb(92.576599%, 84.140015%, 100%)" offset="0.804688"/><stop stop-opacity="1" stop-color="rgb(92.724609%, 84.457397%, 100%)" offset="0.808594"/><stop stop-opacity="1" stop-color="rgb(92.874146%, 84.77478%, 100%)" offset="0.8125"/><stop stop-opacity="1" stop-color="rgb(93.022156%, 85.090637%, 100%)" offset="0.816406"/><stop stop-opacity="1" stop-color="rgb(93.171692%, 85.40802%, 100%)" offset="0.820313"/><stop stop-opacity="1" stop-color="rgb(93.319702%, 85.725403%, 100%)" offset="0.824219"/><stop stop-opacity="1" stop-color="rgb(93.467712%, 86.042786%, 100%)" offset="0.828125"/><stop stop-opacity="1" stop-color="rgb(93.615723%, 86.360168%, 100%)" offset="0.832031"/><stop stop-opacity="1" stop-color="rgb(93.765259%, 86.677551%, 100%)" offset="0.835938"/><stop stop-opacity="1" stop-color="rgb(93.913269%, 86.994934%, 100%)" offset="0.839844"/><stop stop-opacity="1" stop-color="rgb(94.061279%, 87.312317%, 100%)" offset="0.84375"/><stop stop-opacity="1" stop-color="rgb(94.20929%, 87.628174%, 100%)" offset="0.847656"/><stop stop-opacity="1" stop-color="rgb(94.358826%, 87.945557%, 100%)" offset="0.851563"/><stop stop-opacity="1" stop-color="rgb(94.506836%, 88.262939%, 100%)" offset="0.855469"/><stop stop-opacity="1" stop-color="rgb(94.654846%, 88.580322%, 100%)" offset="0.859375"/><stop stop-opacity="1" stop-color="rgb(94.802856%, 88.897705%, 100%)" offset="0.863281"/><stop stop-opacity="1" stop-color="rgb(94.952393%, 89.215088%, 100%)" offset="0.867188"/><stop stop-opacity="1" stop-color="rgb(95.100403%, 89.532471%, 100%)" offset="0.871094"/><stop stop-opacity="1" stop-color="rgb(95.249939%, 89.849854%, 100%)" offset="0.875"/><stop stop-opacity="1" stop-color="rgb(95.397949%, 90.16571%, 100%)" offset="0.878906"/><stop stop-opacity="1" stop-color="rgb(95.545959%, 90.483093%, 100%)" offset="0.882813"/><stop stop-opacity="1" stop-color="rgb(95.69397%, 90.800476%, 100%)" offset="0.886719"/><stop stop-opacity="1" stop-color="rgb(95.843506%, 91.117859%, 100%)" offset="0.890625"/><stop stop-opacity="1" stop-color="rgb(95.991516%, 91.435242%, 100%)" offset="0.894531"/><stop stop-opacity="1" stop-color="rgb(96.139526%, 91.752625%, 100%)" offset="0.898438"/><stop stop-opacity="1" stop-color="rgb(96.287537%, 92.070007%, 100%)" offset="0.902344"/><stop stop-opacity="1" stop-color="rgb(96.437073%, 92.38739%, 100%)" offset="0.90625"/><stop stop-opacity="1" stop-color="rgb(96.585083%, 92.703247%, 100%)" offset="0.910156"/><stop stop-opacity="1" stop-color="rgb(96.733093%, 93.02063%, 100%)" offset="0.914062"/><stop stop-opacity="1" stop-color="rgb(96.881104%, 93.338013%, 100%)" offset="0.917969"/><stop stop-opacity="1" stop-color="rgb(97.03064%, 93.655396%, 100%)" offset="0.921875"/><stop stop-opacity="1" stop-color="rgb(97.17865%, 93.972778%, 100%)" offset="0.925781"/><stop stop-opacity="1" stop-color="rgb(97.32666%, 94.290161%, 100%)" offset="0.929688"/><stop stop-opacity="1" stop-color="rgb(97.47467%, 94.607544%, 100%)" offset="0.933594"/><stop stop-opacity="1" stop-color="rgb(97.624207%, 94.924927%, 100%)" offset="0.9375"/><stop stop-opacity="1" stop-color="rgb(97.772217%, 95.240784%, 100%)" offset="0.941406"/><stop stop-opacity="1" stop-color="rgb(97.921753%, 95.558167%, 100%)" offset="0.945312"/><stop stop-opacity="1" stop-color="rgb(98.069763%, 95.875549%, 100%)" offset="0.949219"/><stop stop-opacity="1" stop-color="rgb(98.217773%, 96.192932%, 100%)" offset="0.953125"/><stop stop-opacity="1" stop-color="rgb(98.365784%, 96.510315%, 100%)" offset="0.957031"/><stop stop-opacity="1" stop-color="rgb(98.51532%, 96.827698%, 100%)" offset="0.960938"/><stop stop-opacity="1" stop-color="rgb(98.66333%, 97.145081%, 100%)" offset="0.964844"/><stop stop-opacity="1" stop-color="rgb(98.81134%, 97.462463%, 100%)" offset="0.96875"/><stop stop-opacity="1" stop-color="rgb(98.959351%, 97.77832%, 100%)" offset="0.972656"/><stop stop-opacity="1" stop-color="rgb(99.108887%, 98.095703%, 100%)" offset="0.976562"/><stop stop-opacity="1" stop-color="rgb(99.256897%, 98.413086%, 100%)" offset="0.980469"/><stop stop-opacity="1" stop-color="rgb(99.404907%, 98.730469%, 100%)" offset="0.984375"/><stop stop-opacity="1" stop-color="rgb(99.552917%, 99.047852%, 100%)" offset="0.988281"/><stop stop-opacity="1" stop-color="rgb(99.702454%, 99.365234%, 100%)" offset="0.992187"/><stop stop-opacity="1" stop-color="rgb(99.850464%, 99.681091%, 100%)" offset="0.996094"/><stop stop-opacity="1" stop-color="rgb(99.998474%, 99.998474%, 100%)" offset="1"/></linearGradient><clipPath id="id6"><rect x="0" width="43" y="0" height="73"/></clipPath><clipPath id="id7"><path d="M 0.445312 601 L 1079.554688 601 L 1079.554688 607 L 0.445312 607 Z M 0.445312 601 " clip-rule="nonzero"/></clipPath><mask id="id8"><g filter="url(#id1)"><rect x="-108" width="1296" fill="#000000" y="-60.749999" height="728.999984" fill-opacity="0.5176"/></g></mask><clipPath id="id9"><path d="M 0.445312 2 L 1079.554688 2 L 1079.554688 6 L 0.445312 6 Z M 0.445312 2 " clip-rule="nonzero"/></clipPath><clipPath id="id10"><rect x="0" width="1080" y="0" height="6"/></clipPath><mask id="id11"><g filter="url(#id1)"><rect x="-108" width="1296" fill="#000000" y="-60.749999" height="728.999984" fill-opacity="0.6196"/></g></mask><clipPath id="id12"><rect x="0" width="353" y="0" height="9"/></clipPath><clipPath id="id13"><path d="M 270 40 L 1079.554688 40 L 1079.554688 132 L 270 132 Z M 270 40 " clip-rule="nonzero"/></clipPath><mask id="id14"><g filter="url(#id1)"><rect x="-108" width="1296" fill="#000000" y="-60.749999" height="728.999984" fill-opacity="0.7569"/></g></mask><clipPath id="id15"><path d="M 0.359375 0.351562 L 809.554688 0.351562 L 809.554688 91.773438 L 0.359375 91.773438 Z M 0.359375 0.351562 " clip-rule="nonzero"/></clipPath><clipPath id="id16"><rect x="0" width="810" y="0" height="92"/></clipPath><mask id="id17"><g filter="url(#id1)"><rect x="-108" width="1296" fill="#000000" y="-60.749999" height="728.999984" fill-opacity="0.6667"/></g></mask><clipPath id="id18"><path d="M 0.738281 1 L 170.097656 1 L 170.097656 166 L 0.738281 166 Z M 0.738281 1 " clip-rule="nonzero"/></clipPath><clipPath id="id19"><rect x="0" width="171" y="0" height="167"/></clipPath><mask id="id20"><g filter="url(#id1)"><rect x="-108" width="1296" fill="#000000" y="-60.749999" height="728.999984" fill-opacity="0.8588"/></g></mask><clipPath id="id21"><rect x="0" width="103" y="0" height="32"/></clipPath><mask id="id22"><g filter="url(#id1)"><rect x="-108" width="1296" fill="#000000" y="-60.749999" height="728.999984" fill-opacity="0.7882"/></g></mask><clipPath id="id23"><rect x="0" width="272" y="0" height="116"/></clipPath></defs><g mask="url(#id2)"><g transform="matrix(1, 0, 0, 1, 967, 474)"><g clip-path="url(#id6)"><g clip-path="url(#id3)"><g clip-path="url(#id4)"><path fill="url(#id5)" d="M 0.957031 0.835938 L 0.957031 72.777344 L 42.082031 72.777344 L 42.082031 0.835938 Z M 0.957031 0.835938 " fill-rule="nonzero"/></g></g></g></g></g><g clip-path="url(#id7)"><g mask="url(#id8)"><g transform="matrix(1, 0, 0, 1, 0, 601)"><g clip-path="url(#id10)"><g clip-path="url(#id9)"><path stroke-linecap="butt" transform="matrix(3.746916, 0, 0, 3.746916, 0.44409, 4.126915)" fill="none" stroke-linejoin="miter" d="M 0.000326137 -0.000511077 L 287.999686 -0.000511077 " stroke="#9e30ff" stroke-width="1" stroke-opacity="1" stroke-miterlimit="4"/></g></g></g></g></g><g mask="url(#id11)"><g transform="matrix(1, 0, 0, 1, 71, 219)"><g clip-path="url(#id12)"><path stroke-linecap="butt" transform="matrix(3.746277, 0, 0, 3.746916, 3.961385, 4.26332)" fill="none" stroke-linejoin="miter" d="M -0.000119466 -0.000427333 L 91.617925 -0.000427333 " stroke="#9e30ff" stroke-width="1" stroke-opacity="1" stroke-miterlimit="4"/></g></g></g><g clip-path="url(#id13)"><g mask="url(#id14)"><g transform="matrix(1, 0, 0, 1, 270, 40)"><g clip-path="url(#id16)"><g clip-path="url(#id15)"><path fill="#1e1a1e" d="M 0.359375 0.351562 L 842.835938 0.351562 L 888.378906 46.0625 L 842.835938 91.773438 L 0.359375 91.773438 L 45.902344 46.0625 L 0.359375 0.351562 " fill-opacity="1" fill-rule="nonzero"/></g></g></g></g></g><g mask="url(#id17)"><g transform="matrix(1, 0, 0, 1, 801, 271)"><g clip-path="url(#id19)"><g clip-path="url(#id18)"><path fill="#9e30ff" d="M 85.417969 1.039062 C 38.65625 1.039062 0.738281 38.867188 0.738281 85.535156 C 0.738281 122.875 25.003906 154.546875 58.648438 165.714844 C 62.882812 166.5 64.433594 163.878906 64.433594 161.648438 C 64.433594 159.636719 64.355469 152.980469 64.320312 145.917969 C 40.761719 151.035156 35.789062 135.949219 35.789062 135.949219 C 31.9375 126.179688 26.386719 123.585938 26.386719 123.585938 C 18.707031 118.34375 26.96875 118.449219 26.96875 118.449219 C 35.46875 119.042969 39.949219 127.15625 39.949219 127.15625 C 47.5 140.078125 59.757812 136.339844 64.589844 134.179688 C 65.351562 128.722656 67.542969 124.992188 69.964844 122.878906 C 51.15625 120.746094 31.386719 113.5 31.386719 81.125 C 31.386719 71.898438 34.695312 64.359375 40.109375 58.441406 C 39.230469 56.316406 36.332031 47.722656 40.929688 36.082031 C 40.929688 36.082031 48.042969 33.808594 64.226562 44.742188 C 70.976562 42.871094 78.222656 41.933594 85.417969 41.898438 C 92.617188 41.933594 99.867188 42.871094 106.636719 44.742188 C 122.796875 33.808594 129.894531 36.082031 129.894531 36.082031 C 134.507812 47.722656 131.609375 56.316406 130.730469 58.441406 C 136.15625 64.359375 139.441406 71.898438 139.441406 81.125 C 139.441406 113.578125 119.636719 120.722656 100.773438 122.8125 C 103.8125 125.433594 106.523438 130.578125 106.523438 138.464844 C 106.523438 149.765625 106.425781 158.871094 106.425781 161.648438 C 106.425781 163.902344 107.945312 166.535156 112.238281 165.703125 C 145.867188 154.519531 170.097656 122.859375 170.097656 85.535156 C 170.097656 38.867188 132.183594 1.039062 85.417969 1.039062 Z M 32.453125 121.40625 C 32.269531 121.832031 31.605469 121.957031 31.003906 121.664062 C 30.390625 121.386719 30.042969 120.820312 30.242188 120.398438 C 30.425781 119.960938 31.089844 119.84375 31.703125 120.132812 C 32.316406 120.410156 32.667969 120.984375 32.453125 121.40625 Z M 36.621094 125.117188 C 36.214844 125.488281 35.425781 125.316406 34.890625 124.726562 C 34.335938 124.132812 34.234375 123.347656 34.644531 122.972656 C 35.058594 122.597656 35.824219 122.773438 36.378906 123.363281 C 36.933594 123.957031 37.042969 124.742188 36.621094 125.117188 Z M 39.476562 129.863281 C 38.957031 130.21875 38.109375 129.882812 37.585938 129.132812 C 37.066406 128.378906 37.066406 127.480469 37.597656 127.117188 C 38.125 126.753906 38.957031 127.085938 39.488281 127.832031 C 40.007812 128.589844 40.007812 129.496094 39.476562 129.863281 Z M 44.308594 135.355469 C 43.847656 135.863281 42.859375 135.734375 42.132812 135.03125 C 41.394531 134.351562 41.1875 133.382812 41.652344 132.875 C 42.125 132.367188 43.117188 132.503906 43.847656 133.199219 C 44.582031 133.878906 44.804688 134.855469 44.308594 135.355469 Z M 50.558594 137.210938 C 50.351562 137.871094 49.398438 138.175781 48.441406 137.890625 C 47.484375 137.605469 46.855469 136.828125 47.050781 136.160156 C 47.25 135.496094 48.203125 135.179688 49.171875 135.480469 C 50.128906 135.773438 50.757812 136.539062 50.558594 137.210938 Z M 57.664062 137.996094 C 57.6875 138.695312 56.875 139.269531 55.867188 139.285156 C 54.855469 139.308594 54.035156 138.742188 54.023438 138.054688 C 54.023438 137.355469 54.820312 136.78125 55.832031 136.769531 C 56.839844 136.75 57.664062 137.304688 57.664062 137.996094 Z M 64.648438 137.734375 C 64.769531 138.414062 64.070312 139.113281 63.066406 139.296875 C 62.085938 139.476562 61.175781 139.054688 61.050781 138.378906 C 60.929688 137.6875 61.640625 136.988281 62.621094 136.808594 C 63.625 136.628906 64.519531 137.039062 64.648438 137.734375 Z M 64.648438 137.734375 " fill-opacity="1" fill-rule="nonzero"/></g></g></g></g><g mask="url(#id20)"><g transform="matrix(1, 0, 0, 1, 4, 10)"><g clip-path="url(#id21)"><g fill="#9e30ff" fill-opacity="1"><g transform="translate(0.886675, 24.938149)"><g><path d="M 13.984375 -3.09375 L 15.046875 -1.4375 C 14.378906 -0.894531 13.53125 -0.46875 12.5 -0.15625 C 11.46875 0.144531 10.484375 0.296875 9.546875 0.296875 C 6.929688 0.296875 4.875 -0.601562 3.375 -2.40625 C 1.882812 -4.207031 1.140625 -6.425781 1.140625 -9.0625 C 1.140625 -11.738281 1.890625 -13.941406 3.390625 -15.671875 C 4.898438 -17.410156 6.96875 -18.28125 9.59375 -18.28125 C 10.5625 -18.28125 11.5625 -18.109375 12.59375 -17.765625 C 13.632812 -17.429688 14.4375 -16.953125 15 -16.328125 L 13.703125 -14.890625 C 13.242188 -15.398438 12.613281 -15.800781 11.8125 -16.09375 C 11.019531 -16.394531 10.265625 -16.546875 9.546875 -16.546875 C 8.515625 -16.546875 7.609375 -16.328125 6.828125 -15.890625 C 6.054688 -15.453125 5.445312 -14.859375 5 -14.109375 C 4.5625 -13.359375 4.226562 -12.550781 4 -11.6875 C 3.78125 -10.820312 3.671875 -9.898438 3.671875 -8.921875 C 3.671875 -7.929688 3.78125 -7.003906 4 -6.140625 C 4.226562 -5.285156 4.566406 -4.507812 5.015625 -3.8125 C 5.472656 -3.125 6.09375 -2.578125 6.875 -2.171875 C 7.65625 -1.765625 8.5625 -1.5625 9.59375 -1.5625 C 10.332031 -1.5625 11.109375 -1.703125 11.921875 -1.984375 C 12.742188 -2.265625 13.429688 -2.632812 13.984375 -3.09375 Z M 13.984375 -3.09375 "/></g></g></g><g fill="#9e30ff" fill-opacity="1"><g transform="translate(16.842903, 24.938149)"><g><path d="M 11.921875 -1.8125 L 12.34375 -0.515625 C 12.226562 -0.472656 12.039062 -0.394531 11.78125 -0.28125 C 11.53125 -0.175781 11.320312 -0.09375 11.15625 -0.03125 C 11 0.0195312 10.804688 0.0703125 10.578125 0.125 C 10.347656 0.1875 10.144531 0.21875 9.96875 0.21875 C 9.488281 0.21875 9.09375 0.0625 8.78125 -0.25 C 8.476562 -0.5625 8.285156 -0.96875 8.203125 -1.46875 C 7.097656 -0.3125 5.859375 0.265625 4.484375 0.265625 C 3.492188 0.265625 2.679688 -0.0234375 2.046875 -0.609375 C 1.410156 -1.191406 1.09375 -1.976562 1.09375 -2.96875 C 1.09375 -5.757812 3.445312 -7.175781 8.15625 -7.21875 L 8.15625 -8.53125 C 8.15625 -10.175781 7.46875 -11 6.09375 -11 C 5.445312 -11 4.789062 -10.863281 4.125 -10.59375 C 3.46875 -10.332031 2.941406 -9.984375 2.546875 -9.546875 L 1.53125 -11 C 2.875 -12.070312 4.453125 -12.609375 6.265625 -12.609375 C 7.554688 -12.609375 8.535156 -12.253906 9.203125 -11.546875 C 9.867188 -10.847656 10.203125 -9.847656 10.203125 -8.546875 L 10.203125 -2.40625 C 10.203125 -2.070312 10.238281 -1.832031 10.3125 -1.6875 C 10.394531 -1.539062 10.539062 -1.46875 10.75 -1.46875 C 10.945312 -1.46875 11.335938 -1.582031 11.921875 -1.8125 Z M 8.15625 -4.8125 L 8.15625 -5.59375 C 7.539062 -5.59375 7.015625 -5.570312 6.578125 -5.53125 C 6.140625 -5.5 5.625 -5.40625 5.03125 -5.25 C 4.445312 -5.101562 3.992188 -4.84375 3.671875 -4.46875 C 3.359375 -4.101562 3.203125 -3.628906 3.203125 -3.046875 C 3.203125 -2.515625 3.378906 -2.117188 3.734375 -1.859375 C 4.085938 -1.597656 4.5625 -1.46875 5.15625 -1.46875 C 6 -1.46875 6.707031 -1.804688 7.28125 -2.484375 C 7.863281 -3.171875 8.15625 -3.945312 8.15625 -4.8125 Z M 8.15625 -4.8125 "/></g></g></g><g fill="#9e30ff" fill-opacity="1"><g transform="translate(29.578187, 24.938149)"><g><path d="M 4.578125 -16.453125 C 4.578125 -16.023438 4.429688 -15.664062 4.140625 -15.375 C 3.859375 -15.082031 3.503906 -14.9375 3.078125 -14.9375 C 2.660156 -14.9375 2.304688 -15.082031 2.015625 -15.375 C 1.734375 -15.675781 1.59375 -16.035156 1.59375 -16.453125 C 1.59375 -16.867188 1.734375 -17.222656 2.015625 -17.515625 C 2.304688 -17.816406 2.660156 -17.96875 3.078125 -17.96875 C 3.484375 -17.96875 3.832031 -17.816406 4.125 -17.515625 C 4.425781 -17.222656 4.578125 -16.867188 4.578125 -16.453125 Z M 4.140625 0 L 2.078125 0 L 2.078125 -10.859375 C 2.078125 -10.867188 2.050781 -10.984375 2 -11.203125 C 1.957031 -11.429688 1.910156 -11.664062 1.859375 -11.90625 C 1.804688 -12.144531 1.78125 -12.28125 1.78125 -12.3125 L 4.140625 -12.3125 Z M 4.140625 0 "/></g></g></g><g fill="#9e30ff" fill-opacity="1"><g transform="translate(36.292791, 24.938149)"><g><path d="M 6.640625 0.328125 C 4.910156 0.328125 3.550781 -0.300781 2.5625 -1.5625 C 1.582031 -2.832031 1.09375 -4.359375 1.09375 -6.140625 C 1.09375 -7.910156 1.585938 -9.429688 2.578125 -10.703125 C 3.566406 -11.972656 4.921875 -12.609375 6.640625 -12.609375 C 8.390625 -12.609375 9.753906 -11.976562 10.734375 -10.71875 C 11.722656 -9.46875 12.21875 -7.941406 12.21875 -6.140625 C 12.21875 -4.335938 11.722656 -2.804688 10.734375 -1.546875 C 9.753906 -0.296875 8.390625 0.328125 6.640625 0.328125 Z M 6.640625 -1.234375 C 7.453125 -1.234375 8.125 -1.503906 8.65625 -2.046875 C 9.195312 -2.597656 9.5625 -3.222656 9.75 -3.921875 C 9.9375 -4.628906 10.03125 -5.367188 10.03125 -6.140625 C 10.03125 -6.921875 9.929688 -7.660156 9.734375 -8.359375 C 9.535156 -9.066406 9.164062 -9.691406 8.625 -10.234375 C 8.09375 -10.773438 7.429688 -11.046875 6.640625 -11.046875 C 5.847656 -11.046875 5.179688 -10.773438 4.640625 -10.234375 C 4.109375 -9.691406 3.742188 -9.066406 3.546875 -8.359375 C 3.359375 -7.660156 3.265625 -6.921875 3.265625 -6.140625 C 3.265625 -5.421875 3.375 -4.703125 3.59375 -3.984375 C 3.8125 -3.273438 4.1875 -2.640625 4.71875 -2.078125 C 5.257812 -1.515625 5.898438 -1.234375 6.640625 -1.234375 Z M 6.640625 -1.234375 "/></g></g></g><g fill="#9e30ff" fill-opacity="1"><g transform="translate(50.06869, 24.938149)"><g/></g></g><g fill="#9e30ff" fill-opacity="1"><g transform="translate(56.262993, 24.938149)"><g><path d="M 14.84375 0 L 12.171875 0 L 7.515625 -8.15625 C 7.128906 -8.125 6.507812 -8.109375 5.65625 -8.109375 L 4.40625 -8.109375 L 4.40625 0 L 2.109375 0 L 2.109375 -16.40625 C 2.109375 -16.425781 2.078125 -16.554688 2.015625 -16.796875 C 1.960938 -17.046875 1.90625 -17.304688 1.84375 -17.578125 C 1.789062 -17.847656 1.765625 -18.003906 1.765625 -18.046875 L 7.140625 -18.046875 C 11.203125 -18.046875 13.234375 -16.382812 13.234375 -13.0625 C 13.234375 -12.070312 12.894531 -11.148438 12.21875 -10.296875 C 11.550781 -9.441406 10.738281 -8.867188 9.78125 -8.578125 Z M 4.40625 -9.78125 L 6.390625 -9.78125 C 7.765625 -9.78125 8.847656 -10.03125 9.640625 -10.53125 C 10.429688 -11.039062 10.828125 -11.929688 10.828125 -13.203125 C 10.828125 -14.210938 10.472656 -14.984375 9.765625 -15.515625 C 9.054688 -16.054688 8.179688 -16.328125 7.140625 -16.328125 L 4.40625 -16.328125 Z M 4.40625 -9.78125 "/></g></g></g><g fill="#9e30ff" fill-opacity="1"><g transform="translate(71.401595, 24.938149)"><g><path d="M 10.0625 -2.546875 L 10.984375 -1.0625 C 9.835938 -0.132812 8.445312 0.328125 6.8125 0.328125 C 5.03125 0.328125 3.628906 -0.269531 2.609375 -1.46875 C 1.597656 -2.664062 1.09375 -4.179688 1.09375 -6.015625 C 1.09375 -7.140625 1.273438 -8.1875 1.640625 -9.15625 C 2.015625 -10.132812 2.617188 -10.953125 3.453125 -11.609375 C 4.285156 -12.273438 5.28125 -12.609375 6.4375 -12.609375 C 7.875 -12.609375 9.03125 -12.179688 9.90625 -11.328125 C 10.78125 -10.484375 11.21875 -9.351562 11.21875 -7.9375 C 11.21875 -6.875 10.800781 -6.34375 9.96875 -6.34375 L 3.265625 -6.34375 L 3.265625 -6.09375 C 3.265625 -4.90625 3.582031 -3.828125 4.21875 -2.859375 C 4.851562 -1.890625 5.734375 -1.40625 6.859375 -1.40625 C 7.410156 -1.40625 7.984375 -1.507812 8.578125 -1.71875 C 9.171875 -1.925781 9.664062 -2.203125 10.0625 -2.546875 Z M 3.421875 -7.875 L 8.59375 -7.875 C 8.78125 -7.875 8.894531 -7.910156 8.9375 -7.984375 C 8.988281 -8.066406 9.015625 -8.207031 9.015625 -8.40625 C 9.015625 -9.144531 8.800781 -9.769531 8.375 -10.28125 C 7.945312 -10.789062 7.367188 -11.046875 6.640625 -11.046875 C 5.847656 -11.046875 5.148438 -10.722656 4.546875 -10.078125 C 3.941406 -9.441406 3.566406 -8.707031 3.421875 -7.875 Z M 3.421875 -7.875 "/></g></g></g><g fill="#9e30ff" fill-opacity="1"><g transform="translate(84.136878, 24.938149)"><g><path d="M 4.578125 -16.453125 C 4.578125 -16.023438 4.429688 -15.664062 4.140625 -15.375 C 3.859375 -15.082031 3.503906 -14.9375 3.078125 -14.9375 C 2.660156 -14.9375 2.304688 -15.082031 2.015625 -15.375 C 1.734375 -15.675781 1.59375 -16.035156 1.59375 -16.453125 C 1.59375 -16.867188 1.734375 -17.222656 2.015625 -17.515625 C 2.304688 -17.816406 2.660156 -17.96875 3.078125 -17.96875 C 3.484375 -17.96875 3.832031 -17.816406 4.125 -17.515625 C 4.425781 -17.222656 4.578125 -16.867188 4.578125 -16.453125 Z M 4.140625 0 L 2.078125 0 L 2.078125 -10.859375 C 2.078125 -10.867188 2.050781 -10.984375 2 -11.203125 C 1.957031 -11.429688 1.910156 -11.664062 1.859375 -11.90625 C 1.804688 -12.144531 1.78125 -12.28125 1.78125 -12.3125 L 4.140625 -12.3125 Z M 4.140625 0 "/></g></g></g><g fill="#9e30ff" fill-opacity="1"><g transform="translate(90.851482, 24.938149)"><g><path d="M 1.265625 -0.71875 L 2.125 -2.234375 C 3.082031 -1.566406 3.960938 -1.234375 4.765625 -1.234375 C 5.441406 -1.234375 6.023438 -1.363281 6.515625 -1.625 C 7.015625 -1.894531 7.265625 -2.34375 7.265625 -2.96875 C 7.265625 -3.46875 7.066406 -3.898438 6.671875 -4.265625 C 6.273438 -4.640625 5.789062 -4.957031 5.21875 -5.21875 C 4.644531 -5.488281 4.078125 -5.769531 3.515625 -6.0625 C 2.953125 -6.351562 2.472656 -6.742188 2.078125 -7.234375 C 1.679688 -7.734375 1.484375 -8.328125 1.484375 -9.015625 C 1.484375 -10.171875 1.90625 -11.054688 2.75 -11.671875 C 3.59375 -12.296875 4.617188 -12.609375 5.828125 -12.609375 C 7.078125 -12.609375 8.175781 -12.320312 9.125 -11.75 L 8.40625 -10.15625 C 7.625 -10.75 6.835938 -11.046875 6.046875 -11.046875 C 5.398438 -11.046875 4.828125 -10.914062 4.328125 -10.65625 C 3.835938 -10.394531 3.59375 -9.96875 3.59375 -9.375 C 3.59375 -8.875 3.789062 -8.4375 4.1875 -8.0625 C 4.582031 -7.695312 5.066406 -7.382812 5.640625 -7.125 C 6.210938 -6.863281 6.78125 -6.585938 7.34375 -6.296875 C 7.914062 -6.015625 8.398438 -5.617188 8.796875 -5.109375 C 9.191406 -4.597656 9.390625 -3.984375 9.390625 -3.265625 C 9.390625 -2.046875 8.972656 -1.140625 8.140625 -0.546875 C 7.304688 0.0351562 6.242188 0.328125 4.953125 0.328125 C 3.847656 0.328125 2.617188 -0.0195312 1.265625 -0.71875 Z M 1.265625 -0.71875 "/></g></g></g></g></g></g><g mask="url(#id22)"><g transform="matrix(1, 0, 0, 1, 4, 32)"><g clip-path="url(#id23)"><g fill="#9e30ff" fill-opacity="1"><g transform="translate(0.66638, 83.967076)"><g><path d="M 52.050781 -39.65625 L 52.050781 -57.832031 L 5.785156 -57.832031 L 5.785156 -39.65625 L 24.785156 -39.65625 L 4.132812 -18.175781 L 4.132812 0 L 52.875 0 L 52.875 -18.175781 L 31.394531 -18.175781 Z M 52.050781 -39.65625 "/></g></g></g><g fill="#9e30ff" fill-opacity="1"><g transform="translate(57.673828, 83.967076)"><g><path d="M 26.4375 -57.832031 L 4.957031 -57.832031 L 4.957031 0 L 26.4375 0 Z M 26.4375 -57.832031 "/></g></g></g><g fill="#9e30ff" fill-opacity="1"><g transform="translate(89.069239, 83.967076)"><g><path d="M 40.484375 0 L 64.441406 0 L 64.441406 -57.832031 L 42.960938 -57.832031 L 42.960938 -32.222656 L 28.917969 -57.832031 L 4.957031 -57.832031 L 4.957031 0 L 26.4375 0 L 26.4375 -25.613281 Z M 40.484375 0 "/></g></g><g transform="translate(158.469619, 83.967076)"><g><path d="M 36.351562 -19.003906 C 30.570312 -19.003906 26.4375 -23.132812 26.4375 -28.917969 C 26.4375 -34.699219 30.570312 -38.832031 36.351562 -38.832031 C 42.136719 -38.832031 47.09375 -34.285156 47.09375 -34.285156 L 57.007812 -49.984375 C 57.007812 -49.984375 49.570312 -59.074219 33.875 -59.074219 C 16.523438 -59.074219 3.304688 -45.855469 3.304688 -28.917969 C 3.304688 -11.980469 16.523438 1.238281 33.875 1.238281 C 50.398438 1.238281 57.832031 -8.675781 57.832031 -8.675781 L 57.832031 -28.917969 L 38.003906 -28.917969 L 38.003906 -19.003906 C 38.003906 -19.003906 37.179688 -19.003906 36.351562 -19.003906 Z M 36.351562 -19.003906 "/></g></g></g><g fill="#9e30ff" fill-opacity="1"><g transform="translate(219.608027, 83.967076)"><g><path d="M 22.71875 -15.699219 C 14.457031 -15.699219 8.675781 -21.066406 8.675781 -21.066406 L 0.828125 -8.675781 C 0.828125 -8.675781 8.261719 1.238281 26.4375 1.238281 C 40.898438 1.238281 49.984375 -7.847656 49.984375 -17.351562 C 49.984375 -35.527344 27.675781 -35.527344 27.675781 -39.65625 C 27.675781 -40.898438 28.917969 -42.136719 30.980469 -42.136719 C 36.765625 -42.136719 41.722656 -37.59375 41.722656 -37.59375 L 49.570312 -49.984375 C 49.570312 -49.984375 42.136719 -59.074219 27.265625 -59.074219 C 12.804688 -59.074219 3.71875 -49.984375 3.71875 -40.484375 C 3.71875 -22.308594 26.023438 -22.308594 26.023438 -18.175781 C 26.023438 -16.9375 24.785156 -15.699219 22.71875 -15.699219 Z M 22.71875 -15.699219 "/></g></g></g></g></g></g></svg>