<svg xmlns="http://www.w3.org/2000/svg" xmlns:xlink="http://www.w3.org/1999/xlink" width="220" zoomAndPan="magnify" viewBox="0 0 165 165.000002" height="220" preserveAspectRatio="xMidYMid meet" version="1.0"><defs><clipPath id="id1"><path d="M 18 131 L 149 131 L 149 131.800781 L 18 131.800781 Z M 18 131 " clip-rule="nonzero"/></clipPath><clipPath id="id2"><path d="M 28 126 L 34 126 L 34 131.800781 L 28 131.800781 Z M 28 126 " clip-rule="nonzero"/></clipPath><clipPath id="id3"><path d="M 0.496094 35 L 45 35 L 45 80 L 0.496094 80 Z M 0.496094 35 " clip-rule="nonzero"/></clipPath><clipPath id="id4"><path d="M 0.496094 42 L 37 42 L 37 80 L 0.496094 80 Z M 0.496094 42 " clip-rule="nonzero"/></clipPath><clipPath id="id5"><path d="M 0.496094 65 L 21 65 L 21 80 L 0.496094 80 Z M 0.496094 65 " clip-rule="nonzero"/></clipPath><clipPath id="id6"><path d="M 120 35 L 164.503906 35 L 164.503906 80 L 120 80 Z M 120 35 " clip-rule="nonzero"/></clipPath><clipPath id="id7"><path d="M 145 60 L 164.503906 60 L 164.503906 80 L 145 80 Z M 145 60 " clip-rule="nonzero"/></clipPath><clipPath id="id8"><path d="M 18 31.90625 L 27 31.90625 L 27 40 L 18 40 Z M 18 31.90625 " clip-rule="nonzero"/></clipPath><clipPath id="id9"><path d="M 79 31.90625 L 89 31.90625 L 89 40 L 79 40 Z M 79 31.90625 " clip-rule="nonzero"/></clipPath><clipPath id="id10"><path d="M 139 31.90625 L 148 31.90625 L 148 40 L 139 40 Z M 139 31.90625 " clip-rule="nonzero"/></clipPath><clipPath id="id11"><path d="M 73 127 L 83 127 L 83 131.800781 L 73 131.800781 Z M 73 127 " clip-rule="nonzero"/></clipPath><clipPath id="id12"><path d="M 87 125 L 97 125 L 97 131.800781 L 87 131.800781 Z M 87 125 " clip-rule="nonzero"/></clipPath><clipPath id="id13"><path d="M 49 122 L 59 122 L 59 131.800781 L 49 131.800781 Z M 49 122 " clip-rule="nonzero"/></clipPath><clipPath id="id14"><path d="M 126 122 L 136 122 L 136 131.800781 L 126 131.800781 Z M 126 122 " clip-rule="nonzero"/></clipPath></defs><path fill="#3f3d56" d="M 25.777344 118.648438 C 27.121094 123.597656 31.71875 126.664062 31.71875 126.664062 C 31.71875 126.664062 34.140625 121.707031 32.800781 116.753906 C 31.457031 111.804688 26.855469 108.738281 26.855469 108.738281 C 26.855469 108.738281 24.433594 113.699219 25.777344 118.648438 Z M 25.777344 118.648438 " fill-opacity="1" fill-rule="nonzero"/><path fill="#9e30ff" d="M 27.75 117.585938 C 31.433594 121.164062 31.886719 126.660156 31.886719 126.660156 C 31.886719 126.660156 26.359375 126.359375 22.675781 122.785156 C 18.992188 119.207031 18.539062 113.707031 18.539062 113.707031 C 18.539062 113.707031 24.066406 114.007812 27.75 117.585938 Z M 27.75 117.585938 " fill-opacity="1" fill-rule="nonzero"/><g clip-path="url(#id1)"><path fill="#2f2e41" d="M 18.289062 131.371094 L 148.050781 131.371094 L 148.050781 131.773438 L 18.289062 131.773438 Z M 18.289062 131.371094 " fill-opacity="1" fill-rule="nonzero"/></g><g clip-path="url(#id2)"><path fill="#3f3d56" d="M 33.539062 131.574219 L 28.332031 131.574219 L 28.332031 126.382812 L 33.539062 126.382812 Z M 28.734375 131.171875 L 33.136719 131.171875 L 33.136719 126.78125 L 28.734375 126.78125 Z M 28.734375 131.171875 " fill-opacity="1" fill-rule="nonzero"/></g><g clip-path="url(#id3)"><path fill="#3f3d56" d="M 0.496094 35.894531 L 44.621094 35.894531 L 44.621094 79.894531 L 0.496094 79.894531 Z M 0.496094 35.894531 " fill-opacity="1" fill-rule="nonzero"/></g><path fill="#9e30ff" d="M 44.621094 46.84375 L 44.621094 47.851562 C 43.9375 47.398438 43.414062 46.808594 43.046875 46.074219 C 42.460938 44.875 42.480469 43.496094 42.496094 42.160156 C 42.519531 40.570312 42.539062 39.074219 41.53125 38.097656 C 40.417969 37.027344 38.640625 37.179688 36.921875 37.324219 C 36.71875 37.339844 36.515625 37.359375 36.316406 37.375 C 34.59375 37.503906 32.671875 37.070312 31.738281 35.894531 L 32.902344 35.894531 C 33.753906 36.46875 35.058594 36.671875 36.257812 36.578125 C 36.453125 36.566406 36.652344 36.546875 36.851562 36.53125 C 38.664062 36.378906 40.714844 36.203125 42.082031 37.527344 C 43.34375 38.738281 43.320312 40.484375 43.296875 42.167969 C 43.277344 43.414062 43.261719 44.695312 43.765625 45.722656 C 43.976562 46.152344 44.261719 46.527344 44.621094 46.84375 Z M 44.621094 46.84375 " fill-opacity="1" fill-rule="nonzero"/><path fill="#9e30ff" d="M 44.621094 53.824219 L 44.621094 55.007812 C 44.425781 54.753906 44.210938 54.523438 43.972656 54.3125 C 42.601562 53.105469 40.632812 52.839844 38.730469 52.582031 C 38.480469 52.546875 38.238281 52.515625 37.996094 52.480469 C 34.910156 52.035156 32.996094 50.980469 32.148438 49.253906 C 31.5625 48.054688 31.582031 46.675781 31.601562 45.339844 C 31.621094 43.75 31.640625 42.253906 30.632812 41.277344 C 29.519531 40.207031 27.742188 40.359375 26.023438 40.503906 C 25.820312 40.519531 25.617188 40.539062 25.417969 40.554688 C 23.203125 40.722656 20.660156 39.957031 20.3125 37.886719 C 20.191406 37.175781 20.367188 36.523438 20.632812 35.894531 L 21.503906 35.894531 C 21.210938 36.527344 20.992188 37.136719 21.097656 37.753906 C 21.359375 39.332031 23.492188 39.902344 25.359375 39.761719 C 25.554688 39.746094 25.753906 39.730469 25.953125 39.710938 C 27.765625 39.558594 29.816406 39.382812 31.183594 40.707031 C 32.445312 41.921875 32.421875 43.664062 32.398438 45.351562 C 32.378906 46.59375 32.363281 47.875 32.867188 48.902344 C 33.589844 50.378906 35.304688 51.289062 38.113281 51.691406 C 38.351562 51.726562 38.59375 51.761719 38.835938 51.792969 C 40.855469 52.066406 42.945312 52.351562 44.503906 53.714844 C 44.542969 53.75 44.582031 53.785156 44.621094 53.824219 Z M 44.621094 53.824219 " fill-opacity="1" fill-rule="nonzero"/><path fill="#9e30ff" d="M 44.621094 73.75 L 44.621094 75.382812 C 43.664062 74.367188 42.859375 72.96875 42.246094 71.222656 C 42.113281 70.851562 41.988281 70.472656 41.867188 70.09375 C 41.175781 68.019531 40.464844 65.875 38.769531 64.503906 C 36.957031 63.042969 34.359375 62.71875 31.847656 62.40625 C 31.523438 62.367188 31.203125 62.324219 30.882812 62.285156 C 26.8125 61.746094 24.289062 60.464844 23.171875 58.371094 C 22.394531 56.917969 22.417969 55.242188 22.441406 53.621094 C 22.472656 51.699219 22.5 49.878906 21.167969 48.699219 C 19.703125 47.398438 17.355469 47.582031 15.085938 47.757812 C 14.820312 47.78125 14.554688 47.800781 14.292969 47.820312 C 11.367188 48.023438 8.007812 47.09375 7.550781 44.585938 C 7.324219 43.355469 7.902344 42.265625 8.457031 41.210938 C 8.777344 40.605469 9.078125 40.03125 9.234375 39.441406 C 9.558594 38.222656 9.15625 36.851562 8.265625 35.894531 L 9.570312 35.894531 C 9.949219 36.445312 10.199219 37.050781 10.320312 37.707031 C 10.4375 38.367188 10.417969 39.019531 10.257812 39.667969 C 10.074219 40.359375 9.734375 41.007812 9.40625 41.632812 C 8.898438 42.589844 8.421875 43.496094 8.589844 44.425781 C 8.9375 46.339844 11.75 47.027344 14.210938 46.859375 C 14.472656 46.839844 14.734375 46.820312 14.996094 46.800781 C 17.382812 46.613281 20.089844 46.402344 21.898438 48.003906 C 23.558594 49.476562 23.527344 51.589844 23.496094 53.636719 C 23.472656 55.144531 23.449219 56.699219 24.113281 57.949219 C 25.070312 59.730469 27.332031 60.839844 31.035156 61.328125 C 31.351562 61.371094 31.667969 61.410156 31.988281 61.453125 C 34.65625 61.78125 37.414062 62.125 39.460938 63.78125 C 41.382812 65.335938 42.140625 67.609375 42.871094 69.8125 C 42.996094 70.191406 43.121094 70.5625 43.246094 70.929688 C 43.585938 71.925781 44.046875 72.867188 44.621094 73.75 Z M 44.621094 73.75 " fill-opacity="1" fill-rule="nonzero"/><g clip-path="url(#id4)"><path fill="#9e30ff" d="M 0.496094 53.660156 C 1.710938 55.125 4.28125 55.664062 6.585938 55.507812 C 6.84375 55.488281 7.109375 55.464844 7.378906 55.445312 C 9.644531 55.269531 11.992188 55.085938 13.457031 56.382812 C 14.792969 57.566406 14.761719 59.382812 14.734375 61.308594 C 14.710938 62.925781 14.6875 64.601562 15.460938 66.058594 C 16.582031 68.152344 19.105469 69.429688 23.175781 69.96875 C 23.496094 70.011719 23.816406 70.050781 24.136719 70.089844 C 26.648438 70.40625 29.246094 70.726562 31.058594 72.191406 C 32.757812 73.5625 33.46875 75.707031 34.15625 77.78125 C 34.28125 78.160156 34.40625 78.539062 34.535156 78.910156 C 34.65625 79.25 34.785156 79.578125 34.917969 79.894531 L 36.054688 79.894531 C 35.855469 79.460938 35.683594 79.027344 35.539062 78.613281 C 35.410156 78.246094 35.285156 77.875 35.160156 77.5 C 34.433594 75.296875 33.675781 73.019531 31.753906 71.46875 C 29.703125 69.8125 26.949219 69.46875 24.277344 69.136719 C 23.960938 69.097656 23.640625 69.058594 23.328125 69.015625 C 19.625 68.523438 17.359375 67.417969 16.40625 65.632812 C 15.742188 64.386719 15.765625 62.828125 15.785156 61.320312 C 15.820312 59.277344 15.851562 57.164062 14.1875 55.691406 C 12.382812 54.089844 9.675781 54.296875 7.289062 54.484375 C 7.023438 54.503906 6.761719 54.527344 6.503906 54.542969 C 4.039062 54.714844 1.230469 54.023438 0.878906 52.109375 C 0.710938 51.183594 1.1875 50.277344 1.695312 49.316406 C 2.027344 48.691406 2.367188 48.046875 2.550781 47.355469 C 3.046875 45.460938 2.207031 43.363281 0.496094 42.21875 L 0.496094 43.519531 C 1.429688 44.476562 1.855469 45.878906 1.527344 47.125 C 1.371094 47.71875 1.070312 48.292969 0.75 48.894531 C 0.664062 49.058594 0.578125 49.21875 0.496094 49.382812 Z M 0.496094 53.660156 " fill-opacity="1" fill-rule="nonzero"/></g><g clip-path="url(#id5)"><path fill="#9e30ff" d="M 20.015625 79.894531 L 18.914062 79.894531 C 18.855469 79.71875 18.796875 79.546875 18.738281 79.371094 C 18.050781 77.296875 17.339844 75.152344 15.644531 73.78125 C 13.832031 72.316406 11.234375 71.996094 8.722656 71.683594 C 8.398438 71.640625 8.078125 71.601562 7.757812 71.558594 C 4.164062 71.085938 1.777344 70.03125 0.496094 68.351562 L 0.496094 65.714844 C 0.578125 66.242188 0.742188 66.746094 0.988281 67.222656 C 1.941406 69.007812 4.207031 70.117188 7.910156 70.605469 C 8.222656 70.648438 8.542969 70.6875 8.863281 70.726562 C 11.53125 71.058594 14.289062 71.402344 16.335938 73.058594 C 18.257812 74.609375 19.015625 76.886719 19.746094 79.089844 C 19.835938 79.359375 19.921875 79.628906 20.015625 79.894531 Z M 20.015625 79.894531 " fill-opacity="1" fill-rule="nonzero"/></g><path fill="#3f3d56" d="M 60.304688 35.894531 L 104.429688 35.894531 L 104.429688 79.894531 L 60.304688 79.894531 Z M 60.304688 35.894531 " fill-opacity="1" fill-rule="nonzero"/><path fill="#9e30ff" d="M 81.570312 39.078125 C 81.570312 40.316406 81.40625 41.535156 81.085938 42.730469 C 80.761719 43.925781 80.285156 45.0625 79.664062 46.132812 C 79.039062 47.203125 78.285156 48.175781 77.402344 49.050781 C 76.519531 49.921875 75.539062 50.664062 74.457031 51.28125 C 73.378906 51.894531 72.238281 52.355469 71.035156 52.667969 C 69.832031 52.980469 68.609375 53.132812 67.367188 53.125 C 66.125 53.113281 64.902344 52.941406 63.707031 52.609375 C 62.507812 52.277344 61.375 51.796875 60.304688 51.164062 L 60.304688 35.894531 L 81.207031 35.894531 C 81.449219 36.941406 81.570312 38.003906 81.570312 39.078125 Z M 81.570312 39.078125 " fill-opacity="1" fill-rule="nonzero"/><path fill="#9e30ff" d="M 101.503906 47.824219 C 101.503906 48.378906 101.449219 48.929688 101.34375 49.476562 C 101.234375 50.023438 101.070312 50.554688 100.859375 51.070312 C 100.644531 51.582031 100.382812 52.070312 100.070312 52.535156 C 99.761719 52.996094 99.410156 53.425781 99.015625 53.820312 C 98.621094 54.214844 98.191406 54.566406 97.726562 54.875 C 97.261719 55.183594 96.769531 55.445312 96.253906 55.660156 C 95.738281 55.871094 95.207031 56.03125 94.660156 56.140625 C 94.109375 56.25 93.558594 56.304688 93 56.304688 C 92.441406 56.304688 91.886719 56.25 91.339844 56.140625 C 90.792969 56.03125 90.261719 55.871094 89.746094 55.660156 C 89.226562 55.445312 88.738281 55.183594 88.273438 54.875 C 87.808594 54.566406 87.378906 54.214844 86.984375 53.820312 C 86.589844 53.425781 86.238281 52.996094 85.925781 52.535156 C 85.617188 52.070312 85.355469 51.582031 85.140625 51.070312 C 84.925781 50.554688 84.765625 50.023438 84.65625 49.476562 C 84.546875 48.929688 84.492188 48.378906 84.492188 47.824219 C 84.492188 47.265625 84.546875 46.714844 84.65625 46.167969 C 84.765625 45.621094 84.925781 45.089844 85.140625 44.578125 C 85.355469 44.0625 85.617188 43.574219 85.925781 43.109375 C 86.238281 42.648438 86.589844 42.21875 86.984375 41.824219 C 87.378906 41.433594 87.808594 41.082031 88.273438 40.769531 C 88.738281 40.460938 89.226562 40.199219 89.746094 39.988281 C 90.261719 39.773438 90.792969 39.613281 91.339844 39.503906 C 91.886719 39.394531 92.441406 39.339844 93 39.339844 C 93.558594 39.339844 94.109375 39.394531 94.660156 39.503906 C 95.207031 39.613281 95.738281 39.773438 96.253906 39.988281 C 96.769531 40.199219 97.261719 40.460938 97.726562 40.769531 C 98.191406 41.082031 98.621094 41.433594 99.015625 41.824219 C 99.410156 42.21875 99.761719 42.648438 100.070312 43.109375 C 100.382812 43.574219 100.644531 44.0625 100.859375 44.578125 C 101.070312 45.089844 101.234375 45.621094 101.34375 46.167969 C 101.449219 46.714844 101.503906 47.265625 101.503906 47.824219 Z M 101.503906 47.824219 " fill-opacity="1" fill-rule="nonzero"/><path fill="#9e30ff" d="M 79.976562 65.84375 C 79.976562 66.246094 79.9375 66.640625 79.855469 67.035156 C 79.777344 67.425781 79.664062 67.808594 79.507812 68.179688 C 79.355469 68.546875 79.167969 68.898438 78.945312 69.230469 C 78.722656 69.566406 78.46875 69.875 78.183594 70.15625 C 77.898438 70.4375 77.589844 70.691406 77.257812 70.914062 C 76.925781 71.136719 76.570312 71.324219 76.199219 71.476562 C 75.828125 71.628906 75.449219 71.746094 75.054688 71.824219 C 74.660156 71.902344 74.261719 71.941406 73.859375 71.941406 C 73.460938 71.941406 73.0625 71.902344 72.667969 71.824219 C 72.273438 71.746094 71.890625 71.628906 71.523438 71.476562 C 71.152344 71.324219 70.796875 71.136719 70.464844 70.914062 C 70.128906 70.691406 69.820312 70.4375 69.539062 70.15625 C 69.253906 69.875 69 69.566406 68.777344 69.230469 C 68.554688 68.898438 68.367188 68.546875 68.210938 68.179688 C 68.058594 67.808594 67.941406 67.425781 67.863281 67.035156 C 67.785156 66.640625 67.746094 66.246094 67.746094 65.84375 C 67.746094 65.445312 67.785156 65.050781 67.863281 64.65625 C 67.941406 64.265625 68.058594 63.882812 68.210938 63.511719 C 68.367188 63.144531 68.554688 62.792969 68.777344 62.457031 C 69 62.125 69.253906 61.816406 69.539062 61.535156 C 69.820312 61.253906 70.128906 61 70.464844 60.777344 C 70.796875 60.554688 71.152344 60.367188 71.523438 60.214844 C 71.890625 60.0625 72.273438 59.945312 72.667969 59.867188 C 73.0625 59.789062 73.460938 59.75 73.859375 59.75 C 74.261719 59.75 74.660156 59.789062 75.054688 59.867188 C 75.449219 59.945312 75.828125 60.0625 76.199219 60.214844 C 76.570312 60.367188 76.925781 60.554688 77.257812 60.777344 C 77.589844 61 77.898438 61.253906 78.183594 61.535156 C 78.46875 61.816406 78.722656 62.125 78.945312 62.457031 C 79.167969 62.792969 79.355469 63.144531 79.507812 63.511719 C 79.664062 63.882812 79.777344 64.265625 79.855469 64.65625 C 79.9375 65.050781 79.976562 65.445312 79.976562 65.84375 Z M 79.976562 65.84375 " fill-opacity="1" fill-rule="nonzero"/><path fill="#9e30ff" d="M 104.429688 72.683594 L 104.429688 79.894531 L 95.679688 79.894531 C 95.496094 79.3125 95.398438 78.71875 95.390625 78.109375 C 95.386719 77.5 95.46875 76.90625 95.640625 76.320312 C 95.8125 75.738281 96.066406 75.191406 96.402344 74.683594 C 96.738281 74.175781 97.140625 73.726562 97.609375 73.339844 C 98.082031 72.949219 98.597656 72.640625 99.164062 72.40625 C 99.726562 72.175781 100.3125 72.027344 100.917969 71.96875 C 101.527344 71.910156 102.128906 71.941406 102.726562 72.066406 C 103.328125 72.1875 103.894531 72.394531 104.429688 72.683594 Z M 104.429688 72.683594 " fill-opacity="1" fill-rule="nonzero"/><path fill="#9e30ff" d="M 90.875 65.582031 C 90.875 65.792969 90.832031 65.996094 90.75 66.1875 C 90.671875 66.382812 90.554688 66.554688 90.40625 66.703125 C 90.257812 66.855469 90.082031 66.96875 89.886719 67.050781 C 89.691406 67.128906 89.488281 67.171875 89.277344 67.171875 C 89.066406 67.171875 88.863281 67.128906 88.667969 67.050781 C 88.472656 66.96875 88.300781 66.855469 88.152344 66.703125 C 88 66.554688 87.886719 66.382812 87.804688 66.1875 C 87.722656 65.996094 87.683594 65.792969 87.683594 65.582031 C 87.683594 65.371094 87.722656 65.167969 87.804688 64.972656 C 87.886719 64.777344 88 64.605469 88.152344 64.457031 C 88.300781 64.308594 88.472656 64.191406 88.667969 64.109375 C 88.863281 64.03125 89.066406 63.988281 89.277344 63.988281 C 89.488281 63.988281 89.691406 64.03125 89.886719 64.109375 C 90.082031 64.191406 90.257812 64.308594 90.40625 64.457031 C 90.554688 64.605469 90.671875 64.777344 90.75 64.972656 C 90.832031 65.167969 90.875 65.371094 90.875 65.582031 Z M 90.875 65.582031 " fill-opacity="1" fill-rule="nonzero"/><g clip-path="url(#id6)"><path fill="#3f3d56" d="M 120.378906 35.894531 L 164.503906 35.894531 L 164.503906 79.894531 L 120.378906 79.894531 Z M 120.378906 35.894531 " fill-opacity="1" fill-rule="nonzero"/></g><path fill="#9e30ff" d="M 141.910156 35.894531 L 141.910156 53.917969 L 120.378906 53.917969 L 120.378906 54.980469 L 142.972656 54.980469 L 142.972656 35.894531 Z M 141.910156 35.894531 " fill-opacity="1" fill-rule="nonzero"/><g clip-path="url(#id7)"><path fill="#9e30ff" d="M 162.675781 79.894531 L 164.503906 77.304688 L 164.503906 75.460938 L 161.378906 79.894531 Z M 155.261719 60.921875 L 145.476562 74.796875 L 152.746094 79.894531 L 154.59375 79.894531 L 146.957031 74.539062 L 155.519531 62.398438 L 164.503906 68.699219 L 164.503906 67.402344 Z M 155.261719 60.921875 " fill-opacity="1" fill-rule="nonzero"/></g><path fill="#9e30ff" d="M 138.984375 59.164062 L 133.347656 64.785156 L 138.984375 70.40625 L 144.621094 64.785156 Z M 134.847656 64.785156 L 138.984375 60.660156 L 143.121094 64.785156 L 138.984375 68.910156 Z M 134.847656 64.785156 " fill-opacity="1" fill-rule="nonzero"/><g clip-path="url(#id8)"><path fill="#f2f2f2" d="M 26.128906 35.929688 C 26.128906 36.191406 26.101562 36.453125 26.050781 36.710938 C 26 36.96875 25.925781 37.214844 25.824219 37.457031 C 25.722656 37.699219 25.601562 37.929688 25.453125 38.148438 C 25.308594 38.367188 25.140625 38.570312 24.957031 38.753906 C 24.769531 38.941406 24.566406 39.105469 24.347656 39.25 C 24.128906 39.398438 23.898438 39.519531 23.65625 39.621094 C 23.414062 39.71875 23.164062 39.796875 22.90625 39.847656 C 22.648438 39.898438 22.386719 39.925781 22.125 39.925781 C 21.859375 39.925781 21.601562 39.898438 21.34375 39.847656 C 21.085938 39.796875 20.835938 39.71875 20.589844 39.621094 C 20.347656 39.519531 20.117188 39.398438 19.898438 39.25 C 19.679688 39.105469 19.476562 38.941406 19.292969 38.753906 C 19.105469 38.570312 18.941406 38.367188 18.792969 38.148438 C 18.648438 37.929688 18.523438 37.699219 18.425781 37.457031 C 18.324219 37.214844 18.246094 36.96875 18.195312 36.710938 C 18.144531 36.453125 18.121094 36.191406 18.121094 35.929688 C 18.121094 35.667969 18.144531 35.410156 18.195312 35.152344 C 18.246094 34.894531 18.324219 34.644531 18.425781 34.402344 C 18.523438 34.160156 18.648438 33.929688 18.792969 33.710938 C 18.941406 33.492188 19.105469 33.292969 19.292969 33.105469 C 19.476562 32.921875 19.679688 32.757812 19.898438 32.609375 C 20.117188 32.464844 20.347656 32.339844 20.589844 32.242188 C 20.835938 32.140625 21.085938 32.066406 21.34375 32.015625 C 21.601562 31.964844 21.859375 31.9375 22.125 31.9375 C 22.386719 31.9375 22.648438 31.964844 22.90625 32.015625 C 23.164062 32.066406 23.414062 32.140625 23.65625 32.242188 C 23.898438 32.339844 24.128906 32.464844 24.347656 32.609375 C 24.566406 32.757812 24.769531 32.921875 24.957031 33.105469 C 25.140625 33.292969 25.308594 33.492188 25.453125 33.710938 C 25.601562 33.929688 25.722656 34.160156 25.824219 34.402344 C 25.925781 34.644531 26 34.894531 26.050781 35.152344 C 26.101562 35.410156 26.128906 35.667969 26.128906 35.929688 Z M 26.128906 35.929688 " fill-opacity="1" fill-rule="nonzero"/></g><g clip-path="url(#id9)"><path fill="#f2f2f2" d="M 88.007812 35.929688 C 88.007812 36.191406 87.980469 36.453125 87.929688 36.710938 C 87.878906 36.96875 87.800781 37.214844 87.703125 37.457031 C 87.601562 37.699219 87.476562 37.929688 87.332031 38.148438 C 87.1875 38.367188 87.019531 38.570312 86.832031 38.753906 C 86.648438 38.941406 86.445312 39.105469 86.226562 39.25 C 86.007812 39.398438 85.777344 39.519531 85.535156 39.621094 C 85.292969 39.71875 85.042969 39.796875 84.785156 39.847656 C 84.523438 39.898438 84.265625 39.925781 84 39.925781 C 83.738281 39.925781 83.476562 39.898438 83.21875 39.847656 C 82.960938 39.796875 82.710938 39.71875 82.46875 39.621094 C 82.226562 39.519531 81.996094 39.398438 81.777344 39.25 C 81.558594 39.105469 81.355469 38.941406 81.171875 38.753906 C 80.984375 38.570312 80.816406 38.367188 80.671875 38.148438 C 80.527344 37.929688 80.402344 37.699219 80.300781 37.457031 C 80.199219 37.214844 80.125 36.96875 80.074219 36.710938 C 80.023438 36.453125 79.996094 36.191406 79.996094 35.929688 C 79.996094 35.667969 80.023438 35.410156 80.074219 35.152344 C 80.125 34.894531 80.199219 34.644531 80.300781 34.402344 C 80.402344 34.160156 80.527344 33.929688 80.671875 33.710938 C 80.816406 33.492188 80.984375 33.292969 81.171875 33.105469 C 81.355469 32.921875 81.558594 32.757812 81.777344 32.609375 C 81.996094 32.464844 82.226562 32.339844 82.46875 32.242188 C 82.710938 32.140625 82.960938 32.066406 83.21875 32.015625 C 83.476562 31.964844 83.738281 31.9375 84 31.9375 C 84.265625 31.9375 84.523438 31.964844 84.785156 32.015625 C 85.042969 32.066406 85.292969 32.140625 85.535156 32.242188 C 85.777344 32.339844 86.007812 32.464844 86.226562 32.609375 C 86.445312 32.757812 86.648438 32.921875 86.832031 33.105469 C 87.019531 33.292969 87.1875 33.492188 87.332031 33.710938 C 87.476562 33.929688 87.601562 34.160156 87.703125 34.402344 C 87.800781 34.644531 87.878906 34.894531 87.929688 35.152344 C 87.980469 35.410156 88.007812 35.667969 88.007812 35.929688 Z M 88.007812 35.929688 " fill-opacity="1" fill-rule="nonzero"/></g><g clip-path="url(#id10)"><path fill="#f2f2f2" d="M 147.082031 35.929688 C 147.082031 36.191406 147.054688 36.453125 147.003906 36.710938 C 146.953125 36.96875 146.875 37.214844 146.777344 37.457031 C 146.675781 37.699219 146.550781 37.929688 146.40625 38.148438 C 146.261719 38.367188 146.09375 38.570312 145.90625 38.753906 C 145.722656 38.941406 145.519531 39.105469 145.300781 39.25 C 145.082031 39.398438 144.851562 39.519531 144.609375 39.621094 C 144.367188 39.71875 144.117188 39.796875 143.855469 39.847656 C 143.597656 39.898438 143.339844 39.925781 143.074219 39.925781 C 142.8125 39.925781 142.550781 39.898438 142.292969 39.847656 C 142.035156 39.796875 141.785156 39.71875 141.542969 39.621094 C 141.300781 39.519531 141.070312 39.398438 140.851562 39.25 C 140.632812 39.105469 140.429688 38.941406 140.242188 38.753906 C 140.058594 38.570312 139.890625 38.367188 139.746094 38.148438 C 139.601562 37.929688 139.476562 37.699219 139.375 37.457031 C 139.273438 37.214844 139.199219 36.96875 139.148438 36.710938 C 139.097656 36.453125 139.070312 36.191406 139.070312 35.929688 C 139.070312 35.667969 139.097656 35.410156 139.148438 35.152344 C 139.199219 34.894531 139.273438 34.644531 139.375 34.402344 C 139.476562 34.160156 139.601562 33.929688 139.746094 33.710938 C 139.890625 33.492188 140.058594 33.292969 140.242188 33.105469 C 140.429688 32.921875 140.632812 32.757812 140.851562 32.609375 C 141.070312 32.464844 141.300781 32.339844 141.542969 32.242188 C 141.785156 32.140625 142.035156 32.066406 142.292969 32.015625 C 142.550781 31.964844 142.8125 31.9375 143.074219 31.9375 C 143.339844 31.9375 143.597656 31.964844 143.855469 32.015625 C 144.117188 32.066406 144.367188 32.140625 144.609375 32.242188 C 144.851562 32.339844 145.082031 32.464844 145.300781 32.609375 C 145.519531 32.757812 145.722656 32.921875 145.90625 33.105469 C 146.09375 33.292969 146.261719 33.492188 146.40625 33.710938 C 146.550781 33.929688 146.675781 34.160156 146.777344 34.402344 C 146.875 34.644531 146.953125 34.894531 147.003906 35.152344 C 147.054688 35.410156 147.082031 35.667969 147.082031 35.929688 Z M 147.082031 35.929688 " fill-opacity="1" fill-rule="nonzero"/></g><path fill="#ffb8b8" d="M 83.703125 55.398438 C 83.703125 55.902344 83.605469 56.386719 83.410156 56.851562 C 83.21875 57.316406 82.945312 57.726562 82.585938 58.082031 C 82.230469 58.4375 81.820312 58.710938 81.351562 58.902344 C 80.886719 59.097656 80.402344 59.191406 79.898438 59.191406 C 79.390625 59.191406 78.90625 59.097656 78.441406 58.902344 C 77.972656 58.710938 77.5625 58.4375 77.207031 58.082031 C 76.851562 57.726562 76.574219 57.316406 76.382812 56.851562 C 76.1875 56.386719 76.09375 55.902344 76.09375 55.398438 C 76.09375 54.894531 76.1875 54.410156 76.382812 53.945312 C 76.574219 53.480469 76.851562 53.070312 77.207031 52.714844 C 77.5625 52.359375 77.972656 52.085938 78.441406 51.894531 C 78.90625 51.699219 79.390625 51.605469 79.898438 51.605469 C 80.402344 51.605469 80.886719 51.699219 81.351562 51.894531 C 81.820312 52.085938 82.230469 52.359375 82.585938 52.714844 C 82.945312 53.070312 83.21875 53.480469 83.410156 53.945312 C 83.605469 54.410156 83.703125 54.894531 83.703125 55.398438 Z M 83.703125 55.398438 " fill-opacity="1" fill-rule="nonzero"/><path fill="#ffb8b8" d="M 77.894531 57.195312 C 77.894531 57.195312 78.894531 62.386719 78.496094 63.386719 C 78.09375 64.382812 84.101562 62.984375 84.101562 62.984375 C 84.101562 62.984375 82.902344 57.792969 83.101562 56.597656 C 83.300781 55.398438 77.894531 57.195312 77.894531 57.195312 Z M 77.894531 57.195312 " fill-opacity="1" fill-rule="nonzero"/><path fill="#ffb8b8" d="M 71.285156 75.164062 L 71.6875 80.558594 L 73.675781 89.023438 L 74.289062 91.339844 L 75.289062 87.746094 L 74.289062 79.558594 L 73.949219 75.871094 Z M 71.285156 75.164062 " fill-opacity="1" fill-rule="nonzero"/><path fill="#ffb8b8" d="M 92.3125 74.367188 L 92.3125 79.957031 C 92.3125 79.957031 91.710938 87.144531 90.511719 88.941406 C 89.308594 90.738281 88.90625 81.753906 88.90625 81.753906 L 89.847656 75.164062 Z M 92.3125 74.367188 " fill-opacity="1" fill-rule="nonzero"/><path fill="#2f2e41" d="M 74.488281 91.738281 C 74.488281 91.738281 73.488281 92.9375 74.289062 105.117188 C 75.089844 117.296875 73.890625 126.082031 76.492188 126.082031 C 76.492188 126.082031 75.691406 128.675781 77.894531 128.875 C 80.097656 129.078125 81.097656 129.277344 81.296875 128.675781 C 81.5 128.078125 81.898438 125.28125 81.296875 125.28125 C 81.296875 125.28125 81.296875 126.082031 81.699219 122.886719 C 82.097656 119.691406 82.097656 104.515625 83.101562 102.519531 L 86.304688 109.910156 C 86.304688 109.910156 86.304688 113.300781 86.90625 114.898438 C 87.507812 116.496094 88.507812 125.683594 88.507812 125.683594 L 88.308594 127.078125 C 88.308594 127.078125 93.113281 127.878906 93.3125 127.078125 C 93.515625 126.28125 93.515625 125.082031 93.3125 124.683594 C 93.113281 124.285156 93.113281 124.285156 93.515625 123.484375 C 93.914062 122.6875 93.914062 122.089844 93.714844 121.488281 C 93.515625 120.890625 93.515625 107.910156 93.515625 107.910156 C 93.515625 107.910156 93.113281 92.136719 90.710938 91.339844 C 88.308594 90.539062 74.488281 91.738281 74.488281 91.738281 Z M 74.488281 91.738281 " fill-opacity="1" fill-rule="nonzero"/><g clip-path="url(#id11)"><path fill="#2f2e41" d="M 77.09375 127.28125 L 75.492188 130.074219 C 75.492188 130.074219 72.988281 129.175781 73.488281 131.472656 C 77.792969 131.773438 80.796875 131.371094 80.796875 131.371094 C 80.796875 131.371094 81.800781 131.773438 82 131.171875 C 82.199219 130.574219 81.5 128.476562 80.898438 128.476562 C 80.296875 128.476562 77.09375 127.28125 77.09375 127.28125 Z M 77.09375 127.28125 " fill-opacity="1" fill-rule="nonzero"/></g><g clip-path="url(#id12)"><path fill="#2f2e41" d="M 88.707031 126.480469 C 88.707031 126.480469 87.105469 130.074219 87.707031 130.273438 C 88.308594 130.472656 93.714844 131.273438 94.113281 131.472656 C 94.515625 131.671875 96.519531 131.871094 96.71875 130.675781 C 96.917969 129.476562 95.714844 129.078125 95.714844 129.078125 C 95.714844 129.078125 93.515625 128.675781 92.914062 126.679688 C 92.3125 124.683594 88.707031 126.480469 88.707031 126.480469 Z M 88.707031 126.480469 " fill-opacity="1" fill-rule="nonzero"/></g><path fill="#8985a8" d="M 84.503906 62.386719 C 84.503906 62.386719 79.097656 61.386719 77.894531 62.386719 C 76.691406 63.386719 71.6875 65.382812 71.6875 66.378906 C 71.6875 67.378906 74.289062 77.164062 74.289062 77.164062 C 74.289062 77.164062 72.886719 91.9375 74.289062 92.335938 C 75.691406 92.738281 78.09375 91.539062 80.898438 92.9375 C 83.703125 94.335938 91.710938 91.738281 91.710938 91.738281 C 91.710938 91.738281 88.707031 78.960938 89.507812 76.5625 C 90.308594 74.167969 90.910156 65.980469 90.910156 65.980469 C 90.910156 65.980469 87.507812 62.386719 84.503906 62.386719 Z M 84.503906 62.386719 " fill-opacity="1" fill-rule="nonzero"/><path fill="#8985a8" d="M 73.089844 65.78125 L 71.6875 66.179688 C 71.6875 66.179688 68.683594 75.566406 69.882812 75.964844 C 71.085938 76.363281 74.488281 77.164062 74.890625 77.164062 C 75.289062 77.164062 73.089844 65.78125 73.089844 65.78125 Z M 73.089844 65.78125 " fill-opacity="1" fill-rule="nonzero"/><path fill="#8985a8" d="M 87.707031 64.78125 L 90.910156 65.980469 C 90.910156 65.980469 95.117188 73.769531 94.113281 74.765625 C 93.113281 75.765625 88.707031 76.761719 88.707031 76.761719 Z M 87.707031 64.78125 " fill-opacity="1" fill-rule="nonzero"/><path fill="#2f2e41" d="M 79.78125 50.710938 C 79.460938 50.65625 79.144531 50.667969 78.828125 50.753906 C 78.578125 50.863281 78.355469 51.011719 78.152344 51.195312 C 77.789062 51.484375 77.40625 51.738281 76.996094 51.960938 C 76.671875 52.136719 76.324219 52.300781 76.097656 52.589844 C 75.988281 52.738281 75.90625 52.898438 75.84375 53.070312 C 75.445312 54.082031 75.34375 55.125 75.539062 56.195312 C 75.5625 56.34375 75.605469 56.488281 75.671875 56.625 C 75.882812 57.007812 76.339844 57.15625 76.726562 57.359375 C 77.464844 57.738281 78.019531 58.378906 78.625 58.945312 C 78.847656 59.167969 79.097656 59.363281 79.371094 59.519531 C 80.234375 59.988281 81.285156 59.835938 82.25 59.671875 C 82.394531 59.671875 82.515625 59.621094 82.617188 59.515625 C 82.71875 59.414062 82.769531 59.292969 82.769531 59.148438 L 83.53125 55.730469 C 83.667969 55.222656 83.734375 54.703125 83.726562 54.175781 C 83.671875 53.347656 83.222656 52.195312 82.609375 51.605469 C 81.898438 50.921875 80.710938 50.8125 79.78125 50.710938 Z M 79.78125 50.710938 " fill-opacity="1" fill-rule="nonzero"/><path fill="#9e30ff" d="M 55.59375 126.984375 C 55.59375 127.195312 55.550781 127.394531 55.472656 127.589844 C 55.390625 127.78125 55.277344 127.953125 55.128906 128.101562 C 54.980469 128.246094 54.8125 128.363281 54.617188 128.441406 C 54.421875 128.523438 54.222656 128.5625 54.011719 128.5625 C 53.800781 128.5625 53.601562 128.523438 53.40625 128.441406 C 53.214844 128.363281 53.042969 128.246094 52.894531 128.101562 C 52.746094 127.953125 52.632812 127.78125 52.550781 127.589844 C 52.472656 127.394531 52.433594 127.195312 52.433594 126.984375 C 52.433594 126.777344 52.472656 126.574219 52.550781 126.382812 C 52.632812 126.191406 52.746094 126.019531 52.894531 125.871094 C 53.042969 125.722656 53.214844 125.609375 53.40625 125.53125 C 53.601562 125.449219 53.800781 125.410156 54.011719 125.410156 C 54.222656 125.410156 54.421875 125.449219 54.617188 125.53125 C 54.8125 125.609375 54.980469 125.722656 55.128906 125.871094 C 55.277344 126.019531 55.390625 126.191406 55.472656 126.382812 C 55.550781 126.574219 55.59375 126.777344 55.59375 126.984375 Z M 55.59375 126.984375 " fill-opacity="1" fill-rule="nonzero"/><g clip-path="url(#id13)"><path fill="#2f2e41" d="M 54.011719 131.539062 C 53.710938 131.539062 53.414062 131.507812 53.121094 131.449219 C 52.828125 131.390625 52.542969 131.304688 52.265625 131.191406 C 51.988281 131.078125 51.726562 130.9375 51.476562 130.769531 C 51.226562 130.605469 50.996094 130.414062 50.785156 130.203125 C 50.570312 129.992188 50.382812 129.761719 50.214844 129.515625 C 50.050781 129.265625 49.910156 129.003906 49.792969 128.726562 C 49.679688 128.453125 49.59375 128.167969 49.535156 127.875 C 49.476562 127.582031 49.445312 127.285156 49.445312 126.984375 C 49.445312 126.6875 49.476562 126.390625 49.535156 126.097656 C 49.59375 125.804688 49.679688 125.519531 49.792969 125.242188 C 49.910156 124.96875 50.050781 124.707031 50.214844 124.457031 C 50.382812 124.207031 50.570312 123.980469 50.785156 123.765625 C 50.996094 123.554688 51.226562 123.367188 51.476562 123.199219 C 51.726562 123.035156 51.988281 122.894531 52.265625 122.78125 C 52.542969 122.667969 52.828125 122.578125 53.121094 122.519531 C 53.414062 122.464844 53.710938 122.433594 54.011719 122.433594 C 54.3125 122.433594 54.609375 122.464844 54.902344 122.519531 C 55.195312 122.578125 55.480469 122.667969 55.757812 122.78125 C 56.035156 122.894531 56.300781 123.035156 56.546875 123.199219 C 56.796875 123.367188 57.027344 123.554688 57.242188 123.765625 C 57.453125 123.980469 57.640625 124.207031 57.808594 124.457031 C 57.972656 124.707031 58.113281 124.96875 58.230469 125.242188 C 58.34375 125.519531 58.429688 125.804688 58.488281 126.097656 C 58.546875 126.390625 58.578125 126.6875 58.578125 126.984375 C 58.578125 127.285156 58.546875 127.582031 58.488281 127.875 C 58.429688 128.167969 58.34375 128.449219 58.230469 128.726562 C 58.113281 129.003906 57.972656 129.265625 57.804688 129.511719 C 57.640625 129.761719 57.449219 129.992188 57.238281 130.203125 C 57.027344 130.414062 56.796875 130.601562 56.546875 130.769531 C 56.296875 130.933594 56.035156 131.074219 55.757812 131.191406 C 55.480469 131.304688 55.195312 131.390625 54.902344 131.449219 C 54.609375 131.507812 54.3125 131.539062 54.011719 131.539062 Z M 54.011719 122.785156 C 53.734375 122.785156 53.460938 122.8125 53.191406 122.863281 C 52.917969 122.917969 52.65625 123 52.398438 123.105469 C 52.144531 123.210938 51.902344 123.339844 51.671875 123.492188 C 51.441406 123.644531 51.226562 123.820312 51.03125 124.015625 C 50.835938 124.210938 50.660156 124.421875 50.507812 124.652344 C 50.355469 124.882812 50.226562 125.125 50.117188 125.378906 C 50.011719 125.632812 49.933594 125.894531 49.878906 126.167969 C 49.824219 126.4375 49.796875 126.710938 49.796875 126.984375 C 49.796875 127.261719 49.824219 127.535156 49.878906 127.804688 C 49.933594 128.078125 50.011719 128.339844 50.117188 128.59375 C 50.226562 128.847656 50.355469 129.089844 50.507812 129.320312 C 50.660156 129.550781 50.835938 129.761719 51.03125 129.957031 C 51.226562 130.152344 51.441406 130.328125 51.671875 130.480469 C 51.902344 130.632812 52.144531 130.761719 52.398438 130.867188 C 52.65625 130.972656 52.917969 131.054688 53.191406 131.105469 C 53.460938 131.160156 53.734375 131.1875 54.011719 131.1875 C 54.289062 131.1875 54.5625 131.160156 54.835938 131.105469 C 55.105469 131.054688 55.371094 130.972656 55.625 130.867188 C 55.878906 130.761719 56.125 130.632812 56.351562 130.480469 C 56.582031 130.328125 56.796875 130.152344 56.992188 129.957031 C 57.1875 129.761719 57.363281 129.550781 57.515625 129.320312 C 57.667969 129.089844 57.800781 128.847656 57.90625 128.59375 C 58.011719 128.339844 58.089844 128.078125 58.144531 127.804688 C 58.199219 127.535156 58.226562 127.261719 58.226562 126.984375 C 58.226562 126.710938 58.199219 126.4375 58.144531 126.167969 C 58.089844 125.894531 58.011719 125.632812 57.902344 125.378906 C 57.796875 125.125 57.667969 124.882812 57.515625 124.652344 C 57.359375 124.421875 57.1875 124.210938 56.992188 124.015625 C 56.796875 123.820312 56.582031 123.648438 56.351562 123.492188 C 56.121094 123.339844 55.878906 123.210938 55.625 123.105469 C 55.367188 123 55.105469 122.917969 54.832031 122.867188 C 54.5625 122.8125 54.289062 122.785156 54.011719 122.785156 Z M 54.011719 122.785156 " fill-opacity="1" fill-rule="nonzero"/></g><path fill="#9e30ff" d="M 132.488281 127.183594 C 132.488281 127.394531 132.449219 127.59375 132.367188 127.789062 C 132.289062 127.980469 132.175781 128.152344 132.027344 128.300781 C 131.878906 128.449219 131.707031 128.5625 131.511719 128.640625 C 131.320312 128.722656 131.117188 128.761719 130.910156 128.761719 C 130.699219 128.761719 130.496094 128.722656 130.304688 128.640625 C 130.109375 128.5625 129.941406 128.449219 129.792969 128.300781 C 129.644531 128.152344 129.527344 127.980469 129.449219 127.789062 C 129.367188 127.59375 129.328125 127.394531 129.328125 127.183594 C 129.328125 126.976562 129.367188 126.777344 129.449219 126.582031 C 129.527344 126.390625 129.644531 126.21875 129.792969 126.070312 C 129.941406 125.921875 130.109375 125.808594 130.304688 125.730469 C 130.496094 125.648438 130.699219 125.609375 130.910156 125.609375 C 131.117188 125.609375 131.320312 125.648438 131.511719 125.730469 C 131.707031 125.808594 131.878906 125.921875 132.027344 126.070312 C 132.175781 126.21875 132.289062 126.390625 132.367188 126.582031 C 132.449219 126.777344 132.488281 126.976562 132.488281 127.183594 Z M 132.488281 127.183594 " fill-opacity="1" fill-rule="nonzero"/><g clip-path="url(#id14)"><path fill="#2f2e41" d="M 130.910156 131.738281 C 130.609375 131.738281 130.3125 131.707031 130.019531 131.648438 C 129.722656 131.589844 129.4375 131.503906 129.160156 131.390625 C 128.886719 131.277344 128.621094 131.136719 128.371094 130.96875 C 128.125 130.804688 127.894531 130.617188 127.679688 130.402344 C 127.46875 130.191406 127.28125 129.964844 127.113281 129.714844 C 126.945312 129.464844 126.804688 129.203125 126.691406 128.925781 C 126.578125 128.652344 126.488281 128.367188 126.429688 128.074219 C 126.371094 127.78125 126.34375 127.484375 126.34375 127.1875 C 126.34375 126.886719 126.371094 126.589844 126.429688 126.296875 C 126.488281 126.003906 126.578125 125.71875 126.691406 125.445312 C 126.804688 125.167969 126.945312 124.90625 127.113281 124.65625 C 127.28125 124.40625 127.46875 124.179688 127.679688 123.96875 C 127.894531 123.753906 128.125 123.566406 128.371094 123.402344 C 128.621094 123.234375 128.886719 123.09375 129.160156 122.980469 C 129.4375 122.867188 129.722656 122.78125 130.019531 122.722656 C 130.3125 122.664062 130.609375 122.632812 130.910156 122.632812 C 131.207031 122.632812 131.503906 122.664062 131.800781 122.722656 C 132.09375 122.78125 132.378906 122.867188 132.65625 122.980469 C 132.933594 123.09375 133.195312 123.234375 133.445312 123.402344 C 133.695312 123.566406 133.925781 123.753906 134.136719 123.96875 C 134.347656 124.179688 134.539062 124.40625 134.703125 124.65625 C 134.871094 124.90625 135.011719 125.167969 135.125 125.445312 C 135.242188 125.71875 135.328125 126.003906 135.386719 126.296875 C 135.445312 126.589844 135.472656 126.886719 135.472656 127.1875 C 135.472656 127.484375 135.445312 127.78125 135.386719 128.074219 C 135.328125 128.367188 135.238281 128.652344 135.125 128.925781 C 135.011719 129.203125 134.871094 129.464844 134.703125 129.714844 C 134.535156 129.960938 134.347656 130.191406 134.136719 130.402344 C 133.921875 130.613281 133.691406 130.804688 133.445312 130.96875 C 133.195312 131.136719 132.933594 131.273438 132.65625 131.390625 C 132.378906 131.503906 132.09375 131.589844 131.800781 131.648438 C 131.503906 131.707031 131.207031 131.738281 130.910156 131.738281 Z M 130.910156 122.984375 C 130.632812 122.984375 130.359375 123.011719 130.085938 123.066406 C 129.816406 123.117188 129.550781 123.199219 129.296875 123.304688 C 129.039062 123.410156 128.796875 123.539062 128.566406 123.691406 C 128.335938 123.84375 128.125 124.019531 127.929688 124.214844 C 127.734375 124.410156 127.558594 124.621094 127.40625 124.851562 C 127.25 125.082031 127.121094 125.324219 127.015625 125.578125 C 126.910156 125.832031 126.828125 126.09375 126.777344 126.367188 C 126.722656 126.636719 126.695312 126.910156 126.695312 127.1875 C 126.695312 127.460938 126.722656 127.734375 126.777344 128.003906 C 126.828125 128.277344 126.910156 128.539062 127.015625 128.792969 C 127.121094 129.046875 127.25 129.289062 127.40625 129.519531 C 127.558594 129.75 127.734375 129.960938 127.929688 130.15625 C 128.125 130.351562 128.335938 130.527344 128.566406 130.679688 C 128.796875 130.832031 129.039062 130.960938 129.296875 131.066406 C 129.550781 131.171875 129.816406 131.253906 130.085938 131.304688 C 130.359375 131.359375 130.632812 131.386719 130.910156 131.386719 C 131.183594 131.386719 131.460938 131.359375 131.730469 131.304688 C 132.003906 131.253906 132.265625 131.171875 132.519531 131.066406 C 132.777344 130.960938 133.019531 130.832031 133.25 130.679688 C 133.480469 130.527344 133.691406 130.351562 133.886719 130.15625 C 134.085938 129.960938 134.257812 129.75 134.414062 129.519531 C 134.566406 129.289062 134.695312 129.046875 134.800781 128.792969 C 134.90625 128.539062 134.988281 128.277344 135.042969 128.003906 C 135.097656 127.734375 135.121094 127.460938 135.121094 127.1875 C 135.121094 126.910156 135.09375 126.636719 135.042969 126.367188 C 134.988281 126.097656 134.90625 125.832031 134.800781 125.578125 C 134.695312 125.324219 134.566406 125.082031 134.410156 124.851562 C 134.257812 124.625 134.082031 124.410156 133.886719 124.214844 C 133.691406 124.019531 133.480469 123.847656 133.25 123.695312 C 133.019531 123.539062 132.777344 123.410156 132.519531 123.304688 C 132.265625 123.199219 132 123.121094 131.730469 123.066406 C 131.460938 123.011719 131.183594 122.984375 130.910156 122.984375 Z M 130.910156 122.984375 " fill-opacity="1" fill-rule="nonzero"/></g><path fill="#9e30ff" d="M 132.488281 118.398438 C 132.488281 118.609375 132.449219 118.808594 132.367188 119.003906 C 132.289062 119.195312 132.175781 119.367188 132.027344 119.515625 C 131.878906 119.660156 131.707031 119.777344 131.511719 119.855469 C 131.320312 119.9375 131.117188 119.976562 130.910156 119.976562 C 130.699219 119.976562 130.496094 119.9375 130.304688 119.855469 C 130.109375 119.777344 129.941406 119.660156 129.792969 119.515625 C 129.644531 119.367188 129.527344 119.195312 129.449219 119.003906 C 129.367188 118.808594 129.328125 118.609375 129.328125 118.398438 C 129.328125 118.191406 129.367188 117.988281 129.449219 117.796875 C 129.527344 117.605469 129.644531 117.433594 129.792969 117.285156 C 129.941406 117.136719 130.109375 117.023438 130.304688 116.945312 C 130.496094 116.863281 130.699219 116.824219 130.910156 116.824219 C 131.117188 116.824219 131.320312 116.863281 131.511719 116.945312 C 131.707031 117.023438 131.878906 117.136719 132.027344 117.285156 C 132.175781 117.433594 132.289062 117.605469 132.367188 117.796875 C 132.449219 117.988281 132.488281 118.191406 132.488281 118.398438 Z M 132.488281 118.398438 " fill-opacity="1" fill-rule="nonzero"/><path fill="#2f2e41" d="M 130.910156 122.953125 C 130.609375 122.953125 130.3125 122.921875 130.019531 122.863281 C 129.722656 122.804688 129.4375 122.71875 129.160156 122.605469 C 128.886719 122.492188 128.621094 122.351562 128.371094 122.183594 C 128.125 122.019531 127.894531 121.832031 127.679688 121.617188 C 127.46875 121.40625 127.28125 121.175781 127.113281 120.929688 C 126.945312 120.679688 126.804688 120.417969 126.691406 120.140625 C 126.578125 119.867188 126.488281 119.582031 126.429688 119.289062 C 126.371094 118.996094 126.34375 118.699219 126.34375 118.398438 C 126.34375 118.101562 126.371094 117.804688 126.429688 117.511719 C 126.488281 117.21875 126.578125 116.933594 126.691406 116.65625 C 126.804688 116.382812 126.945312 116.121094 127.113281 115.871094 C 127.28125 115.621094 127.46875 115.394531 127.679688 115.179688 C 127.894531 114.96875 128.125 114.78125 128.371094 114.617188 C 128.621094 114.449219 128.886719 114.308594 129.160156 114.195312 C 129.4375 114.082031 129.722656 113.992188 130.019531 113.9375 C 130.3125 113.878906 130.609375 113.847656 130.910156 113.847656 C 131.207031 113.847656 131.503906 113.878906 131.800781 113.9375 C 132.09375 113.992188 132.378906 114.082031 132.65625 114.195312 C 132.933594 114.308594 133.195312 114.449219 133.445312 114.617188 C 133.695312 114.78125 133.925781 114.96875 134.136719 115.179688 C 134.347656 115.394531 134.539062 115.621094 134.703125 115.871094 C 134.871094 116.121094 135.011719 116.382812 135.125 116.65625 C 135.242188 116.933594 135.328125 117.21875 135.386719 117.511719 C 135.445312 117.804688 135.472656 118.101562 135.472656 118.398438 C 135.472656 118.699219 135.445312 118.996094 135.386719 119.289062 C 135.328125 119.582031 135.238281 119.867188 135.125 120.140625 C 135.011719 120.417969 134.871094 120.679688 134.703125 120.929688 C 134.535156 121.175781 134.347656 121.40625 134.136719 121.617188 C 133.921875 121.828125 133.691406 122.015625 133.445312 122.183594 C 133.195312 122.347656 132.933594 122.488281 132.65625 122.605469 C 132.378906 122.71875 132.09375 122.804688 131.800781 122.863281 C 131.503906 122.921875 131.207031 122.953125 130.910156 122.953125 Z M 130.910156 114.199219 C 130.632812 114.199219 130.359375 114.226562 130.085938 114.277344 C 129.816406 114.332031 129.550781 114.414062 129.296875 114.519531 C 129.039062 114.625 128.796875 114.753906 128.566406 114.90625 C 128.335938 115.058594 128.125 115.234375 127.929688 115.429688 C 127.734375 115.625 127.558594 115.835938 127.40625 116.066406 C 127.25 116.296875 127.121094 116.539062 127.015625 116.792969 C 126.910156 117.046875 126.828125 117.308594 126.777344 117.582031 C 126.722656 117.851562 126.695312 118.125 126.695312 118.398438 C 126.695312 118.675781 126.722656 118.949219 126.777344 119.21875 C 126.828125 119.492188 126.910156 119.753906 127.015625 120.007812 C 127.121094 120.261719 127.25 120.503906 127.40625 120.734375 C 127.558594 120.964844 127.734375 121.175781 127.929688 121.371094 C 128.125 121.566406 128.335938 121.742188 128.566406 121.894531 C 128.796875 122.046875 129.039062 122.175781 129.296875 122.28125 C 129.550781 122.386719 129.816406 122.46875 130.085938 122.519531 C 130.359375 122.574219 130.632812 122.601562 130.910156 122.601562 C 131.183594 122.601562 131.460938 122.574219 131.730469 122.519531 C 132.003906 122.46875 132.265625 122.386719 132.519531 122.28125 C 132.777344 122.175781 133.019531 122.046875 133.25 121.894531 C 133.480469 121.742188 133.691406 121.566406 133.886719 121.371094 C 134.085938 121.175781 134.257812 120.964844 134.414062 120.734375 C 134.566406 120.503906 134.695312 120.261719 134.800781 120.007812 C 134.90625 119.753906 134.988281 119.492188 135.042969 119.21875 C 135.097656 118.949219 135.121094 118.675781 135.121094 118.398438 C 135.121094 118.125 135.09375 117.851562 135.042969 117.582031 C 134.988281 117.308594 134.90625 117.046875 134.800781 116.792969 C 134.695312 116.539062 134.566406 116.296875 134.410156 116.066406 C 134.257812 115.835938 134.082031 115.625 133.886719 115.429688 C 133.691406 115.234375 133.480469 115.0625 133.25 114.90625 C 133.019531 114.753906 132.777344 114.625 132.519531 114.519531 C 132.265625 114.414062 132 114.332031 131.730469 114.28125 C 131.460938 114.226562 131.183594 114.199219 130.910156 114.199219 Z M 130.910156 114.199219 " fill-opacity="1" fill-rule="nonzero"/></svg>