<svg xmlns="http://www.w3.org/2000/svg" xmlns:xlink="http://www.w3.org/1999/xlink" width="220" zoomAndPan="magnify" viewBox="0 0 165 165.000002" height="220" preserveAspectRatio="xMidYMid meet" version="1.0"><defs><clipPath id="id1"><path d="M 94 141 L 107 141 L 107 147.605469 L 94 147.605469 Z M 94 141 " clip-rule="nonzero"/></clipPath><clipPath id="id2"><path d="M 109 141 L 122 141 L 122 147.605469 L 109 147.605469 Z M 109 141 " clip-rule="nonzero"/></clipPath><clipPath id="id3"><path d="M 97 16.402344 L 116 16.402344 L 116 31 L 97 31 Z M 97 16.402344 " clip-rule="nonzero"/></clipPath><clipPath id="id4"><path d="M 32.523438 146 L 132.417969 146 L 132.417969 147.605469 L 32.523438 147.605469 Z M 32.523438 146 " clip-rule="nonzero"/></clipPath></defs><path fill="#a0616a" d="M 105.878906 145.058594 L 102.625 145.058594 L 101.074219 132.503906 L 105.878906 132.503906 Z M 105.878906 145.058594 " fill-opacity="1" fill-rule="nonzero"/><g clip-path="url(#id1)"><path fill="#2f2e41" d="M 94.730469 144.984375 C 94.628906 145.15625 94.574219 145.707031 94.574219 145.90625 C 94.574219 146.515625 95.070312 147.011719 95.679688 147.011719 L 105.753906 147.011719 C 106.171875 147.011719 106.507812 146.675781 106.507812 146.257812 L 106.507812 145.839844 C 106.507812 145.839844 107.007812 144.578125 105.980469 143.023438 C 105.980469 143.023438 104.707031 144.238281 102.800781 142.332031 L 102.238281 141.3125 L 98.167969 144.289062 L 95.914062 144.566406 C 95.421875 144.628906 94.984375 144.558594 94.730469 144.984375 Z M 94.730469 144.984375 " fill-opacity="1" fill-rule="nonzero"/></g><path fill="#a0616a" d="M 120.964844 145.058594 L 117.710938 145.058594 L 116.164062 132.503906 L 120.96875 132.503906 Z M 120.964844 145.058594 " fill-opacity="1" fill-rule="nonzero"/><g clip-path="url(#id2)"><path fill="#2f2e41" d="M 109.820312 144.984375 C 109.71875 145.15625 109.664062 145.707031 109.664062 145.90625 C 109.664062 146.515625 110.160156 147.011719 110.769531 147.011719 L 120.84375 147.011719 C 121.261719 147.011719 121.597656 146.675781 121.597656 146.257812 L 121.597656 145.839844 C 121.597656 145.839844 122.097656 144.578125 121.070312 143.023438 C 121.070312 143.023438 119.792969 144.238281 117.890625 142.332031 L 117.328125 141.3125 L 113.257812 144.289062 L 111.003906 144.566406 C 110.511719 144.628906 110.074219 144.558594 109.820312 144.984375 Z M 109.820312 144.984375 " fill-opacity="1" fill-rule="nonzero"/></g><path fill="#e6e6e6" d="M 103.539062 38.40625 C 102.839844 37.859375 102.113281 37.28125 101.753906 36.472656 C 101.390625 35.664062 101.535156 34.554688 102.304688 34.109375 C 103.335938 33.511719 104.691406 34.429688 105.820312 34.035156 C 106.582031 33.765625 107.015625 32.980469 107.429688 32.285156 C 107.847656 31.589844 108.429688 30.855469 109.242188 30.820312 C 110.285156 30.773438 111.015625 31.902344 112.03125 32.148438 C 113.171875 32.421875 114.3125 31.523438 115.476562 31.652344 C 116.546875 31.769531 117.378906 32.808594 117.433594 33.882812 C 117.488281 34.960938 116.863281 36 115.988281 36.621094 C 114.789062 37.476562 113.246094 37.617188 111.78125 37.726562 L 103.535156 38.355469 " fill-opacity="1" fill-rule="nonzero"/><path fill="#a0616a" d="M 114.644531 25.949219 C 114.644531 26.4375 114.597656 26.921875 114.5 27.398438 C 114.40625 27.878906 114.265625 28.34375 114.078125 28.796875 C 113.890625 29.25 113.660156 29.675781 113.390625 30.082031 C 113.117188 30.488281 112.808594 30.867188 112.464844 31.210938 C 112.121094 31.558594 111.742188 31.867188 111.335938 32.136719 C 110.929688 32.410156 110.503906 32.636719 110.050781 32.824219 C 109.601562 33.011719 109.136719 33.152344 108.65625 33.25 C 108.175781 33.34375 107.695312 33.390625 107.203125 33.390625 C 106.714844 33.390625 106.234375 33.34375 105.753906 33.25 C 105.273438 33.152344 104.808594 33.011719 104.359375 32.824219 C 103.90625 32.636719 103.480469 32.410156 103.074219 32.136719 C 102.667969 31.867188 102.289062 31.558594 101.945312 31.210938 C 101.601562 30.867188 101.292969 30.488281 101.019531 30.082031 C 100.75 29.675781 100.519531 29.25 100.332031 28.796875 C 100.144531 28.34375 100.003906 27.878906 99.910156 27.398438 C 99.8125 26.921875 99.765625 26.4375 99.765625 25.949219 C 99.765625 25.460938 99.8125 24.976562 99.910156 24.496094 C 100.003906 24.015625 100.144531 23.550781 100.332031 23.101562 C 100.519531 22.648438 100.75 22.21875 101.019531 21.8125 C 101.292969 21.40625 101.601562 21.03125 101.945312 20.683594 C 102.289062 20.339844 102.667969 20.03125 103.074219 19.761719 C 103.480469 19.488281 103.90625 19.257812 104.359375 19.070312 C 104.808594 18.886719 105.273438 18.742188 105.753906 18.648438 C 106.234375 18.554688 106.714844 18.503906 107.203125 18.503906 C 107.695312 18.503906 108.175781 18.554688 108.65625 18.648438 C 109.136719 18.742188 109.601562 18.886719 110.050781 19.070312 C 110.503906 19.257812 110.929688 19.488281 111.335938 19.761719 C 111.742188 20.03125 112.121094 20.339844 112.464844 20.683594 C 112.808594 21.03125 113.117188 21.40625 113.390625 21.8125 C 113.660156 22.21875 113.890625 22.648438 114.078125 23.101562 C 114.265625 23.550781 114.40625 24.015625 114.5 24.496094 C 114.597656 24.976562 114.644531 25.460938 114.644531 25.949219 Z M 114.644531 25.949219 " fill-opacity="1" fill-rule="nonzero"/><g clip-path="url(#id3)"><path fill="#2f2e41" d="M 111.179688 27.859375 L 113.464844 30.785156 C 113.464844 30.785156 116.835938 25.230469 114.257812 21.542969 C 114.257812 21.542969 113.03125 20.316406 113.128906 19.34375 C 113.222656 18.371094 111.050781 16.808594 109.542969 17.148438 C 108.039062 17.492188 108.269531 16.410156 108.269531 16.410156 L 106.730469 17.117188 L 105.695312 16.402344 L 104.871094 17.300781 C 104.871094 17.300781 99.910156 17.910156 100.929688 21.203125 C 100.929688 21.203125 96.476562 22.84375 98.035156 24.472656 C 99.589844 26.097656 101.566406 25.925781 102.101562 25.488281 C 102.632812 25.050781 107.171875 25.007812 107.171875 25.007812 L 107.441406 27.242188 L 109.503906 26.222656 C 109.503906 26.222656 111.652344 25.574219 111.179688 27.859375 Z M 111.179688 27.859375 " fill-opacity="1" fill-rule="nonzero"/></g><path fill="#3f3d56" d="M 56.074219 63.894531 C 55.933594 63.894531 55.792969 63.839844 55.6875 63.734375 C 55.472656 63.519531 55.472656 63.171875 55.6875 62.957031 L 62.976562 55.664062 C 63.523438 55.117188 63.78125 54.359375 63.6875 53.589844 L 63.328125 50.714844 C 63.289062 50.414062 63.503906 50.136719 63.804688 50.101562 C 64.105469 50.0625 64.378906 50.277344 64.417969 50.578125 L 64.777344 53.453125 C 64.914062 54.5625 64.542969 55.652344 63.753906 56.441406 L 56.460938 63.734375 C 56.355469 63.839844 56.214844 63.894531 56.074219 63.894531 Z M 56.074219 63.894531 " fill-opacity="1" fill-rule="nonzero"/><path fill="#3f3d56" d="M 58.59375 48.464844 L 64.902344 47.769531 L 65.339844 51.734375 L 59.03125 52.433594 Z M 58.59375 48.464844 " fill-opacity="1" fill-rule="nonzero"/><path fill="#3f3d56" d="M 53.535156 49.738281 L 59.882812 49.738281 L 59.882812 51.734375 L 53.535156 51.734375 Z M 53.535156 49.738281 " fill-opacity="1" fill-rule="nonzero"/><path fill="#3f3d56" d="M 55.871094 51.289062 L 50.652344 53.15625 C 49.582031 53.542969 48.394531 52.992188 47.992188 51.921875 L 41.0625 53.925781 C 40.789062 54.011719 40.511719 54.050781 40.246094 54.058594 C 39.957031 54.074219 39.691406 54.109375 39.445312 54.15625 C 38.234375 54.378906 38.214844 54.355469 37.992188 52.910156 C 37.988281 52.882812 36.902344 49.644531 36.894531 49.617188 C 36.742188 48.5625 36.75 48.292969 37.554688 47.972656 C 37.921875 47.832031 38.351562 47.695312 38.800781 47.507812 C 38.84375 47.488281 38.886719 47.46875 38.9375 47.449219 L 45.820312 44.917969 L 45.820312 43.957031 L 44.621094 43.957031 L 43.894531 42.261719 L 50.328125 39.355469 C 51.003906 39.050781 51.765625 38.984375 52.484375 39.164062 C 53.039062 39.300781 53.539062 39.578125 53.9375 39.960938 C 54.34375 40.339844 54.652344 40.816406 54.828125 41.363281 L 55 41.917969 L 56.78125 47.503906 L 57.160156 48.683594 C 57.503906 49.757812 56.933594 50.910156 55.871094 51.289062 Z M 55.871094 51.289062 " fill-opacity="1" fill-rule="nonzero"/><path fill="#2f2e41" d="M 97.847656 82.691406 L 100.542969 137.460938 L 106.855469 137.183594 L 111.121094 94.835938 L 115.910156 137.460938 L 121.394531 136.910156 L 125.191406 85.3125 Z M 97.847656 82.691406 " fill-opacity="1" fill-rule="nonzero"/><path fill="#e6e6e6" d="M 114.914062 34.171875 C 110.527344 34.613281 106.828125 35.671875 104.015625 35.6875 L 96.980469 39.140625 L 98.324219 63.351562 L 97.644531 83.085938 C 97.644531 83.085938 109.121094 85.933594 116.570312 87.175781 C 124.019531 88.417969 125.695312 87.175781 125.695312 87.175781 L 121.785156 69.816406 L 120.425781 36.136719 Z M 114.914062 34.171875 " fill-opacity="1" fill-rule="nonzero"/><path fill="#a0616a" d="M 127.054688 67.917969 L 127.226562 54.449219 L 122.058594 53.027344 L 122.214844 67.921875 L 121.027344 78.929688 L 121.054688 78.941406 C 120.558594 79.441406 120.152344 80.242188 119.980469 81.1875 C 119.667969 82.914062 120.242188 84.464844 121.269531 84.652344 C 122.292969 84.839844 123.378906 83.589844 123.691406 81.863281 C 123.820312 81.15625 123.796875 80.476562 123.65625 79.910156 L 123.703125 79.929688 Z M 127.054688 67.917969 " fill-opacity="1" fill-rule="nonzero"/><path fill="#a0616a" d="M 86.054688 68.621094 L 97.625 61.738281 L 96.140625 56.585938 L 83.527344 64.496094 L 73.523438 69.226562 L 73.53125 69.257812 C 72.84375 69.09375 71.949219 69.167969 71.050781 69.515625 C 69.417969 70.148438 68.394531 71.449219 68.769531 72.421875 C 69.148438 73.394531 70.777344 73.667969 72.414062 73.035156 C 73.085938 72.773438 73.648438 72.402344 74.058594 71.984375 L 74.070312 72.03125 Z M 86.054688 68.621094 " fill-opacity="1" fill-rule="nonzero"/><path fill="#e6e6e6" d="M 117.65625 36.253906 C 117.65625 36.253906 120 34.460938 121.65625 37.082031 C 123.3125 39.707031 127.863281 52.957031 127.863281 52.957031 C 127.863281 52.957031 129.179688 59.03125 128.867188 59.929688 C 128.554688 60.824219 128.140625 68.722656 128.140625 68.722656 L 121.671875 67.550781 L 121.828125 59.929688 L 115.664062 50.085938 Z M 117.65625 36.253906 " fill-opacity="1" fill-rule="nonzero"/><path fill="#e6e6e6" d="M 98.84375 39.207031 C 98.84375 39.207031 94.292969 38.898438 93.738281 41.882812 C 93.1875 44.867188 89.738281 58.808594 89.738281 58.808594 L 82.566406 63.363281 L 85.574219 69.742188 C 85.574219 69.742188 87.394531 68.472656 88.910156 68.472656 C 90.429688 68.472656 93.738281 66.144531 93.738281 66.144531 C 93.738281 66.144531 99.683594 60.917969 99.683594 59.949219 C 99.683594 58.984375 98.84375 39.207031 98.84375 39.207031 Z M 98.84375 39.207031 " fill-opacity="1" fill-rule="nonzero"/><path fill="#3f3d56" d="M 58.839844 60.289062 L 60.753906 58.496094 L 81.394531 80.605469 L 79.480469 82.394531 Z M 58.839844 60.289062 " fill-opacity="1" fill-rule="nonzero"/><path fill="#9e30ff" d="M 47.152344 40.929688 C 47.222656 41.105469 47.179688 41.292969 47.023438 41.5 C 46.867188 41.707031 46.644531 41.867188 46.355469 41.980469 C 46.0625 42.097656 45.792969 42.136719 45.539062 42.09375 C 45.285156 42.054688 45.121094 41.945312 45.050781 41.773438 C 44.980469 41.597656 45.023438 41.410156 45.179688 41.203125 C 45.335938 41 45.558594 40.835938 45.847656 40.722656 C 46.140625 40.605469 46.410156 40.566406 46.664062 40.609375 C 46.921875 40.648438 47.082031 40.757812 47.152344 40.929688 Z M 47.152344 40.929688 " fill-opacity="1" fill-rule="nonzero"/><path fill="#9e30ff" d="M 104.261719 36.160156 C 104.03125 36.21875 103.84375 36.410156 103.785156 36.640625 C 103.757812 36.75 103.757812 36.855469 103.777344 36.953125 C 103.9375 37.730469 104.101562 38.503906 104.101562 39.296875 L 104.101562 52.871094 C 104.101562 53.023438 104.226562 53.148438 104.378906 53.148438 L 104.507812 53.148438 C 104.660156 53.148438 104.78125 53.023438 104.78125 52.871094 L 104.78125 39.75 C 104.78125 38.796875 104.964844 37.863281 105.113281 36.921875 C 105.121094 36.886719 105.125 36.851562 105.125 36.816406 C 105.125 36.382812 104.714844 36.042969 104.261719 36.160156 Z M 104.261719 36.160156 " fill-opacity="1" fill-rule="nonzero"/><path fill="#9e30ff" d="M 112.421875 35.140625 C 112.191406 35.199219 112.003906 35.390625 111.945312 35.621094 C 111.917969 35.730469 111.917969 35.835938 111.9375 35.933594 C 112.097656 36.710938 112.261719 37.484375 112.261719 38.277344 L 112.261719 51.511719 C 112.261719 51.664062 112.386719 51.785156 112.539062 51.785156 L 112.667969 51.785156 C 112.820312 51.785156 112.945312 51.664062 112.945312 51.511719 L 112.945312 38.730469 C 112.945312 37.777344 113.128906 36.84375 113.273438 35.902344 C 113.28125 35.867188 113.285156 35.832031 113.285156 35.796875 C 113.285156 35.359375 112.875 35.019531 112.421875 35.140625 Z M 112.421875 35.140625 " fill-opacity="1" fill-rule="nonzero"/><path fill="#f2f2f2" d="M 56.863281 142.398438 C 56.296875 142.433594 55.984375 141.730469 56.410156 141.320312 L 56.453125 141.148438 C 56.449219 141.136719 56.441406 141.121094 56.4375 141.109375 C 55.863281 139.738281 54.835938 141.03125 53.351562 141.125 C 51.171875 141.257812 51.203125 142.910156 52.046875 144.839844 C 52.277344 145.363281 50.332031 141.136719 50.332031 138.300781 C 50.332031 137.585938 50.371094 136.875 50.449219 136.164062 C 50.515625 135.582031 50.605469 135.003906 50.722656 134.429688 C 51.355469 131.335938 52.726562 128.386719 54.703125 125.921875 C 55.652344 125.402344 56.441406 124.59375 56.921875 123.617188 C 57.09375 123.265625 58.570312 122.972656 58.632812 122.585938 C 58.527344 122.601562 56.882812 120.871094 56.964844 120.769531 C 56.816406 120.542969 56.546875 120.429688 56.382812 120.207031 C 55.5625 119.09375 54.4375 119.289062 53.847656 120.796875 C 52.589844 121.433594 52.578125 122.484375 53.347656 123.5 C 53.839844 124.140625 53.90625 125.015625 54.339844 125.703125 C 54.292969 125.761719 54.246094 125.816406 54.203125 125.871094 C 54.1875 125.894531 54.167969 125.914062 54.152344 125.9375 C 53.457031 126.835938 52.070312 126.605469 51.683594 125.539062 C 51.65625 125.460938 51.414062 129.683594 51.59375 125.3125 C 51.773438 120.9375 50.203125 123.164062 49.40625 122.15625 C 48.457031 120.953125 46.523438 121.5 46.355469 123.023438 C 46.355469 123.039062 46.351562 123.054688 46.351562 123.070312 C 46.46875 123.136719 46.585938 123.207031 46.699219 123.28125 C 47.339844 123.707031 47.117188 124.699219 46.355469 124.816406 L 46.339844 124.820312 C 46.382812 125.246094 46.453125 125.664062 46.5625 126.078125 C 45.546875 130.007812 47.738281 131.4375 50.867188 131.503906 L 51.03125 131.734375 C 50.734375 132.589844 50.496094 133.460938 50.316406 134.347656 C 50.148438 135.167969 50.03125 135.996094 49.964844 136.832031 L 49.960938 136.867188 C 49.90625 137.574219 49.011719 137.878906 48.5625 137.328125 C 48.445312 137.1875 48.328125 137.066406 48.210938 136.96875 C 46.855469 135.851562 44.9375 135.441406 43.472656 134.546875 C 42.769531 134.113281 41.867188 134.671875 41.988281 135.488281 L 41.996094 135.527344 C 42.210938 135.617188 42.425781 135.71875 42.628906 135.835938 C 42.75 135.902344 42.863281 135.972656 42.976562 136.046875 C 43.617188 136.472656 43.394531 137.46875 42.636719 137.582031 L 42.617188 137.585938 C 42.605469 137.589844 42.59375 137.589844 42.582031 137.59375 L 42.59375 137.617188 C 43.082031 138.769531 44.253906 139.515625 45.503906 139.449219 C 46.972656 139.367188 48.796875 140.597656 50.410156 142.773438 C 50.730469 144.164062 51.195312 145.519531 51.796875 146.816406 L 56.738281 146.816406 C 56.757812 146.761719 56.773438 146.703125 56.789062 146.648438 C 56.332031 146.675781 55.871094 146.648438 55.421875 146.566406 C 55.789062 146.117188 56.15625 145.664062 56.519531 145.210938 C 56.53125 145.203125 56.539062 145.195312 56.542969 145.1875 C 56.730469 144.957031 56.917969 144.726562 57.105469 144.496094 C 57.117188 143.789062 57.03125 143.082031 56.863281 142.398438 Z M 56.863281 142.398438 " fill-opacity="1" fill-rule="nonzero"/><g clip-path="url(#id4)"><path fill="#cccccc" d="M 32.582031 147.277344 C 32.582031 147.460938 32.730469 147.605469 32.910156 147.605469 L 132.03125 147.605469 C 132.210938 147.605469 132.355469 147.460938 132.355469 147.277344 C 132.355469 147.097656 132.210938 146.953125 132.03125 146.953125 L 32.910156 146.953125 C 32.730469 146.953125 32.582031 147.097656 32.582031 147.277344 Z M 32.582031 147.277344 " fill-opacity="1" fill-rule="nonzero"/></g><path fill="#9e30ff" d="M 39.996094 51.988281 C 39.996094 52.773438 39.796875 53.511719 39.441406 54.160156 C 38.234375 54.378906 37.5 54.796875 37.28125 53.347656 C 37.273438 53.320312 36.378906 49.753906 36.375 49.726562 C 36.222656 48.671875 36.75 48.296875 37.554688 47.976562 C 39.003906 48.726562 39.996094 50.242188 39.996094 51.988281 Z M 39.996094 51.988281 " fill-opacity="1" fill-rule="nonzero"/><path fill="#9e30ff" d="M 56.78125 47.503906 L 55.5 47.796875 C 54.796875 47.953125 54.097656 47.515625 53.9375 46.8125 L 53.222656 43.660156 C 53.0625 42.953125 53.503906 42.257812 54.210938 42.097656 L 55 41.917969 Z M 56.78125 47.503906 " fill-opacity="1" fill-rule="nonzero"/></svg>