<svg xmlns="http://www.w3.org/2000/svg" xmlns:xlink="http://www.w3.org/1999/xlink" width="220" zoomAndPan="magnify" viewBox="0 0 165 165.000002" height="220" preserveAspectRatio="xMidYMid meet" version="1.0"><defs><clipPath id="id1"><path d="M 118 86 L 164.503906 86 L 164.503906 144.765625 L 118 144.765625 Z M 118 86 " clip-rule="nonzero"/></clipPath><clipPath id="id2"><path d="M 0.496094 19.523438 L 164.503906 19.523438 L 164.503906 144.765625 L 0.496094 144.765625 Z M 0.496094 19.523438 " clip-rule="nonzero"/></clipPath><clipPath id="id3"><path d="M 128 140 L 136 140 L 136 144.765625 L 128 144.765625 Z M 128 140 " clip-rule="nonzero"/></clipPath><clipPath id="id4"><path d="M 136 140 L 144 140 L 144 144.765625 L 136 144.765625 Z M 136 140 " clip-rule="nonzero"/></clipPath></defs><g clip-path="url(#id1)"><path fill="#f2f2f2" d="M 164.5 86.769531 L 164.5 139.382812 C 164.496094 139.738281 164.464844 140.085938 164.394531 140.433594 C 164.324219 140.78125 164.222656 141.117188 164.085938 141.441406 C 163.953125 141.769531 163.789062 142.078125 163.589844 142.371094 C 163.394531 142.664062 163.171875 142.9375 162.921875 143.1875 C 162.675781 143.4375 162.402344 143.660156 162.109375 143.855469 C 161.816406 144.054688 161.507812 144.21875 161.183594 144.355469 C 160.855469 144.488281 160.519531 144.59375 160.175781 144.660156 C 159.832031 144.730469 159.480469 144.765625 159.128906 144.765625 L 118.867188 144.765625 L 119.238281 144.292969 L 164.023438 87.371094 Z M 164.5 86.769531 " fill-opacity="1" fill-rule="nonzero"/></g><path fill="#e6e6e6" d="M 64.589844 68.238281 L 18.355469 68.238281 C 18.164062 68.238281 17.984375 68.273438 17.808594 68.347656 C 17.632812 68.417969 17.480469 68.523438 17.34375 68.65625 C 17.210938 68.792969 17.109375 68.945312 17.035156 69.121094 C 16.964844 69.296875 16.925781 69.480469 16.925781 69.667969 C 16.925781 69.859375 16.964844 70.042969 17.035156 70.21875 C 17.109375 70.394531 17.210938 70.546875 17.34375 70.683594 C 17.480469 70.816406 17.632812 70.917969 17.808594 70.992188 C 17.984375 71.066406 18.164062 71.101562 18.355469 71.101562 L 64.589844 71.101562 C 64.777344 71.101562 64.960938 71.066406 65.136719 70.992188 C 65.308594 70.917969 65.464844 70.816406 65.597656 70.683594 C 65.734375 70.546875 65.835938 70.394531 65.910156 70.21875 C 65.980469 70.042969 66.015625 69.859375 66.015625 69.667969 C 66.015625 69.480469 65.980469 69.296875 65.910156 69.121094 C 65.835938 68.945312 65.734375 68.792969 65.597656 68.65625 C 65.464844 68.523438 65.308594 68.417969 65.136719 68.347656 C 64.960938 68.273438 64.777344 68.238281 64.589844 68.238281 Z M 64.589844 68.238281 " fill-opacity="1" fill-rule="nonzero"/><path fill="#e6e6e6" d="M 32.691406 60.210938 L 18.355469 60.210938 C 18.164062 60.210938 17.984375 60.246094 17.808594 60.320312 C 17.632812 60.390625 17.480469 60.496094 17.34375 60.628906 C 17.210938 60.761719 17.109375 60.917969 17.035156 61.09375 C 16.964844 61.269531 16.925781 61.453125 16.925781 61.640625 C 16.925781 61.832031 16.964844 62.015625 17.035156 62.1875 C 17.109375 62.363281 17.210938 62.519531 17.34375 62.652344 C 17.480469 62.789062 17.632812 62.890625 17.808594 62.964844 C 17.984375 63.035156 18.164062 63.074219 18.355469 63.074219 L 32.691406 63.074219 C 32.878906 63.074219 33.0625 63.035156 33.238281 62.964844 C 33.410156 62.890625 33.566406 62.789062 33.699219 62.652344 C 33.832031 62.519531 33.9375 62.363281 34.007812 62.1875 C 34.082031 62.015625 34.117188 61.832031 34.117188 61.640625 C 34.117188 61.453125 34.082031 61.269531 34.007812 61.09375 C 33.9375 60.917969 33.832031 60.761719 33.699219 60.628906 C 33.566406 60.496094 33.410156 60.390625 33.238281 60.320312 C 33.0625 60.246094 32.878906 60.210938 32.691406 60.210938 Z M 32.691406 60.210938 " fill-opacity="1" fill-rule="nonzero"/><g clip-path="url(#id2)"><path fill="#e6e6e6" d="M 159.128906 19.523438 L 5.871094 19.523438 C 5.519531 19.523438 5.167969 19.558594 4.824219 19.628906 C 4.480469 19.699219 4.144531 19.800781 3.816406 19.9375 C 3.492188 20.070312 3.183594 20.238281 2.890625 20.433594 C 2.597656 20.628906 2.324219 20.851562 2.078125 21.101562 C 1.828125 21.351562 1.605469 21.625 1.410156 21.917969 C 1.210938 22.210938 1.046875 22.523438 0.914062 22.847656 C 0.777344 23.175781 0.675781 23.511719 0.605469 23.855469 C 0.535156 24.203125 0.503906 24.554688 0.5 24.90625 L 0.5 139.382812 C 0.503906 139.738281 0.535156 140.085938 0.605469 140.433594 C 0.675781 140.78125 0.777344 141.117188 0.914062 141.441406 C 1.046875 141.769531 1.210938 142.078125 1.410156 142.371094 C 1.605469 142.664062 1.828125 142.9375 2.078125 143.1875 C 2.324219 143.4375 2.597656 143.660156 2.890625 143.855469 C 3.183594 144.054688 3.492188 144.21875 3.816406 144.355469 C 4.144531 144.488281 4.480469 144.589844 4.824219 144.660156 C 5.167969 144.730469 5.519531 144.765625 5.871094 144.765625 L 159.128906 144.765625 C 159.480469 144.765625 159.832031 144.730469 160.175781 144.660156 C 160.519531 144.59375 160.855469 144.488281 161.183594 144.355469 C 161.507812 144.21875 161.816406 144.054688 162.109375 143.855469 C 162.402344 143.660156 162.675781 143.4375 162.921875 143.1875 C 163.171875 142.9375 163.394531 142.664062 163.589844 142.371094 C 163.789062 142.078125 163.953125 141.769531 164.085938 141.441406 C 164.222656 141.117188 164.324219 140.78125 164.394531 140.433594 C 164.464844 140.085938 164.496094 139.738281 164.5 139.382812 L 164.5 24.90625 C 164.496094 24.554688 164.464844 24.203125 164.394531 23.855469 C 164.324219 23.511719 164.222656 23.175781 164.085938 22.847656 C 163.953125 22.523438 163.789062 22.210938 163.589844 21.917969 C 163.394531 21.625 163.171875 21.351562 162.921875 21.101562 C 162.675781 20.851562 162.402344 20.628906 162.109375 20.433594 C 161.816406 20.238281 161.507812 20.070312 161.183594 19.9375 C 160.855469 19.800781 160.519531 19.699219 160.175781 19.628906 C 159.832031 19.558594 159.480469 19.523438 159.128906 19.523438 Z M 164.023438 139.382812 C 164.023438 139.707031 163.992188 140.023438 163.929688 140.339844 C 163.867188 140.65625 163.773438 140.964844 163.652344 141.261719 C 163.527344 141.558594 163.378906 141.84375 163.199219 142.109375 C 163.019531 142.378906 162.816406 142.625 162.589844 142.855469 C 162.363281 143.082031 162.117188 143.285156 161.847656 143.464844 C 161.582031 143.644531 161.300781 143.792969 161.003906 143.917969 C 160.707031 144.039062 160.398438 144.132812 160.082031 144.195312 C 159.769531 144.257812 159.449219 144.292969 159.128906 144.292969 L 5.871094 144.292969 C 5.550781 144.292969 5.230469 144.257812 4.917969 144.195312 C 4.601562 144.132812 4.292969 144.039062 3.996094 143.917969 C 3.699219 143.792969 3.417969 143.644531 3.152344 143.464844 C 2.882812 143.285156 2.636719 143.082031 2.410156 142.855469 C 2.183594 142.625 1.980469 142.378906 1.800781 142.109375 C 1.621094 141.84375 1.472656 141.558594 1.347656 141.261719 C 1.226562 140.964844 1.132812 140.65625 1.070312 140.339844 C 1.007812 140.023438 0.976562 139.707031 0.976562 139.382812 L 0.976562 56.925781 C 0.976562 55.714844 1.035156 54.507812 1.152344 53.304688 C 1.269531 52.101562 1.449219 50.90625 1.683594 49.722656 C 1.917969 48.535156 2.210938 47.363281 2.5625 46.207031 C 2.910156 45.046875 3.316406 43.910156 3.78125 42.792969 C 4.242188 41.675781 4.757812 40.585938 5.324219 39.519531 C 5.894531 38.453125 6.511719 37.414062 7.183594 36.410156 C 7.855469 35.40625 8.570312 34.433594 9.335938 33.5 C 10.101562 32.566406 10.910156 31.667969 11.765625 30.8125 C 12.617188 29.960938 13.511719 29.148438 14.445312 28.378906 C 15.375 27.613281 16.34375 26.894531 17.347656 26.222656 C 18.351562 25.550781 19.386719 24.929688 20.449219 24.359375 C 21.511719 23.789062 22.601562 23.273438 23.71875 22.808594 C 24.832031 22.347656 25.964844 21.941406 27.121094 21.589844 C 28.277344 21.238281 29.445312 20.945312 30.628906 20.707031 C 31.8125 20.472656 33.003906 20.296875 34.203125 20.175781 C 35.40625 20.058594 36.609375 20 37.816406 20 L 159.128906 20 C 159.449219 20 159.769531 20.03125 160.082031 20.09375 C 160.398438 20.15625 160.707031 20.25 161.003906 20.371094 C 161.300781 20.496094 161.582031 20.648438 161.847656 20.824219 C 162.117188 21.003906 162.363281 21.207031 162.589844 21.4375 C 162.816406 21.664062 163.019531 21.910156 163.199219 22.179688 C 163.378906 22.449219 163.527344 22.730469 163.652344 23.027344 C 163.773438 23.328125 163.867188 23.632812 163.929688 23.949219 C 163.992188 24.265625 164.023438 24.585938 164.023438 24.90625 Z M 164.023438 139.382812 " fill-opacity="1" fill-rule="nonzero"/></g><path fill="#e6e6e6" d="M 149.5625 40.222656 L 15.449219 40.222656 C 15.289062 40.222656 15.210938 40.144531 15.210938 39.988281 C 15.210938 39.828125 15.289062 39.75 15.449219 39.75 L 149.5625 39.75 C 149.722656 39.75 149.800781 39.828125 149.800781 39.988281 C 149.800781 40.144531 149.722656 40.222656 149.5625 40.222656 Z M 149.5625 40.222656 " fill-opacity="1" fill-rule="nonzero"/><path fill="#e6e6e6" d="M 24.160156 31.054688 C 24.160156 31.324219 24.109375 31.585938 24.007812 31.835938 C 23.90625 32.089844 23.761719 32.3125 23.574219 32.503906 C 23.386719 32.695312 23.167969 32.84375 22.925781 32.949219 C 22.679688 33.050781 22.425781 33.105469 22.160156 33.105469 C 21.894531 33.105469 21.636719 33.050781 21.394531 32.949219 C 21.148438 32.84375 20.929688 32.695312 20.742188 32.503906 C 20.554688 32.3125 20.410156 32.089844 20.308594 31.835938 C 20.207031 31.585938 20.15625 31.324219 20.15625 31.054688 C 20.15625 30.78125 20.207031 30.519531 20.308594 30.269531 C 20.410156 30.015625 20.554688 29.796875 20.742188 29.601562 C 20.929688 29.410156 21.148438 29.261719 21.394531 29.160156 C 21.636719 29.054688 21.894531 29.003906 22.160156 29.003906 C 22.425781 29.003906 22.679688 29.054688 22.925781 29.160156 C 23.167969 29.261719 23.386719 29.410156 23.574219 29.601562 C 23.761719 29.796875 23.90625 30.015625 24.007812 30.269531 C 24.109375 30.519531 24.160156 30.78125 24.160156 31.054688 Z M 24.160156 31.054688 " fill-opacity="1" fill-rule="nonzero"/><path fill="#e6e6e6" d="M 31.074219 31.054688 C 31.074219 31.324219 31.023438 31.585938 30.921875 31.835938 C 30.820312 32.089844 30.675781 32.3125 30.488281 32.503906 C 30.300781 32.695312 30.082031 32.84375 29.835938 32.949219 C 29.59375 33.050781 29.335938 33.105469 29.070312 33.105469 C 28.804688 33.105469 28.550781 33.050781 28.304688 32.949219 C 28.0625 32.84375 27.84375 32.695312 27.65625 32.503906 C 27.46875 32.3125 27.324219 32.089844 27.222656 31.835938 C 27.121094 31.585938 27.070312 31.324219 27.070312 31.054688 C 27.070312 30.78125 27.121094 30.519531 27.222656 30.269531 C 27.324219 30.015625 27.46875 29.796875 27.65625 29.601562 C 27.84375 29.410156 28.0625 29.261719 28.304688 29.160156 C 28.550781 29.054688 28.804688 29.003906 29.070312 29.003906 C 29.335938 29.003906 29.59375 29.054688 29.835938 29.160156 C 30.082031 29.261719 30.300781 29.410156 30.488281 29.601562 C 30.675781 29.796875 30.820312 30.015625 30.921875 30.269531 C 31.023438 30.519531 31.074219 30.78125 31.074219 31.054688 Z M 31.074219 31.054688 " fill-opacity="1" fill-rule="nonzero"/><path fill="#e6e6e6" d="M 37.988281 31.054688 C 37.988281 31.324219 37.9375 31.585938 37.835938 31.835938 C 37.734375 32.089844 37.585938 32.3125 37.398438 32.503906 C 37.210938 32.695312 36.996094 32.84375 36.75 32.949219 C 36.503906 33.050781 36.25 33.105469 35.984375 33.105469 C 35.71875 33.105469 35.464844 33.050781 35.21875 32.949219 C 34.972656 32.84375 34.757812 32.695312 34.570312 32.503906 C 34.382812 32.3125 34.238281 32.089844 34.136719 31.835938 C 34.035156 31.585938 33.984375 31.324219 33.984375 31.054688 C 33.984375 30.78125 34.035156 30.519531 34.136719 30.269531 C 34.238281 30.015625 34.382812 29.796875 34.570312 29.601562 C 34.757812 29.410156 34.972656 29.261719 35.21875 29.160156 C 35.464844 29.054688 35.71875 29.003906 35.984375 29.003906 C 36.25 29.003906 36.503906 29.054688 36.75 29.160156 C 36.996094 29.261719 37.210938 29.410156 37.398438 29.601562 C 37.585938 29.796875 37.734375 30.015625 37.835938 30.269531 C 37.9375 30.519531 37.988281 30.78125 37.988281 31.054688 Z M 37.988281 31.054688 " fill-opacity="1" fill-rule="nonzero"/><path fill="#e6e6e6" d="M 43.867188 32.675781 C 43.800781 32.675781 43.746094 32.648438 43.699219 32.601562 L 42.347656 31.21875 C 42.242188 31.109375 42.242188 30.996094 42.347656 30.886719 L 43.699219 29.503906 C 43.808594 29.386719 43.921875 29.386719 44.035156 29.5 C 44.148438 29.609375 44.148438 29.722656 44.039062 29.835938 L 42.847656 31.054688 L 44.039062 32.269531 C 44.109375 32.347656 44.128906 32.433594 44.085938 32.527344 C 44.046875 32.625 43.972656 32.675781 43.867188 32.675781 Z M 43.867188 32.675781 " fill-opacity="1" fill-rule="nonzero"/><path fill="#e6e6e6" d="M 46.136719 32.675781 C 46.03125 32.675781 45.960938 32.625 45.917969 32.527344 C 45.878906 32.433594 45.894531 32.347656 45.96875 32.269531 L 47.15625 31.054688 L 45.96875 29.835938 C 45.859375 29.722656 45.863281 29.609375 45.972656 29.5 C 46.085938 29.390625 46.195312 29.394531 46.304688 29.503906 L 47.65625 30.886719 C 47.765625 30.996094 47.765625 31.109375 47.65625 31.21875 L 46.304688 32.601562 C 46.261719 32.648438 46.203125 32.675781 46.136719 32.675781 Z M 46.136719 32.675781 " fill-opacity="1" fill-rule="nonzero"/><path fill="#e6e6e6" d="M 137.605469 29.238281 L 135.09375 29.238281 C 134.949219 29.238281 134.828125 29.289062 134.726562 29.390625 C 134.625 29.492188 134.574219 29.617188 134.574219 29.757812 L 134.574219 32.277344 C 134.574219 32.421875 134.625 32.542969 134.726562 32.644531 C 134.828125 32.746094 134.949219 32.796875 135.09375 32.796875 L 137.605469 32.796875 C 137.746094 32.796875 137.871094 32.746094 137.972656 32.644531 C 138.074219 32.542969 138.125 32.421875 138.125 32.277344 L 138.125 29.757812 C 138.125 29.617188 138.074219 29.492188 137.972656 29.390625 C 137.871094 29.289062 137.746094 29.238281 137.605469 29.238281 Z M 137.605469 29.238281 " fill-opacity="1" fill-rule="nonzero"/><path fill="#e6e6e6" d="M 131.449219 29.238281 L 128.941406 29.238281 C 128.796875 29.238281 128.675781 29.289062 128.574219 29.390625 C 128.472656 29.492188 128.421875 29.617188 128.421875 29.757812 L 128.421875 32.277344 C 128.421875 32.421875 128.472656 32.542969 128.574219 32.644531 C 128.675781 32.746094 128.796875 32.796875 128.941406 32.796875 L 131.449219 32.796875 C 131.59375 32.796875 131.714844 32.746094 131.820312 32.644531 C 131.921875 32.542969 131.972656 32.421875 131.972656 32.277344 L 131.972656 29.757812 C 131.972656 29.617188 131.921875 29.492188 131.820312 29.390625 C 131.714844 29.289062 131.59375 29.238281 131.449219 29.238281 Z M 131.449219 29.238281 " fill-opacity="1" fill-rule="nonzero"/><path fill="#e6e6e6" d="M 143.402344 29.359375 L 140.890625 29.359375 C 140.746094 29.359375 140.625 29.410156 140.523438 29.511719 C 140.421875 29.613281 140.371094 29.734375 140.371094 29.878906 L 140.371094 32.398438 C 140.371094 32.539062 140.421875 32.664062 140.523438 32.765625 C 140.625 32.867188 140.746094 32.917969 140.890625 32.917969 L 143.402344 32.917969 C 143.546875 32.917969 143.667969 32.867188 143.769531 32.765625 C 143.871094 32.664062 143.921875 32.539062 143.921875 32.398438 L 143.921875 29.878906 C 143.921875 29.734375 143.871094 29.613281 143.769531 29.511719 C 143.667969 29.410156 143.546875 29.359375 143.402344 29.359375 Z M 143.402344 29.359375 " fill-opacity="1" fill-rule="nonzero"/><path fill="#e6e6e6" d="M 92.539062 30.316406 L 72.472656 30.316406 C 72.296875 30.316406 72.148438 30.378906 72.023438 30.503906 C 71.902344 30.625 71.839844 30.773438 71.839844 30.949219 C 71.839844 31.125 71.902344 31.273438 72.023438 31.398438 C 72.148438 31.523438 72.296875 31.582031 72.472656 31.582031 L 92.539062 31.582031 C 92.714844 31.582031 92.863281 31.523438 92.988281 31.398438 C 93.109375 31.273438 93.171875 31.125 93.171875 30.949219 C 93.171875 30.773438 93.109375 30.625 92.988281 30.503906 C 92.863281 30.378906 92.714844 30.316406 92.539062 30.316406 Z M 92.539062 30.316406 " fill-opacity="1" fill-rule="nonzero"/><path fill="#9e30ff" d="M 38.746094 116.882812 L 26.742188 116.5 C 25.078125 116.449219 23.207031 116.453125 22.019531 117.3125 C 20.671875 118.292969 20.875 120.027344 21.996094 121.152344 C 23.113281 122.277344 24.902344 122.917969 26.652344 123.441406 C 35.96875 126.214844 46.277344 126.777344 56.289062 126.152344 C 66.300781 125.523438 76.101562 123.746094 85.859375 121.980469 C 86.785156 121.8125 87.832031 121.570312 88.210938 120.925781 C 88.574219 120.300781 88.097656 119.546875 87.355469 119.144531 C 86.613281 118.738281 85.671875 118.605469 84.765625 118.484375 C 68.289062 116.3125 51.761719 115.839844 35.1875 117.066406 " fill-opacity="1" fill-rule="nonzero"/><path fill="#3f3d56" d="M 60.308594 107.628906 L 60.308594 104.785156 C 58.25 104.8125 50.875 104.761719 48.949219 104.785156 C 48.808594 114.730469 47.929688 112.78125 56.0625 112.820312 C 56.25 112.824219 56.429688 112.859375 56.601562 112.929688 C 56.773438 113.003906 56.925781 113.105469 57.058594 113.238281 C 57.1875 113.371094 57.289062 113.523438 57.363281 113.695312 C 57.433594 113.871094 57.46875 114.050781 57.46875 114.238281 L 57.46875 114.28125 C 57.46875 114.46875 57.433594 114.648438 57.363281 114.820312 C 57.289062 114.996094 57.1875 115.148438 57.054688 115.28125 C 56.925781 115.414062 56.769531 115.515625 56.597656 115.585938 C 56.425781 115.660156 56.246094 115.695312 56.058594 115.695312 L 48.949219 115.695312 L 48.949219 118.539062 L 60.308594 118.539062 C 60.324219 118.53125 60.296875 115.792969 60.308594 115.695312 C 60.789062 107.449219 59.839844 110.414062 52.933594 110.082031 C 52.78125 110.074219 52.632812 110.039062 52.492188 109.972656 C 52.351562 109.910156 52.226562 109.820312 52.121094 109.707031 C 52.015625 109.597656 51.933594 109.46875 51.875 109.324219 C 51.820312 109.179688 51.789062 109.03125 51.789062 108.875 L 51.789062 108.839844 C 51.789062 108.679688 51.820312 108.523438 51.882812 108.375 C 51.945312 108.226562 52.03125 108.097656 52.144531 107.984375 C 52.257812 107.871094 52.386719 107.78125 52.535156 107.722656 C 52.683594 107.660156 52.835938 107.628906 52.996094 107.628906 Z M 60.308594 107.628906 " fill-opacity="1" fill-rule="nonzero"/><path fill="#3f3d56" d="M 74.273438 107.628906 L 74.273438 104.785156 C 72.210938 104.8125 64.835938 104.761719 62.914062 104.785156 C 62.769531 114.816406 61.875 112.75 70.238281 112.824219 C 70.394531 112.824219 70.550781 112.855469 70.695312 112.917969 C 70.84375 112.980469 70.972656 113.070312 71.082031 113.183594 C 71.195312 113.296875 71.28125 113.425781 71.339844 113.574219 C 71.402344 113.71875 71.433594 113.875 71.433594 114.03125 C 71.433594 114.183594 71.433594 114.335938 71.433594 114.484375 C 71.433594 114.644531 71.402344 114.800781 71.339844 114.949219 C 71.277344 115.097656 71.191406 115.226562 71.078125 115.339844 C 70.964844 115.453125 70.835938 115.539062 70.6875 115.601562 C 70.539062 115.664062 70.386719 115.695312 70.226562 115.695312 L 62.914062 115.695312 L 62.914062 118.539062 L 74.273438 118.539062 C 74.289062 118.53125 74.261719 115.792969 74.273438 115.695312 C 74.753906 107.449219 73.800781 110.414062 66.898438 110.082031 C 66.742188 110.074219 66.59375 110.039062 66.453125 109.972656 C 66.3125 109.910156 66.191406 109.820312 66.082031 109.707031 C 65.976562 109.597656 65.894531 109.46875 65.839844 109.324219 C 65.78125 109.179688 65.753906 109.03125 65.753906 108.875 L 65.753906 108.839844 C 65.753906 108.679688 65.78125 108.523438 65.84375 108.375 C 65.90625 108.226562 65.992188 108.097656 66.105469 107.984375 C 66.21875 107.871094 66.351562 107.78125 66.496094 107.722656 C 66.644531 107.660156 66.800781 107.628906 66.960938 107.628906 Z M 74.273438 107.628906 " fill-opacity="1" fill-rule="nonzero"/><path fill="#3f3d56" d="M 45.636719 107.628906 L 45.636719 104.785156 L 34.277344 104.785156 C 34.269531 107.320312 34.285156 114.042969 34.277344 116.644531 C 32.050781 120.421875 44.699219 117.804688 45.636719 118.542969 C 45.636719 118.539062 45.636719 115.695312 45.636719 115.695312 C 36.996094 115.648438 36.777344 117.269531 37.054688 109.425781 C 37.0625 109.183594 37.117188 108.953125 37.214844 108.734375 C 37.3125 108.511719 37.449219 108.320312 37.621094 108.152344 C 37.792969 107.984375 37.992188 107.855469 38.214844 107.765625 C 38.4375 107.675781 38.667969 107.628906 38.910156 107.628906 C 41.40625 107.628906 45.636719 107.628906 45.636719 107.628906 Z M 45.636719 107.628906 " fill-opacity="1" fill-rule="nonzero"/><path fill="#9e30ff" d="M 68.089844 82.882812 L 56.089844 82.566406 C 54.421875 82.523438 52.550781 82.523438 51.363281 83.242188 C 50.015625 84.058594 50.21875 85.503906 51.339844 86.441406 C 52.457031 87.378906 54.246094 87.914062 56 88.351562 C 65.3125 90.664062 75.621094 91.132812 85.632812 90.609375 C 95.644531 90.085938 105.449219 88.605469 115.203125 87.132812 C 116.128906 86.992188 117.175781 86.789062 117.554688 86.253906 C 117.917969 85.730469 117.441406 85.105469 116.699219 84.769531 C 115.957031 84.433594 115.019531 84.320312 114.109375 84.21875 C 97.617188 82.410156 81.09375 82.015625 64.53125 83.035156 " fill-opacity="1" fill-rule="nonzero"/><path fill="#3f3d56" d="M 65.988281 70.390625 C 65.796875 74.785156 67.40625 76.167969 61.847656 75.605469 C 61.472656 72.984375 63.375 69.347656 59.007812 70.269531 C 59.882812 72.171875 56.570312 86.601562 61.847656 84.027344 C 62.144531 79.691406 60.191406 77.792969 65.988281 78.453125 C 66.453125 81.132812 64.285156 85.078125 68.828125 84.148438 C 67.953125 82.242188 71.265625 67.816406 65.988281 70.390625 Z M 65.988281 70.390625 " fill-opacity="1" fill-rule="nonzero"/><path fill="#3f3d56" d="M 95.097656 70.390625 C 95.488281 70.628906 91.527344 74.832031 91.441406 75.175781 C 91.320312 74.882812 87.539062 70.773438 87.996094 70.390625 C 82.738281 67.785156 86.015625 82.296875 85.15625 84.148438 C 85.15625 84.148438 87.996094 84.148438 87.996094 84.148438 L 87.996094 75.132812 C 91.988281 80.53125 91.246094 79.621094 95.097656 74.867188 L 95.097656 84.148438 C 100.355469 86.753906 97.078125 72.238281 97.9375 70.390625 C 97.9375 70.390625 95.097656 70.390625 95.097656 70.390625 Z M 95.097656 70.390625 " fill-opacity="1" fill-rule="nonzero"/><path fill="#3f3d56" d="M 82.554688 70.390625 L 71.195312 70.390625 C 70.527344 74.378906 72.734375 73.042969 75.457031 73.234375 L 75.453125 84.148438 L 78.292969 84.148438 L 78.292969 73.234375 C 81.003906 73.050781 83.230469 74.363281 82.554688 70.390625 Z M 82.554688 70.390625 " fill-opacity="1" fill-rule="nonzero"/><path fill="#3f3d56" d="M 103.144531 81.300781 C 102.480469 77.664062 102.480469 74.027344 103.144531 70.390625 L 100.304688 70.390625 C 100.320312 72.191406 100.296875 79.46875 100.300781 82.796875 C 100.300781 82.976562 100.332031 83.148438 100.402344 83.316406 C 100.46875 83.480469 100.566406 83.628906 100.695312 83.753906 C 100.820312 83.882812 100.96875 83.980469 101.132812 84.050781 C 101.296875 84.117188 101.46875 84.152344 101.648438 84.152344 C 104.511719 84.15625 109.972656 84.136719 111.660156 84.148438 L 111.660156 81.300781 Z M 103.144531 81.300781 " fill-opacity="1" fill-rule="nonzero"/><path fill="#e6e6e6" d="M 30.597656 81.773438 L 19.054688 81.773438 C 18.773438 81.773438 18.503906 81.828125 18.242188 81.9375 C 17.980469 82.046875 17.75 82.199219 17.550781 82.398438 C 17.351562 82.601562 17.195312 82.832031 17.089844 83.09375 C 16.980469 83.355469 16.925781 83.625 16.925781 83.910156 C 16.925781 84.191406 16.980469 84.464844 17.089844 84.726562 C 17.195312 84.988281 17.351562 85.21875 17.550781 85.417969 C 17.75 85.621094 17.980469 85.773438 18.242188 85.882812 C 18.503906 85.992188 18.773438 86.042969 19.054688 86.042969 L 30.597656 86.042969 C 30.882812 86.042969 31.152344 85.992188 31.414062 85.882812 C 31.675781 85.773438 31.90625 85.621094 32.105469 85.417969 C 32.304688 85.21875 32.457031 84.988281 32.566406 84.726562 C 32.675781 84.464844 32.730469 84.191406 32.730469 83.910156 C 32.730469 83.625 32.675781 83.355469 32.566406 83.09375 C 32.457031 82.832031 32.304688 82.601562 32.105469 82.398438 C 31.90625 82.199219 31.675781 82.046875 31.414062 81.9375 C 31.152344 81.828125 30.882812 81.773438 30.597656 81.773438 Z M 30.597656 81.773438 " fill-opacity="1" fill-rule="nonzero"/><path fill="#ffb6b6" d="M 135.246094 142.292969 L 132.902344 142.289062 L 131.789062 133.230469 L 135.246094 133.230469 Z M 135.246094 142.292969 " fill-opacity="1" fill-rule="nonzero"/><g clip-path="url(#id3)"><path fill="#2f2e41" d="M 135.328125 144.742188 L 128.125 144.742188 L 128.125 144.648438 C 128.125 144.277344 128.195312 143.917969 128.335938 143.574219 C 128.480469 143.230469 128.683594 142.925781 128.945312 142.660156 C 129.207031 142.398438 129.511719 142.195312 129.855469 142.050781 C 130.199219 141.910156 130.558594 141.839844 130.929688 141.839844 L 132.246094 140.835938 L 134.699219 141.839844 L 135.328125 141.839844 Z M 135.328125 144.742188 " fill-opacity="1" fill-rule="nonzero"/></g><path fill="#ffb6b6" d="M 143.53125 142.292969 L 141.1875 142.289062 L 140.070312 133.230469 L 143.53125 133.230469 Z M 143.53125 142.292969 " fill-opacity="1" fill-rule="nonzero"/><g clip-path="url(#id4)"><path fill="#2f2e41" d="M 143.613281 144.742188 L 136.40625 144.742188 L 136.40625 144.648438 C 136.40625 144.277344 136.476562 143.917969 136.621094 143.574219 C 136.761719 143.230469 136.964844 142.925781 137.226562 142.660156 C 137.492188 142.398438 137.792969 142.195312 138.136719 142.050781 C 138.480469 141.910156 138.839844 141.839844 139.210938 141.839844 L 140.527344 140.835938 L 142.984375 141.839844 L 143.613281 141.839844 Z M 143.613281 144.742188 " fill-opacity="1" fill-rule="nonzero"/></g><path fill="#2f2e41" d="M 129.414062 92.933594 C 129.414062 92.933594 127.160156 99.871094 127.574219 100.785156 C 127.992188 101.699219 128.699219 100.988281 127.992188 101.699219 C 127.28125 102.410156 126.660156 101.65625 127.324219 102.863281 C 127.992188 104.070312 128.996094 114.019531 129.441406 114.5 C 129.882812 114.984375 130.492188 114.996094 129.953125 115.464844 C 129.410156 115.929688 128.699219 114.984375 129.410156 115.929688 C 130.121094 116.878906 132.003906 138.769531 132.003906 138.769531 L 135.683594 138.769531 C 135.683594 138.769531 136.601562 137.710938 136.082031 137.019531 C 135.5625 136.332031 136.128906 136.066406 136.082031 135.605469 C 136.035156 135.144531 136.210938 134.152344 136.242188 133.699219 C 136.273438 133.246094 136.894531 122.460938 135.402344 116.230469 L 138.125 104.367188 L 139.488281 118.707031 C 139.488281 118.707031 137.96875 130.734375 139.488281 134.597656 C 139.488281 134.597656 138.265625 135.621094 138.808594 136.214844 C 139.351562 136.804688 139.824219 136.332031 139.351562 136.804688 C 138.875 137.28125 140.058594 138.941406 140.058594 138.941406 L 144.082031 138.703125 L 146.359375 116.230469 C 146.359375 116.230469 146.742188 113.886719 146.359375 113.488281 C 145.976562 113.085938 145.976562 114.507812 145.976562 113.085938 L 145.976562 111.1875 C 145.976562 111.1875 147.691406 99.515625 147.660156 98.828125 C 147.632812 98.140625 144.792969 93.160156 144.792969 93.160156 Z M 129.414062 92.933594 " fill-opacity="1" fill-rule="nonzero"/><path fill="#e6e6e6" d="M 141.3125 64.863281 L 135.4375 64.460938 L 133.679688 67.238281 L 129.445312 68.960938 L 129.445312 82.648438 C 129.890625 83.980469 130.113281 85.351562 130.121094 86.757812 C 130.105469 89.484375 129.40625 92.695312 129.648438 93.398438 C 132.015625 100.277344 145.03125 93.398438 145.03125 93.398438 L 144.792969 86.042969 L 145.113281 69.425781 L 142.453125 67.300781 Z M 141.3125 64.863281 " fill-opacity="1" fill-rule="nonzero"/><path fill="#ffb6b6" d="M 129.175781 95.902344 L 128.769531 91.578125 L 126.269531 91.464844 L 126.863281 96.023438 C 126.761719 96.171875 126.6875 96.335938 126.648438 96.511719 C 126.609375 96.691406 126.601562 96.867188 126.625 97.046875 C 126.652344 97.226562 126.710938 97.394531 126.800781 97.554688 C 126.886719 97.710938 127.003906 97.847656 127.140625 97.964844 C 127.28125 98.078125 127.4375 98.164062 127.609375 98.222656 C 127.78125 98.277344 127.957031 98.300781 128.136719 98.292969 C 128.320312 98.28125 128.492188 98.242188 128.65625 98.167969 C 128.820312 98.09375 128.96875 97.992188 129.09375 97.863281 C 129.222656 97.734375 129.320312 97.585938 129.394531 97.417969 C 129.464844 97.253906 129.507812 97.078125 129.511719 96.898438 C 129.519531 96.71875 129.496094 96.539062 129.4375 96.371094 C 129.378906 96.199219 129.289062 96.042969 129.175781 95.902344 Z M 129.175781 95.902344 " fill-opacity="1" fill-rule="nonzero"/><path fill="#e6e6e6" d="M 130.402344 68.597656 L 130.335938 68.609375 C 129.679688 68.71875 129.089844 68.976562 128.5625 69.382812 C 128.035156 69.785156 127.632812 70.289062 127.355469 70.894531 C 126.640625 72.445312 124.316406 82.636719 125.335938 84.175781 C 126.125 85.367188 125.933594 85.136719 125.5625 86.035156 C 125.191406 86.933594 124.59375 85.976562 125.082031 87.402344 C 125.574219 88.828125 126.113281 88.625 125.65625 89.175781 C 125.203125 89.730469 124.734375 89.621094 125.179688 90.542969 C 125.621094 91.46875 125.550781 91.78125 125.632812 92.128906 C 125.714844 92.476562 125.644531 94.921875 125.644531 94.921875 C 125.644531 94.921875 128.3125 94.71875 129.640625 95.355469 C 129.640625 95.355469 128.898438 92.886719 129.316406 92.488281 C 129.738281 92.09375 130.238281 92.046875 129.878906 91.46875 C 129.523438 90.894531 128.707031 90.871094 129.59375 90.582031 C 130.480469 90.292969 130.195312 85.136719 130.195312 85.136719 C 131.652344 81.308594 131.078125 75.011719 130.402344 68.597656 Z M 130.402344 68.597656 " fill-opacity="1" fill-rule="nonzero"/><path fill="#ffb6b6" d="M 146.496094 96.210938 L 146.679688 91.871094 L 149.171875 91.632812 L 148.808594 96.214844 C 148.917969 96.359375 149 96.519531 149.046875 96.695312 C 149.097656 96.867188 149.113281 97.046875 149.097656 97.226562 C 149.078125 97.40625 149.03125 97.578125 148.949219 97.742188 C 148.871094 97.902344 148.761719 98.042969 148.628906 98.167969 C 148.496094 98.289062 148.34375 98.382812 148.175781 98.449219 C 148.003906 98.511719 147.832031 98.546875 147.648438 98.546875 C 147.46875 98.546875 147.292969 98.511719 147.125 98.445312 C 146.957031 98.382812 146.804688 98.289062 146.671875 98.164062 C 146.539062 98.042969 146.433594 97.898438 146.351562 97.738281 C 146.269531 97.574219 146.222656 97.402344 146.207031 97.222656 C 146.191406 97.042969 146.207031 96.863281 146.257812 96.691406 C 146.304688 96.515625 146.386719 96.355469 146.496094 96.210938 Z M 146.496094 96.210938 " fill-opacity="1" fill-rule="nonzero"/><path fill="#e6e6e6" d="M 143.890625 69.003906 L 143.960938 69.011719 C 144.621094 69.089844 145.222656 69.316406 145.769531 69.695312 C 146.316406 70.070312 146.742188 70.554688 147.050781 71.140625 C 147.84375 72.65625 150.351562 82.898438 149.738281 84.304688 C 149.164062 85.617188 149.1875 85.292969 149.605469 86.175781 C 150.019531 87.054688 150.570312 86.066406 150.152344 87.515625 C 149.734375 88.964844 149.1875 88.789062 149.667969 89.316406 C 150.152344 89.84375 150.609375 89.714844 150.214844 90.660156 C 149.820312 91.601562 149.90625 91.910156 149.84375 92.261719 C 149.777344 92.613281 149.972656 95.054688 149.972656 95.054688 C 149.972656 95.054688 147.296875 94.988281 146.003906 95.6875 C 146.003906 95.6875 146.617188 93.183594 146.179688 92.808594 C 145.742188 92.4375 145.238281 92.414062 145.566406 91.820312 C 145.894531 91.226562 146.707031 91.160156 145.808594 90.917969 C 144.910156 90.675781 144.933594 85.511719 144.933594 85.511719 Z M 143.890625 69.003906 " fill-opacity="1" fill-rule="nonzero"/><path fill="#ffb6b6" d="M 143.101562 58.996094 C 143.101562 59.296875 143.070312 59.597656 143.011719 59.894531 C 142.953125 60.1875 142.867188 60.476562 142.75 60.753906 C 142.636719 61.03125 142.496094 61.296875 142.328125 61.546875 C 142.160156 61.800781 141.972656 62.03125 141.757812 62.246094 C 141.546875 62.457031 141.3125 62.648438 141.0625 62.816406 C 140.8125 62.984375 140.550781 63.125 140.273438 63.238281 C 139.992188 63.355469 139.707031 63.441406 139.414062 63.5 C 139.117188 63.558594 138.820312 63.589844 138.519531 63.589844 C 138.21875 63.589844 137.917969 63.558594 137.625 63.5 C 137.328125 63.441406 137.042969 63.355469 136.765625 63.238281 C 136.488281 63.125 136.222656 62.984375 135.972656 62.816406 C 135.722656 62.648438 135.492188 62.457031 135.277344 62.246094 C 135.066406 62.03125 134.875 61.800781 134.707031 61.546875 C 134.542969 61.296875 134.398438 61.03125 134.285156 60.753906 C 134.171875 60.476562 134.082031 60.1875 134.023438 59.894531 C 133.964844 59.597656 133.9375 59.296875 133.9375 58.996094 C 133.9375 58.695312 133.964844 58.398438 134.023438 58.101562 C 134.082031 57.804688 134.171875 57.519531 134.285156 57.238281 C 134.398438 56.960938 134.542969 56.695312 134.707031 56.445312 C 134.875 56.195312 135.066406 55.960938 135.277344 55.75 C 135.492188 55.535156 135.722656 55.34375 135.972656 55.179688 C 136.222656 55.011719 136.488281 54.867188 136.765625 54.753906 C 137.042969 54.636719 137.328125 54.550781 137.625 54.492188 C 137.917969 54.433594 138.21875 54.402344 138.519531 54.402344 C 138.820312 54.402344 139.117188 54.433594 139.414062 54.492188 C 139.707031 54.550781 139.992188 54.636719 140.273438 54.753906 C 140.550781 54.867188 140.8125 55.011719 141.0625 55.179688 C 141.3125 55.34375 141.546875 55.535156 141.757812 55.75 C 141.972656 55.960938 142.160156 56.195312 142.328125 56.445312 C 142.496094 56.695312 142.636719 56.960938 142.75 57.238281 C 142.867188 57.519531 142.953125 57.804688 143.011719 58.101562 C 143.070312 58.398438 143.101562 58.695312 143.101562 58.996094 Z M 143.101562 58.996094 " fill-opacity="1" fill-rule="nonzero"/><path fill="#2f2e41" d="M 141.707031 62.929688 C 142.34375 62.429688 142.40625 61.476562 142.949219 60.875 C 143.859375 59.871094 144.285156 58.789062 143.808594 57.601562 C 143.390625 56.546875 143.480469 55.253906 142.570312 54.578125 C 143.015625 54.414062 143.121094 54.078125 142.730469 54.074219 C 142.464844 54.070312 141.476562 54.578125 141.949219 53.945312 C 142.425781 53.3125 141.527344 53.5625 141.585938 53.300781 C 141.644531 53.042969 142.027344 52.898438 142.195312 53.105469 C 142.050781 52.957031 141.882812 52.847656 141.6875 52.78125 C 141.492188 52.710938 141.292969 52.6875 141.089844 52.710938 C 140.886719 52.734375 140.695312 52.800781 140.523438 52.914062 C 140.347656 53.023438 140.210938 53.167969 140.101562 53.34375 C 139.566406 52.539062 138.996094 51.984375 138.175781 52.496094 C 137.371094 53 137.382812 53.617188 136.515625 53.46875 C 136.109375 53.398438 136.070312 54.171875 135.792969 54.476562 C 135.511719 54.832031 135.148438 54.984375 134.703125 54.941406 C 134.296875 54.867188 133.984375 54.359375 134.210938 54.011719 L 133.257812 56.199219 L 132.871094 55.726562 C 132.257812 56.128906 132.457031 57.171875 133.074219 57.566406 C 133.691406 57.960938 134.492188 57.875 135.203125 57.699219 C 136.0625 57.488281 136.9375 57.417969 137.820312 57.484375 C 139.160156 57.671875 140.09375 59.28125 139.597656 60.542969 C 140.113281 60.035156 141.066406 60.457031 141.332031 61.128906 C 141.601562 61.800781 141.402344 62.558594 141.207031 63.253906 " fill-opacity="1" fill-rule="nonzero"/></svg>