<svg xmlns="http://www.w3.org/2000/svg" xmlns:xlink="http://www.w3.org/1999/xlink" width="220" zoomAndPan="magnify" viewBox="0 0 165 165.000002" height="220" preserveAspectRatio="xMidYMid meet" version="1.0"><defs><clipPath id="id1"><path d="M 149 85 L 164.503906 85 L 164.503906 118 L 149 118 Z M 149 85 " clip-rule="nonzero"/></clipPath><clipPath id="id2"><path d="M 0.496094 56 L 16 56 L 16 89 L 0.496094 89 Z M 0.496094 56 " clip-rule="nonzero"/></clipPath><clipPath id="id3"><path d="M 58 148 L 121 148 L 121 149.175781 L 58 149.175781 Z M 58 148 " clip-rule="nonzero"/></clipPath></defs><path fill="#f0f0f0" d="M 157.792969 102.1875 C 157.65625 107.324219 156.8125 112.339844 155.253906 117.234375 C 155.21875 117.347656 155.183594 117.460938 155.144531 117.574219 L 145.667969 117.574219 C 145.679688 117.472656 145.6875 117.359375 145.699219 117.234375 C 146.332031 109.960938 149.972656 65.691406 145.617188 58.117188 C 146 58.734375 158.53125 79.074219 157.792969 102.1875 Z M 157.792969 102.1875 " fill-opacity="1" fill-rule="nonzero"/><g clip-path="url(#id1)"><path fill="#f0f0f0" d="M 157.082031 117.234375 C 157.003906 117.347656 156.921875 117.460938 156.835938 117.574219 L 149.726562 117.574219 C 149.78125 117.476562 149.84375 117.363281 149.917969 117.234375 C 151.089844 115.113281 154.566406 108.765625 157.792969 102.1875 C 161.261719 95.117188 164.445312 87.78125 164.175781 85.125 C 164.257812 85.722656 166.660156 103.984375 157.082031 117.234375 Z M 157.082031 117.234375 " fill-opacity="1" fill-rule="nonzero"/></g><path fill="#f0f0f0" d="M 19.382812 29.375 C 15.027344 36.945312 18.667969 81.21875 19.300781 88.492188 C 19.3125 88.613281 19.320312 88.726562 19.332031 88.828125 L 9.855469 88.828125 C 9.816406 88.714844 9.78125 88.605469 9.746094 88.492188 C 8.1875 83.59375 7.34375 78.578125 7.207031 73.445312 C 6.46875 50.332031 19 29.988281 19.382812 29.375 Z M 19.382812 29.375 " fill-opacity="1" fill-rule="nonzero"/><g clip-path="url(#id2)"><path fill="#f0f0f0" d="M 0.824219 56.378906 C 0.554688 59.035156 3.738281 66.375 7.207031 73.445312 C 10.433594 80.023438 13.910156 86.367188 15.082031 88.492188 C 15.15625 88.621094 15.21875 88.734375 15.273438 88.828125 L 8.164062 88.828125 C 8.078125 88.71875 7.996094 88.605469 7.917969 88.492188 C -1.660156 75.238281 0.742188 56.980469 0.824219 56.378906 Z M 0.824219 56.378906 " fill-opacity="1" fill-rule="nonzero"/></g><path fill="#cacaca" d="M 163.234375 23.347656 L 4.21875 23.347656 C 4.066406 23.347656 3.988281 23.269531 3.988281 23.117188 C 3.988281 22.960938 4.066406 22.886719 4.21875 22.886719 L 163.234375 22.886719 C 163.386719 22.886719 163.464844 22.960938 163.464844 23.117188 C 163.464844 23.269531 163.386719 23.347656 163.234375 23.347656 Z M 163.234375 23.347656 " fill-opacity="1" fill-rule="nonzero"/><path fill="#3f3d56" d="M 11.953125 17.570312 C 11.953125 17.90625 11.890625 18.230469 11.761719 18.542969 C 11.632812 18.855469 11.449219 19.128906 11.210938 19.367188 C 10.972656 19.605469 10.699219 19.789062 10.386719 19.917969 C 10.074219 20.046875 9.75 20.113281 9.414062 20.113281 C 9.078125 20.113281 8.753906 20.046875 8.441406 19.917969 C 8.132812 19.789062 7.859375 19.605469 7.621094 19.367188 C 7.382812 19.128906 7.199219 18.855469 7.070312 18.542969 C 6.941406 18.230469 6.875 17.90625 6.875 17.570312 C 6.875 17.234375 6.941406 16.910156 7.070312 16.597656 C 7.199219 16.285156 7.382812 16.011719 7.621094 15.773438 C 7.859375 15.535156 8.132812 15.351562 8.441406 15.222656 C 8.753906 15.09375 9.078125 15.027344 9.414062 15.027344 C 9.75 15.027344 10.074219 15.09375 10.386719 15.222656 C 10.699219 15.351562 10.972656 15.535156 11.210938 15.773438 C 11.449219 16.011719 11.632812 16.285156 11.761719 16.597656 C 11.890625 16.910156 11.953125 17.234375 11.953125 17.570312 Z M 11.953125 17.570312 " fill-opacity="1" fill-rule="nonzero"/><path fill="#3f3d56" d="M 20.722656 17.570312 C 20.722656 17.90625 20.660156 18.230469 20.53125 18.542969 C 20.402344 18.855469 20.21875 19.128906 19.980469 19.367188 C 19.742188 19.605469 19.46875 19.789062 19.15625 19.917969 C 18.84375 20.046875 18.519531 20.113281 18.183594 20.113281 C 17.847656 20.113281 17.523438 20.046875 17.214844 19.917969 C 16.902344 19.789062 16.628906 19.605469 16.390625 19.367188 C 16.152344 19.128906 15.96875 18.855469 15.839844 18.542969 C 15.710938 18.230469 15.644531 17.90625 15.644531 17.570312 C 15.644531 17.234375 15.710938 16.910156 15.839844 16.597656 C 15.96875 16.285156 16.152344 16.011719 16.390625 15.773438 C 16.628906 15.535156 16.902344 15.351562 17.214844 15.222656 C 17.523438 15.09375 17.847656 15.027344 18.183594 15.027344 C 18.519531 15.027344 18.84375 15.09375 19.15625 15.222656 C 19.46875 15.351562 19.742188 15.535156 19.980469 15.773438 C 20.21875 16.011719 20.402344 16.285156 20.53125 16.597656 C 20.660156 16.910156 20.722656 17.234375 20.722656 17.570312 Z M 20.722656 17.570312 " fill-opacity="1" fill-rule="nonzero"/><path fill="#3f3d56" d="M 29.492188 17.570312 C 29.492188 17.90625 29.429688 18.230469 29.300781 18.542969 C 29.171875 18.855469 28.988281 19.128906 28.75 19.367188 C 28.511719 19.605469 28.238281 19.789062 27.925781 19.917969 C 27.613281 20.046875 27.292969 20.113281 26.953125 20.113281 C 26.617188 20.113281 26.292969 20.046875 25.984375 19.917969 C 25.671875 19.789062 25.398438 19.605469 25.160156 19.367188 C 24.921875 19.128906 24.738281 18.855469 24.609375 18.542969 C 24.480469 18.230469 24.414062 17.90625 24.414062 17.570312 C 24.414062 17.234375 24.480469 16.910156 24.609375 16.597656 C 24.738281 16.285156 24.921875 16.011719 25.160156 15.773438 C 25.398438 15.535156 25.671875 15.351562 25.984375 15.222656 C 26.292969 15.09375 26.617188 15.027344 26.953125 15.027344 C 27.292969 15.027344 27.613281 15.09375 27.925781 15.222656 C 28.238281 15.351562 28.511719 15.535156 28.75 15.773438 C 28.988281 16.011719 29.171875 16.285156 29.300781 16.597656 C 29.429688 16.910156 29.492188 17.234375 29.492188 17.570312 Z M 29.492188 17.570312 " fill-opacity="1" fill-rule="nonzero"/><path fill="#3f3d56" d="M 157.976562 16.582031 L 151.746094 16.582031 C 151.621094 16.582031 151.511719 16.539062 151.417969 16.449219 C 151.328125 16.359375 151.285156 16.25 151.285156 16.121094 C 151.285156 15.992188 151.328125 15.882812 151.417969 15.792969 C 151.511719 15.703125 151.621094 15.660156 151.746094 15.660156 L 157.976562 15.660156 C 158.105469 15.660156 158.214844 15.703125 158.304688 15.792969 C 158.394531 15.882812 158.441406 15.992188 158.441406 16.121094 C 158.441406 16.25 158.394531 16.359375 158.304688 16.449219 C 158.214844 16.539062 158.105469 16.582031 157.976562 16.582031 Z M 157.976562 16.582031 " fill-opacity="1" fill-rule="nonzero"/><path fill="#3f3d56" d="M 157.976562 18.316406 L 151.746094 18.316406 C 151.621094 18.316406 151.511719 18.269531 151.421875 18.179688 C 151.332031 18.089844 151.285156 17.980469 151.285156 17.855469 C 151.285156 17.726562 151.332031 17.617188 151.421875 17.527344 C 151.511719 17.4375 151.621094 17.390625 151.746094 17.390625 L 157.976562 17.390625 C 158.105469 17.390625 158.214844 17.4375 158.304688 17.527344 C 158.394531 17.617188 158.441406 17.726562 158.441406 17.855469 C 158.441406 17.980469 158.394531 18.089844 158.304688 18.179688 C 158.214844 18.269531 158.105469 18.316406 157.976562 18.316406 Z M 157.976562 18.316406 " fill-opacity="1" fill-rule="nonzero"/><path fill="#3f3d56" d="M 157.976562 20.050781 L 151.746094 20.050781 C 151.621094 20.050781 151.511719 20.003906 151.421875 19.914062 C 151.332031 19.824219 151.285156 19.714844 151.285156 19.585938 C 151.285156 19.460938 151.332031 19.351562 151.421875 19.261719 C 151.511719 19.171875 151.621094 19.125 151.746094 19.125 L 157.976562 19.125 C 158.105469 19.125 158.214844 19.171875 158.304688 19.261719 C 158.394531 19.351562 158.441406 19.460938 158.441406 19.585938 C 158.441406 19.714844 158.394531 19.824219 158.304688 19.914062 C 158.214844 20.003906 158.105469 20.050781 157.976562 20.050781 Z M 157.976562 20.050781 " fill-opacity="1" fill-rule="nonzero"/><path fill="#e6e6e6" d="M 155.101562 117.371094 L 95.164062 117.371094 C 94.929688 117.371094 94.707031 117.324219 94.488281 117.234375 C 94.273438 117.148438 94.082031 117.019531 93.917969 116.855469 C 93.753906 116.6875 93.625 116.496094 93.535156 116.28125 C 93.445312 116.066406 93.402344 115.839844 93.402344 115.605469 L 93.402344 37.445312 C 93.402344 37.210938 93.445312 36.984375 93.535156 36.769531 C 93.625 36.550781 93.753906 36.363281 93.917969 36.195312 C 94.082031 36.03125 94.273438 35.902344 94.488281 35.8125 C 94.707031 35.722656 94.929688 35.679688 95.164062 35.679688 L 155.101562 35.679688 C 155.332031 35.679688 155.558594 35.722656 155.773438 35.8125 C 155.988281 35.902344 156.179688 36.03125 156.34375 36.195312 C 156.511719 36.363281 156.636719 36.550781 156.726562 36.769531 C 156.816406 36.984375 156.863281 37.210938 156.863281 37.445312 L 156.863281 115.605469 C 156.863281 115.839844 156.816406 116.066406 156.726562 116.28125 C 156.636719 116.496094 156.511719 116.6875 156.34375 116.855469 C 156.179688 117.019531 155.988281 117.148438 155.773438 117.234375 C 155.558594 117.324219 155.332031 117.371094 155.101562 117.371094 Z M 95.164062 36.183594 C 94.996094 36.183594 94.835938 36.214844 94.683594 36.277344 C 94.527344 36.34375 94.390625 36.433594 94.273438 36.550781 C 94.15625 36.671875 94.066406 36.808594 94 36.960938 C 93.9375 37.117188 93.90625 37.277344 93.90625 37.445312 L 93.90625 115.605469 C 93.90625 115.773438 93.9375 115.933594 94 116.089844 C 94.066406 116.242188 94.15625 116.378906 94.273438 116.496094 C 94.390625 116.617188 94.527344 116.707031 94.683594 116.769531 C 94.835938 116.835938 94.996094 116.867188 95.164062 116.867188 L 155.101562 116.867188 C 155.265625 116.867188 155.425781 116.835938 155.582031 116.769531 C 155.734375 116.707031 155.871094 116.617188 155.988281 116.496094 C 156.109375 116.378906 156.199219 116.242188 156.261719 116.089844 C 156.328125 115.933594 156.359375 115.773438 156.359375 115.605469 L 156.359375 37.445312 C 156.359375 37.277344 156.328125 37.117188 156.261719 36.960938 C 156.199219 36.808594 156.109375 36.671875 155.988281 36.550781 C 155.871094 36.433594 155.734375 36.34375 155.582031 36.277344 C 155.425781 36.214844 155.265625 36.183594 155.101562 36.183594 Z M 95.164062 36.183594 " fill-opacity="1" fill-rule="nonzero"/><path fill="#e6e6e6" d="M 136.769531 69.917969 L 111.335938 69.917969 C 111.101562 69.917969 110.875 69.875 110.660156 69.785156 C 110.445312 69.695312 110.253906 69.566406 110.089844 69.402344 C 109.921875 69.234375 109.796875 69.042969 109.707031 68.828125 C 109.617188 68.613281 109.570312 68.386719 109.570312 68.152344 L 109.570312 48.234375 C 109.570312 48 109.617188 47.777344 109.707031 47.558594 C 109.796875 47.34375 109.921875 47.152344 110.089844 46.988281 C 110.253906 46.820312 110.445312 46.695312 110.660156 46.605469 C 110.875 46.515625 111.101562 46.46875 111.335938 46.46875 L 136.769531 46.46875 C 137.003906 46.46875 137.226562 46.515625 137.445312 46.605469 C 137.660156 46.695312 137.851562 46.820312 138.015625 46.988281 C 138.179688 47.152344 138.308594 47.34375 138.398438 47.558594 C 138.488281 47.777344 138.53125 48 138.53125 48.234375 L 138.53125 68.152344 C 138.53125 68.386719 138.488281 68.613281 138.398438 68.828125 C 138.308594 69.042969 138.179688 69.234375 138.015625 69.402344 C 137.851562 69.566406 137.660156 69.695312 137.445312 69.785156 C 137.226562 69.875 137.003906 69.917969 136.769531 69.917969 Z M 136.769531 69.917969 " fill-opacity="1" fill-rule="nonzero"/><path fill="#3f3d56" d="M 136.714844 103.25 L 111.28125 103.25 C 111.046875 103.25 110.824219 103.207031 110.605469 103.117188 C 110.390625 103.027344 110.199219 102.898438 110.035156 102.734375 C 109.871094 102.566406 109.742188 102.378906 109.652344 102.160156 C 109.5625 101.945312 109.519531 101.71875 109.519531 101.488281 L 109.519531 81.566406 C 109.519531 81.332031 109.5625 81.109375 109.652344 80.890625 C 109.742188 80.675781 109.871094 80.484375 110.035156 80.320312 C 110.199219 80.15625 110.390625 80.027344 110.605469 79.9375 C 110.824219 79.847656 111.046875 79.804688 111.28125 79.800781 L 136.714844 79.800781 C 136.949219 79.804688 137.175781 79.847656 137.390625 79.9375 C 137.605469 80.027344 137.796875 80.15625 137.960938 80.320312 C 138.128906 80.484375 138.253906 80.675781 138.34375 80.890625 C 138.433594 81.109375 138.480469 81.332031 138.480469 81.566406 L 138.480469 101.488281 C 138.480469 101.71875 138.433594 101.945312 138.34375 102.160156 C 138.253906 102.378906 138.128906 102.566406 137.960938 102.734375 C 137.796875 102.898438 137.605469 103.027344 137.390625 103.117188 C 137.175781 103.207031 136.949219 103.25 136.714844 103.25 Z M 111.28125 80.308594 C 111.113281 80.308594 110.953125 80.339844 110.800781 80.402344 C 110.644531 80.46875 110.507812 80.558594 110.390625 80.675781 C 110.273438 80.792969 110.183594 80.929688 110.117188 81.085938 C 110.054688 81.238281 110.023438 81.402344 110.023438 81.566406 L 110.023438 101.488281 C 110.023438 101.652344 110.054688 101.8125 110.117188 101.96875 C 110.183594 102.121094 110.273438 102.257812 110.390625 102.378906 C 110.507812 102.496094 110.644531 102.585938 110.800781 102.652344 C 110.953125 102.714844 111.113281 102.746094 111.28125 102.746094 L 136.714844 102.746094 C 136.882812 102.746094 137.042969 102.714844 137.199219 102.652344 C 137.351562 102.585938 137.488281 102.496094 137.605469 102.378906 C 137.722656 102.257812 137.816406 102.121094 137.878906 101.96875 C 137.941406 101.8125 137.976562 101.652344 137.976562 101.488281 L 137.976562 81.566406 C 137.976562 81.402344 137.941406 81.238281 137.878906 81.085938 C 137.816406 80.929688 137.722656 80.792969 137.605469 80.675781 C 137.488281 80.558594 137.351562 80.46875 137.199219 80.402344 C 137.042969 80.339844 136.882812 80.308594 136.714844 80.308594 Z M 111.28125 80.308594 " fill-opacity="1" fill-rule="nonzero"/><path fill="#9e30ff" d="M 143.765625 108.796875 L 118.332031 108.796875 C 118.097656 108.796875 117.875 108.753906 117.65625 108.664062 C 117.441406 108.574219 117.25 108.445312 117.085938 108.28125 C 116.921875 108.117188 116.792969 107.925781 116.703125 107.707031 C 116.613281 107.492188 116.570312 107.265625 116.570312 107.035156 L 116.570312 87.113281 C 116.570312 86.878906 116.613281 86.65625 116.703125 86.4375 C 116.792969 86.222656 116.921875 86.03125 117.085938 85.867188 C 117.25 85.703125 117.441406 85.574219 117.65625 85.484375 C 117.875 85.394531 118.097656 85.351562 118.332031 85.347656 L 143.765625 85.347656 C 144 85.351562 144.226562 85.394531 144.441406 85.484375 C 144.65625 85.574219 144.847656 85.703125 145.011719 85.867188 C 145.179688 86.03125 145.304688 86.222656 145.394531 86.4375 C 145.484375 86.65625 145.53125 86.878906 145.53125 87.113281 L 145.53125 107.035156 C 145.53125 107.265625 145.484375 107.492188 145.394531 107.707031 C 145.304688 107.925781 145.179688 108.117188 145.011719 108.28125 C 144.847656 108.445312 144.65625 108.574219 144.441406 108.664062 C 144.226562 108.753906 144 108.796875 143.765625 108.796875 Z M 143.765625 108.796875 " fill-opacity="1" fill-rule="nonzero"/><path fill="#ffffff" d="M 133.902344 102.964844 L 121.132812 102.964844 C 121.117188 102.964844 121.101562 102.964844 121.085938 102.960938 L 127.125 92.488281 C 127.207031 92.34375 127.328125 92.273438 127.492188 92.273438 C 127.65625 92.273438 127.78125 92.34375 127.863281 92.488281 L 131.914062 99.515625 L 132.109375 99.855469 Z M 133.902344 102.964844 " fill-opacity="1" fill-rule="nonzero"/><path fill="#000000" d="M 133.902344 102.964844 L 129.542969 102.964844 L 131.683594 99.855469 L 131.839844 99.628906 L 131.914062 99.515625 L 132.109375 99.855469 Z M 133.902344 102.964844 " fill-opacity="0.2" fill-rule="nonzero"/><path fill="#ffffff" d="M 141.011719 102.964844 L 129.96875 102.964844 L 132.109375 99.855469 L 132.261719 99.628906 L 135.050781 95.574219 C 135.15625 95.441406 135.292969 95.371094 135.460938 95.363281 C 135.625 95.351562 135.769531 95.40625 135.890625 95.523438 C 135.902344 95.539062 135.917969 95.554688 135.929688 95.574219 Z M 141.011719 102.964844 " fill-opacity="1" fill-rule="nonzero"/><path fill="#ffffff" d="M 142.386719 90.554688 C 142.386719 90.804688 142.339844 91.046875 142.242188 91.277344 C 142.148438 91.511719 142.011719 91.714844 141.832031 91.894531 C 141.65625 92.070312 141.453125 92.207031 141.21875 92.304688 C 140.988281 92.398438 140.746094 92.449219 140.496094 92.449219 C 140.246094 92.449219 140.003906 92.398438 139.773438 92.304688 C 139.539062 92.207031 139.335938 92.070312 139.160156 91.894531 C 138.980469 91.714844 138.84375 91.511719 138.75 91.277344 C 138.652344 91.046875 138.605469 90.804688 138.605469 90.554688 C 138.605469 90.304688 138.652344 90.0625 138.75 89.828125 C 138.84375 89.597656 138.980469 89.390625 139.160156 89.214844 C 139.335938 89.039062 139.539062 88.902344 139.773438 88.804688 C 140.003906 88.707031 140.246094 88.660156 140.496094 88.660156 C 140.746094 88.660156 140.988281 88.707031 141.21875 88.804688 C 141.453125 88.902344 141.65625 89.039062 141.832031 89.214844 C 142.011719 89.390625 142.148438 89.597656 142.242188 89.828125 C 142.339844 90.0625 142.386719 90.304688 142.386719 90.554688 Z M 142.386719 90.554688 " fill-opacity="1" fill-rule="nonzero"/><path fill="#e6e6e6" d="M 69.132812 117.347656 L 9.199219 117.347656 C 8.964844 117.347656 8.738281 117.304688 8.523438 117.214844 C 8.308594 117.125 8.117188 116.996094 7.953125 116.832031 C 7.785156 116.664062 7.660156 116.472656 7.570312 116.257812 C 7.480469 116.042969 7.433594 115.816406 7.433594 115.582031 L 7.433594 95.664062 C 7.433594 95.429688 7.480469 95.207031 7.570312 94.988281 C 7.660156 94.773438 7.785156 94.582031 7.953125 94.417969 C 8.117188 94.25 8.308594 94.125 8.523438 94.035156 C 8.738281 93.945312 8.964844 93.898438 9.199219 93.898438 L 69.132812 93.898438 C 69.367188 93.898438 69.589844 93.945312 69.808594 94.035156 C 70.023438 94.125 70.214844 94.25 70.378906 94.417969 C 70.542969 94.582031 70.671875 94.773438 70.761719 94.988281 C 70.851562 95.207031 70.894531 95.429688 70.894531 95.664062 L 70.894531 115.582031 C 70.894531 115.816406 70.851562 116.042969 70.761719 116.257812 C 70.671875 116.472656 70.542969 116.664062 70.378906 116.832031 C 70.214844 116.996094 70.023438 117.125 69.808594 117.214844 C 69.589844 117.304688 69.367188 117.347656 69.132812 117.347656 Z M 69.132812 117.347656 " fill-opacity="1" fill-rule="nonzero"/><path fill="#3f3d56" d="M 68.882812 88.855469 L 8.945312 88.855469 C 8.710938 88.855469 8.488281 88.8125 8.269531 88.722656 C 8.054688 88.632812 7.863281 88.503906 7.699219 88.339844 C 7.535156 88.171875 7.40625 87.984375 7.316406 87.765625 C 7.226562 87.550781 7.183594 87.324219 7.183594 87.089844 L 7.183594 38.429688 C 7.183594 38.195312 7.226562 37.96875 7.316406 37.753906 C 7.40625 37.539062 7.535156 37.347656 7.699219 37.183594 C 7.863281 37.015625 8.054688 36.890625 8.269531 36.800781 C 8.488281 36.710938 8.710938 36.664062 8.945312 36.664062 L 68.882812 36.664062 C 69.113281 36.664062 69.339844 36.710938 69.554688 36.800781 C 69.769531 36.890625 69.960938 37.015625 70.128906 37.183594 C 70.292969 37.347656 70.417969 37.539062 70.507812 37.753906 C 70.597656 37.96875 70.644531 38.195312 70.644531 38.429688 L 70.644531 87.089844 C 70.644531 87.324219 70.597656 87.550781 70.507812 87.765625 C 70.417969 87.984375 70.292969 88.171875 70.128906 88.339844 C 69.960938 88.503906 69.769531 88.632812 69.554688 88.722656 C 69.339844 88.8125 69.113281 88.855469 68.882812 88.855469 Z M 8.945312 37.167969 C 8.777344 37.167969 8.617188 37.199219 8.464844 37.265625 C 8.308594 37.328125 8.171875 37.421875 8.054688 37.539062 C 7.9375 37.65625 7.847656 37.792969 7.78125 37.945312 C 7.71875 38.101562 7.6875 38.261719 7.6875 38.429688 L 7.6875 87.089844 C 7.6875 87.257812 7.71875 87.417969 7.78125 87.574219 C 7.847656 87.726562 7.9375 87.863281 8.054688 87.984375 C 8.171875 88.101562 8.308594 88.191406 8.464844 88.257812 C 8.617188 88.320312 8.777344 88.351562 8.945312 88.351562 L 68.882812 88.351562 C 69.046875 88.351562 69.207031 88.320312 69.363281 88.257812 C 69.515625 88.191406 69.652344 88.101562 69.769531 87.984375 C 69.890625 87.863281 69.980469 87.726562 70.042969 87.574219 C 70.109375 87.417969 70.140625 87.257812 70.140625 87.089844 L 70.140625 38.429688 C 70.140625 38.261719 70.109375 38.101562 70.042969 37.945312 C 69.980469 37.792969 69.890625 37.65625 69.769531 37.539062 C 69.652344 37.421875 69.515625 37.328125 69.363281 37.265625 C 69.207031 37.199219 69.046875 37.167969 68.882812 37.167969 Z M 8.945312 37.167969 " fill-opacity="1" fill-rule="nonzero"/><path fill="#9e30ff" d="M 78.703125 97.679688 L 18.765625 97.679688 C 18.535156 97.679688 18.308594 97.636719 18.09375 97.546875 C 17.875 97.457031 17.6875 97.328125 17.519531 97.164062 C 17.355469 97 17.226562 96.808594 17.140625 96.589844 C 17.050781 96.375 17.003906 96.152344 17.003906 95.917969 L 17.003906 47.253906 C 17.003906 47.019531 17.050781 46.796875 17.140625 46.578125 C 17.226562 46.363281 17.355469 46.171875 17.519531 46.007812 C 17.6875 45.839844 17.875 45.714844 18.09375 45.625 C 18.308594 45.535156 18.535156 45.488281 18.765625 45.488281 L 78.703125 45.488281 C 78.9375 45.488281 79.160156 45.535156 79.378906 45.625 C 79.59375 45.714844 79.785156 45.839844 79.949219 46.007812 C 80.113281 46.171875 80.242188 46.363281 80.332031 46.578125 C 80.421875 46.796875 80.464844 47.019531 80.464844 47.253906 L 80.464844 95.917969 C 80.464844 96.152344 80.421875 96.375 80.332031 96.589844 C 80.242188 96.808594 80.113281 97 79.949219 97.164062 C 79.785156 97.328125 79.59375 97.457031 79.378906 97.546875 C 79.160156 97.636719 78.9375 97.679688 78.703125 97.679688 Z M 78.703125 97.679688 " fill-opacity="1" fill-rule="nonzero"/><path fill="#ffffff" d="M 55.574219 85.703125 L 24.972656 85.703125 C 24.9375 85.707031 24.898438 85.703125 24.859375 85.695312 L 39.332031 60.597656 C 39.527344 60.253906 39.820312 60.082031 40.214844 60.082031 C 40.605469 60.082031 40.902344 60.253906 41.09375 60.597656 L 50.808594 77.441406 L 51.273438 78.246094 Z M 55.574219 85.703125 " fill-opacity="1" fill-rule="nonzero"/><path fill="#000000" d="M 55.574219 85.703125 L 45.125 85.703125 L 50.253906 78.246094 L 50.625 77.710938 L 50.808594 77.441406 L 51.273438 78.246094 Z M 55.574219 85.703125 " fill-opacity="0.2" fill-rule="nonzero"/><path fill="#ffffff" d="M 72.609375 85.703125 L 46.144531 85.703125 L 51.273438 78.246094 L 51.640625 77.710938 L 58.324219 67.988281 C 58.445312 67.839844 58.589844 67.71875 58.757812 67.632812 C 58.929688 67.542969 59.109375 67.492188 59.300781 67.480469 C 59.492188 67.46875 59.679688 67.5 59.859375 67.566406 C 60.039062 67.632812 60.195312 67.734375 60.332031 67.871094 C 60.367188 67.90625 60.398438 67.949219 60.429688 67.988281 Z M 72.609375 85.703125 " fill-opacity="1" fill-rule="nonzero"/><path fill="#ffffff" d="M 75.328125 55.449219 C 75.328125 55.746094 75.300781 56.042969 75.242188 56.332031 C 75.183594 56.625 75.097656 56.910156 74.984375 57.183594 C 74.867188 57.460938 74.730469 57.722656 74.5625 57.96875 C 74.398438 58.21875 74.210938 58.445312 74 58.65625 C 73.789062 58.867188 73.5625 59.054688 73.3125 59.222656 C 73.066406 59.386719 72.804688 59.527344 72.53125 59.640625 C 72.253906 59.753906 71.972656 59.839844 71.679688 59.898438 C 71.386719 59.957031 71.09375 59.988281 70.796875 59.988281 C 70.496094 59.988281 70.203125 59.957031 69.910156 59.898438 C 69.617188 59.839844 69.335938 59.753906 69.058594 59.640625 C 68.785156 59.527344 68.523438 59.386719 68.277344 59.222656 C 68.027344 59.054688 67.800781 58.867188 67.589844 58.65625 C 67.378906 58.445312 67.191406 58.21875 67.027344 57.96875 C 66.859375 57.722656 66.722656 57.460938 66.605469 57.183594 C 66.492188 56.910156 66.40625 56.625 66.347656 56.332031 C 66.292969 56.042969 66.261719 55.746094 66.261719 55.449219 C 66.261719 55.148438 66.292969 54.855469 66.347656 54.5625 C 66.40625 54.269531 66.492188 53.988281 66.605469 53.710938 C 66.722656 53.4375 66.859375 53.175781 67.027344 52.925781 C 67.191406 52.679688 67.378906 52.449219 67.589844 52.238281 C 67.800781 52.027344 68.027344 51.839844 68.277344 51.675781 C 68.523438 51.507812 68.785156 51.371094 69.058594 51.253906 C 69.335938 51.140625 69.617188 51.054688 69.910156 50.996094 C 70.203125 50.9375 70.496094 50.910156 70.796875 50.910156 C 71.09375 50.910156 71.386719 50.9375 71.679688 50.996094 C 71.972656 51.054688 72.253906 51.140625 72.53125 51.253906 C 72.804688 51.371094 73.066406 51.507812 73.3125 51.675781 C 73.5625 51.839844 73.789062 52.027344 74 52.238281 C 74.210938 52.449219 74.398438 52.679688 74.5625 52.925781 C 74.730469 53.175781 74.867188 53.4375 74.984375 53.710938 C 75.097656 53.988281 75.183594 54.269531 75.242188 54.5625 C 75.300781 54.855469 75.328125 55.148438 75.328125 55.449219 Z M 75.328125 55.449219 " fill-opacity="1" fill-rule="nonzero"/><path fill="#ffb8b8" d="M 91.484375 95.140625 C 91.902344 94.910156 92.351562 94.839844 92.824219 94.929688 L 100.003906 88.207031 L 98.8125 82.21875 L 103.527344 82.472656 L 103.949219 89.746094 L 94.449219 97.15625 C 94.429688 97.324219 94.386719 97.492188 94.324219 97.652344 C 94.257812 97.8125 94.175781 97.964844 94.074219 98.101562 C 93.972656 98.242188 93.855469 98.367188 93.71875 98.476562 C 93.585938 98.582031 93.441406 98.675781 93.285156 98.746094 C 93.125 98.816406 92.964844 98.867188 92.792969 98.898438 C 92.625 98.925781 92.453125 98.933594 92.28125 98.917969 C 92.109375 98.90625 91.941406 98.867188 91.777344 98.8125 C 91.617188 98.753906 91.464844 98.675781 91.320312 98.578125 C 91.175781 98.484375 91.050781 98.371094 90.933594 98.238281 C 90.820312 98.109375 90.726562 97.96875 90.648438 97.8125 C 90.570312 97.660156 90.515625 97.496094 90.480469 97.328125 C 90.445312 97.160156 90.429688 96.988281 90.4375 96.816406 C 90.445312 96.640625 90.476562 96.472656 90.527344 96.308594 C 90.578125 96.144531 90.652344 95.988281 90.742188 95.84375 C 90.832031 95.695312 90.941406 95.5625 91.066406 95.445312 C 91.191406 95.324219 91.332031 95.226562 91.484375 95.140625 Z M 91.484375 95.140625 " fill-opacity="1" fill-rule="nonzero"/><path fill="#ffb6b6" d="M 83.550781 145.722656 L 80.464844 145.722656 L 78.996094 133.800781 L 83.550781 133.800781 Z M 83.550781 145.722656 " fill-opacity="1" fill-rule="nonzero"/><path fill="#2f2e41" d="M 84.339844 148.71875 L 74.382812 148.71875 L 74.382812 148.59375 C 74.382812 148.078125 74.484375 147.582031 74.679688 147.109375 C 74.875 146.632812 75.15625 146.214844 75.519531 145.851562 C 75.882812 145.484375 76.300781 145.207031 76.777344 145.007812 C 77.25 144.8125 77.746094 144.714844 78.257812 144.714844 L 84.339844 144.714844 Z M 84.339844 148.71875 " fill-opacity="1" fill-rule="nonzero"/><path fill="#ffb6b6" d="M 106.71875 145.722656 L 103.632812 145.722656 L 102.164062 133.800781 L 106.722656 133.800781 Z M 106.71875 145.722656 " fill-opacity="1" fill-rule="nonzero"/><path fill="#2f2e41" d="M 107.507812 148.71875 L 97.554688 148.71875 L 97.554688 148.59375 C 97.554688 148.078125 97.652344 147.582031 97.847656 147.109375 C 98.042969 146.632812 98.324219 146.214844 98.6875 145.851562 C 99.050781 145.484375 99.46875 145.207031 99.945312 145.007812 C 100.417969 144.8125 100.914062 144.714844 101.425781 144.714844 L 107.507812 144.714844 Z M 107.507812 148.71875 " fill-opacity="1" fill-rule="nonzero"/><path fill="#9e30ff" d="M 101.089844 78.6875 C 100.902344 78.453125 100.683594 78.257812 100.425781 78.101562 C 100.167969 77.945312 99.894531 77.835938 99.597656 77.78125 C 99.304688 77.722656 99.007812 77.71875 98.710938 77.765625 C 98.417969 77.8125 98.136719 77.914062 97.875 78.058594 C 97.617188 78.207031 97.394531 78.394531 97.199219 78.621094 C 97.007812 78.847656 96.859375 79.097656 96.757812 79.378906 C 96.65625 79.65625 96.601562 79.945312 96.601562 80.242188 C 96.601562 80.539062 96.648438 80.824219 96.75 81.105469 L 98.261719 85.316406 L 104.464844 82.957031 Z M 101.089844 78.6875 " fill-opacity="1" fill-rule="nonzero"/><path fill="#2f2e41" d="M 100.53125 97.28125 C 100.25 97.070312 99.949219 96.890625 99.628906 96.738281 L 88.34375 98.476562 L 88.589844 105.554688 C 83.132812 115.871094 79.523438 127.640625 77.550781 140.695312 L 84.621094 142.308594 C 87.785156 130.042969 91.378906 119.03125 95.90625 110.769531 L 100.683594 142.011719 L 108.804688 141.8125 C 107.734375 123.449219 106.910156 102.039062 100.53125 97.28125 Z M 100.53125 97.28125 " fill-opacity="1" fill-rule="nonzero"/><path fill="#ffb8b8" d="M 96.507812 72.503906 C 96.507812 72.792969 96.480469 73.082031 96.425781 73.363281 C 96.367188 73.648438 96.285156 73.921875 96.171875 74.191406 C 96.0625 74.457031 95.925781 74.710938 95.765625 74.953125 C 95.605469 75.191406 95.425781 75.414062 95.21875 75.621094 C 95.015625 75.824219 94.792969 76.007812 94.554688 76.167969 C 94.3125 76.328125 94.058594 76.464844 93.792969 76.574219 C 93.527344 76.683594 93.25 76.769531 92.96875 76.824219 C 92.683594 76.882812 92.398438 76.910156 92.109375 76.910156 C 91.820312 76.910156 91.535156 76.882812 91.25 76.824219 C 90.96875 76.769531 90.691406 76.683594 90.425781 76.574219 C 90.160156 76.464844 89.90625 76.328125 89.664062 76.167969 C 89.425781 76.007812 89.203125 75.824219 89 75.621094 C 88.792969 75.414062 88.613281 75.191406 88.453125 74.953125 C 88.292969 74.710938 88.15625 74.457031 88.046875 74.191406 C 87.933594 73.921875 87.851562 73.648438 87.796875 73.363281 C 87.738281 73.082031 87.710938 72.792969 87.710938 72.503906 C 87.710938 72.214844 87.738281 71.929688 87.796875 71.644531 C 87.851562 71.363281 87.933594 71.085938 88.046875 70.820312 C 88.15625 70.554688 88.292969 70.300781 88.453125 70.058594 C 88.613281 69.816406 88.792969 69.59375 89 69.390625 C 89.203125 69.1875 89.425781 69.003906 89.664062 68.84375 C 89.90625 68.683594 90.160156 68.546875 90.425781 68.4375 C 90.691406 68.324219 90.96875 68.242188 91.25 68.1875 C 91.535156 68.128906 91.820312 68.101562 92.109375 68.101562 C 92.398438 68.101562 92.683594 68.128906 92.96875 68.1875 C 93.25 68.242188 93.527344 68.324219 93.792969 68.4375 C 94.058594 68.546875 94.3125 68.683594 94.554688 68.84375 C 94.792969 69.003906 95.015625 69.1875 95.21875 69.390625 C 95.425781 69.59375 95.605469 69.816406 95.765625 70.058594 C 95.925781 70.300781 96.0625 70.554688 96.171875 70.820312 C 96.285156 71.085938 96.367188 71.363281 96.425781 71.644531 C 96.480469 71.929688 96.507812 72.214844 96.507812 72.503906 Z M 96.507812 72.503906 " fill-opacity="1" fill-rule="nonzero"/><path fill="#9e30ff" d="M 101.78125 83.824219 C 101.882812 83.214844 101.886719 82.605469 101.789062 81.996094 C 101.691406 81.386719 101.503906 80.804688 101.21875 80.257812 C 100.9375 79.710938 100.574219 79.222656 100.132812 78.789062 C 99.6875 78.359375 99.191406 78.011719 98.636719 77.742188 L 93.675781 77.988281 C 92.855469 78.203125 92.125 78.582031 91.484375 79.132812 C 90.84375 79.683594 90.351562 80.347656 90.015625 81.125 C 87.867188 86.160156 87.5625 92.605469 88.464844 99.96875 L 100.214844 97.167969 C 98.605469 93.535156 99.898438 88.792969 101.78125 83.824219 Z M 101.78125 83.824219 " fill-opacity="1" fill-rule="nonzero"/><path fill="#2f2e41" d="M 86.65625 71.429688 C 86.65625 71.132812 86.683594 70.839844 86.742188 70.546875 C 86.800781 70.253906 86.886719 69.96875 87 69.695312 C 87.113281 69.417969 87.253906 69.15625 87.417969 68.910156 C 87.585938 68.664062 87.773438 68.433594 87.984375 68.222656 C 88.191406 68.011719 88.421875 67.824219 88.667969 67.65625 C 88.917969 67.492188 89.179688 67.351562 89.453125 67.238281 C 89.726562 67.125 90.011719 67.039062 90.304688 66.980469 C 90.597656 66.921875 90.890625 66.894531 91.1875 66.894531 L 91.449219 66.894531 C 92.292969 66.21875 93.257812 65.882812 94.335938 65.882812 C 94.640625 65.882812 94.945312 65.914062 95.246094 65.972656 C 95.546875 66.035156 95.835938 66.121094 96.117188 66.238281 C 96.402344 66.355469 96.671875 66.5 96.925781 66.671875 C 97.179688 66.839844 97.414062 67.035156 97.628906 67.25 C 97.847656 67.46875 98.039062 67.703125 98.210938 67.957031 C 98.378906 68.210938 98.523438 68.480469 98.640625 68.765625 C 98.757812 69.046875 98.847656 69.339844 98.90625 69.640625 C 98.964844 69.9375 98.996094 70.242188 98.996094 70.550781 L 98.996094 76.472656 C 95.984375 76.398438 92.570312 76.992188 88.921875 77.988281 C 89.839844 75.4375 90.453125 73.089844 90.035156 71.429688 Z M 86.65625 71.429688 " fill-opacity="1" fill-rule="nonzero"/><path fill="#ffb8b8" d="M 77.335938 91.855469 C 77.820312 91.855469 78.246094 92.007812 78.617188 92.3125 L 88.140625 89.875 L 89.96875 84.046875 L 93.980469 86.539062 L 90.863281 93.121094 L 78.972656 95.046875 C 78.871094 95.1875 78.753906 95.3125 78.621094 95.421875 C 78.488281 95.53125 78.34375 95.625 78.1875 95.699219 C 78.03125 95.769531 77.871094 95.824219 77.699219 95.855469 C 77.53125 95.886719 77.359375 95.894531 77.1875 95.882812 C 77.015625 95.867188 76.847656 95.835938 76.683594 95.777344 C 76.519531 95.722656 76.367188 95.648438 76.222656 95.550781 C 76.078125 95.457031 75.949219 95.34375 75.835938 95.214844 C 75.71875 95.085938 75.625 94.945312 75.542969 94.792969 C 75.464844 94.636719 75.40625 94.476562 75.371094 94.308594 C 75.332031 94.140625 75.316406 93.96875 75.324219 93.796875 C 75.332031 93.621094 75.359375 93.453125 75.410156 93.289062 C 75.457031 93.125 75.527344 92.964844 75.617188 92.820312 C 75.707031 92.671875 75.816406 92.539062 75.941406 92.417969 C 76.0625 92.296875 76.203125 92.195312 76.351562 92.113281 C 76.503906 92.027344 76.660156 91.964844 76.828125 91.917969 C 76.996094 91.875 77.164062 91.855469 77.335938 91.855469 Z M 77.335938 91.855469 " fill-opacity="1" fill-rule="nonzero"/><path fill="#9e30ff" d="M 95.90625 82.28125 C 95.992188 81.992188 96.027344 81.699219 96.007812 81.398438 C 95.988281 81.097656 95.917969 80.8125 95.796875 80.539062 C 95.671875 80.261719 95.507812 80.015625 95.296875 79.800781 C 95.089844 79.585938 94.847656 79.414062 94.578125 79.285156 C 94.308594 79.15625 94.027344 79.078125 93.734375 79.050781 C 93.4375 79.023438 93.148438 79.046875 92.859375 79.121094 C 92.574219 79.195312 92.308594 79.320312 92.0625 79.488281 C 91.820312 79.65625 91.613281 79.863281 91.441406 80.105469 L 88.863281 83.761719 L 94.347656 87.496094 Z M 95.90625 82.28125 " fill-opacity="1" fill-rule="nonzero"/><g clip-path="url(#id3)"><path fill="#cacaca" d="M 120.402344 149.136719 L 58.882812 149.136719 C 58.800781 149.136719 58.730469 149.109375 58.671875 149.050781 C 58.613281 148.992188 58.582031 148.921875 58.582031 148.835938 C 58.582031 148.753906 58.613281 148.683594 58.671875 148.625 C 58.730469 148.566406 58.800781 148.539062 58.882812 148.539062 L 120.402344 148.539062 C 120.484375 148.539062 120.554688 148.566406 120.613281 148.625 C 120.671875 148.683594 120.703125 148.753906 120.703125 148.835938 C 120.703125 148.921875 120.671875 148.992188 120.613281 149.050781 C 120.554688 149.109375 120.484375 149.136719 120.402344 149.136719 Z M 120.402344 149.136719 " fill-opacity="1" fill-rule="nonzero"/></g></svg>